{
.appVersion = "3058";
.formatVersion = 3;
DisplayStrings = (
"THE QUICK BROWN FOX JUMPS OVER THE LAZY DOG
the quick brown fox jumps over the lazy dog
Spacing
nanbncndnenfngnhninjnknlnmnnonpnqnrnsntnunvnwnxnynzn
HAHBHCHDHEHFHGHHIHJHKHLHMHNHOHPHQHRHSHTHUHVHWHXHYHZH
0102030405060708090
lower case//lower case
aufkauf aufhalt aufbleib
verixt auflassen 
hoe auffassen
le aufißt raufjagen fine
aufnden Tiefieger
Stolos Muon Stoigel Ozier
Raband Tuhöhle Sukopp 
führen fördern fähre
wegjagen Bargfeld
kyrie afro arte axe luvwärts
Gevatter wann 
ever gewettet severe
davon gewonnen down
wichtig recken
ndnlhon*”
nlnlhon*”dh
fîî tíì lïïë th nsa
Versal//Kleinbuchstaben
Farbe Fest Firn Fjord Font
Frau Fuß Fähre Förde Füße
Rest Rohr Röhre Rymer
Test Tod Tauf Tim Tja Turm
Traum Tsara Twist Tyrol
Tüte Töten Täter TéTêTèVeste Vogel VéVêVèVater Vijf Vlut Vulkan
Vytautas Vroni Väter Vögel Vs Ws Vz Wz
Weste Wolf Wüste Wörpe Wärter Waage Wiege Wlasta
Wurst Wyhl Wrasen
Yeats Yoni auf Yqem
Yak Ybbs Yggdrasil Yps
Ysop Ytong Yuma
Versal//Versal
ATK AVI AWL AYN LTK
LVI LWL LYN V TH
RTK TVI RWL RYN
TABULA VATER WASSER
YAKUZA FABEL PAPST
UNÐE H",
abcdefghijklmnopqrstuvwxyz,
"™",
"ı",
"í",
"î",
"ï",
"ì",
"ıíîïì",
"ÎÏÌ",
"Ð",
"Æ",
AM
);
axes = (
{
name = Weight;
tag = wght;
}
);
customParameters = (
{
name = variableStyleName;
value = Sans;
},
{
name = fsType;
value = (
);
},
{
name = "Enforce Compatibility Check";
value = 1;
},
{
name = "Variable Font Origin";
value = "9333E5AC-F59E-47B3-BDF0-7EA648395594";
},
{
disabled = 1;
name = "Get Hints From Master";
value = "9333E5AC-F59E-47B3-BDF0-7EA648395594";
},
{
name = "gasp Table";
value = {
};
},
{
name = vendorID;
value = KERN;
},
{
name = "Axis Mappings";
value = {
wght = {
100 = 100;
900 = 900;
};
};
},
{
name = panose;
value = (
2,
11,
10,
4,
4,
2,
0,
0,
2,
3
);
}
);
date = "2020-03-28 06:10:06 +0000";
familyName = Urbanist;
featurePrefixes = (
{
automatic = 1;
code = "languagesystem DFLT dflt;
";
name = Languagesystems;
}
);
features = (
{

glyphs = (
{
glyphname = A;
kernLeft = A;
kernRight = A;
lastChange = "2021-05-18 07:04:12 +0000";
layers = (
{
layerId = "7763577D-A4D2-4749-AE53-49BDF6EC3913";
shapes = (
{
closed = 1;
nodes = (
(7,0,l),
(330,0,l),
(441,220,l),
(999,220,l),
(1048,0,l),
(1361,0,l),
(1050,1400,l),
(712,1400,l)
);
},
{
closed = 1;
nodes = (
(829,984,l),
(931,520,l),
(593,520,l)
);
}
);
width = 1514;
},
{
layerId = "DDA43255-513F-4353-BCA4-425ED8D2F935";
shapes = (
{
closed = 1;
nodes = (
(9,0,l),
(74,0,l),
(246,340,l),
(982,340,l),
(1058,0,l),
(1121,0,l),
(808,1400,l),
(716,1400,l)
);
},
{
closed = 1;
nodes = (
(756,1350,l),
(968,400,l),
(276,400,l)
);
}
);
width = 1272;
},
{
layerId = "9333E5AC-F59E-47B3-BDF0-7EA648395594";
shapes = (
{
closed = 1;
nodes = (
(8,0,l),
(170,0,l),
(319,295,l),
(988,295,l),
(1054,0,l),
(1211,0,l),
(899,1400,l),
(715,1400,l)
);
},
{
closed = 1;
nodes = (
(783,1213,l),
(954,445,l),
(395,445,l)
);
}
);
width = 1362.75;
}
);
unicode = 65;
},
{
glyphname = AE;
kernLeft = A;
kernRight = E;
lastChange = "2021-05-18 07:06:27 +0000";
layers = (
{
layerId = "7763577D-A4D2-4749-AE53-49BDF6EC3913";
shapes = (
{
closed = 1;
nodes = (
(330,0,l),
(441,220,l),
(819,220,l),
(788,0,l),
(1540,0,l),
(1582,300,l),
(1130,300,l),
(1165,550,l),
(1521,550,l),
(1563,850,l),
(1207,850,l),
(1242,1100,l),
(1694,1100,l),
(1736,1400,l),
(712,1400,l),
(7,0,l)
);
},
{
closed = 1;
nodes = (
(885,1100,l),
(942,1100,l),
(861,520,l),
(593,520,l)
);
}
);
width = 1710;
},
{
layerId = "DDA43255-513F-4353-BCA4-425ED8D2F935";
shapes = (
{
closed = 1;
nodes = (
(74,0,l),
(246,340,l),
(760,340,l),
(712,0,l),
(1404,0,l),
(1412,60,l),
(780,60,l),
(866,670,l),
(1402,670,l),
(1410,730,l),
(874,730,l),
(960,1340,l),
(1592,1340,l),
(1600,1400,l),
(716,1400,l),
(9,0,l)
);
},
{
closed = 1;
nodes = (
(753,1340,l),
(900,1340,l),
(768,400,l),
(276,400,l)
);
}
);
width = 1574;
},
{
layerId = "9333E5AC-F59E-47B3-BDF0-7EA648395594";
shapes = (
{
closed = 1;
nodes = (
(170,0,l),
(319,295,l),
(782,295,l),
(741,0,l),
(1455,0,l),
(1476,150,l),
(911,150,l),
(978,625,l),
(1447,625,l),
(1467,775,l),
(999,775,l),
(1066,1250,l),
(1630,1250,l),
(1651,1400,l),
(715,1400,l),
(8,0,l)
);
},
{
closed = 1;
nodes = (
(803,1250,l),
(916,1250,l),
(803,445,l),
(395,445,l)
);
}
);
width = 1624;
}
);
metricLeft = A;
metricRight = E;
unicode = 198;
},
{
glyphname = B;
kernLeft = H;
kernRight = B;
lastChange = "2021-05-18 07:04:12 +0000";
layers = (
{
layerId = "7763577D-A4D2-4749-AE53-49BDF6EC3913";
shapes = (
{
closed = 1;
nodes = (
(642,0,ls),
(874,0,o),
(1078,162,o),
(1107,365,cs),
(1126,498,o),
(1131,719,o),
(966,760,c),
(1085,810,o),
(1119,918,o),
(1130,997,cs),
(1164,1240,o),
(998,1400,o),
(768,1400,cs),
(246,1400,l),
(50,0,l)
);
},
{
closed = 1;
nodes = (
(438,625,l),
(698,625,ls),
(802,625,o),
(866,544,o),
(854,461,cs),
(838,342,o),
(733,254,o),
(629,254,cs),
(385,254,l)
);
},
{
closed = 1;
nodes = (
(511,1144,l),
(713,1144,ls),
(793,1144,o),
(845,1106,o),
(835,1033,cs),
(822,942,o),
(738,875,o),
(658,875,cs),
(473,875,l)
);
}
);
width = 1206;
},
{
layerId = "DDA43255-513F-4353-BCA4-425ED8D2F935";
shapes = (
{
closed = 1;
nodes = (
(561,0,ls),
(759,0,o),
(941,150,o),
(976,399,cs),
(999,564,o),
(923,731,o),
(771,775,c),
(850,788,o),
(970,910,o),
(990,1057,cs),
(1022,1280,o),
(881,1398,o),
(689,1398,cs),
(246,1398,l),
(50,0,l)
);
},
{
closed = 1;
nodes = (
(214,740,l),
(665,740,ls),
(831,740,o),
(941,580,o),
(917,405,cs),
(889,208,o),
(732,60,o),
(566,60,cs),
(118,60,l)
);
},
{
closed = 1;
nodes = (
(298,1338,l),
(683,1338,ls),
(841,1338,o),
(958,1252,o),
(931,1063,cs),
(907,892,o),
(762,800,o),
(604,800,cs),
(222,800,l)
);
}
);
width = 1070;
},
{
layerId = "9333E5AC-F59E-47B3-BDF0-7EA648395594";
shapes = (
{
closed = 1;
nodes = (
(591,0,ls),
(802,0,o),
(992,155,o),
(1025,386,cs),
(1047,539,o),
(1001,727,o),
(844,769,c),
(938,796,o),
(1026,913,o),
(1043,1035,cs),
(1075,1265,o),
(925,1399,o),
(719,1399,cs),
(246,1399,l),
(50,0,l)
);
},
{
closed = 1;
nodes = (
(298,697,l),
(677,697,ls),
(820,697,o),
(913,567,o),
(893,426,cs),
(870,258,o),
(732,133,o),
(590,133,cs),
(218,133,l)
);
},
{
closed = 1;
nodes = (
(378,1265,l),
(694,1265,ls),
(823,1265,o),
(916,1197,o),
(895,1052,cs),
(875,911,o),
(753,828,o),
(624,828,cs),
(316,828,l)
);
}
);
width = 1121;
}
);
unicode = 66;
},
{
glyphname = C;
kernLeft = O;
kernRight = C;
lastChange = "2021-05-18 07:04:12 +0000";
layers = (
{
layerId = "7763577D-A4D2-4749-AE53-49BDF6EC3913";
shapes = (
{
closed = 1;
nodes = (
(908,-26,o),
(1118,81,o),
(1269,255,c),
(1011,414,l),
(931,332,o),
(820,274,o),
(699,274,c),
(494,274,o),
(354,458,o),
(386,683,c),
(420,928,o),
(630,1126,o),
(853,1126,c),
(956,1126,o),
(1047,1080,o),
(1106,1000,c),
(1383,1131,l),
(1280,1305,o),
(1096,1426,o),
(861,1426,c),
(490,1426,o),
(146,1110,o),
(90,717,c),
(33,308,o),
(302,-26,o),
(691,-26,c)
);
}
);
width = 1398;
},
{
layerId = "DDA43255-513F-4353-BCA4-425ED8D2F935";
shapes = (
{
closed = 1;
nodes = (
(902,-26,o),
(1115,85,o),
(1265,261,c),
(1215,291,l),
(1084,139,o),
(885,34,o),
(679,34,cs),
(335,34,o),
(96,330,o),
(148,697,cs),
(198,1056,o),
(519,1366,o),
(873,1366,cs),
(1065,1366,o),
(1241,1267,o),
(1333,1109,c),
(1387,1135,l),
(1285,1311,o),
(1102,1426,o),
(875,1426,cs),
(496,1426,o),
(145,1102,o),
(89,703,cs),
(32,300,o),
(296,-26,o),
(677,-26,cs)
);
}
);
width = 1398;
},
{
layerId = "9333E5AC-F59E-47B3-BDF0-7EA648395594";
shapes = (
{
closed = 1;
nodes = (
(904,-26,o),
(1116,84,o),
(1267,259,c),
(1139,337,l),
(1027,211,o),
(861,124,o),
(687,124,cs),
(395,124,o),
(193,378,o),
(237,692,cs),
(281,1008,o),
(561,1276,o),
(866,1276,cs),
(1024,1276,o),
(1168,1197,o),
(1248,1068,c),
(1386,1134,l),
(1283,1309,o),
(1100,1426,o),
(870,1426,cs),
(494,1426,o),
(145,1105,o),
(89,708,cs),
(32,303,o),
(298,-26,o),
(682,-26,cs)
);
}
);
width = 1398;
}
);
unicode = 67;
},
{
glyphname = D;
kernLeft = H;
kernRight = O;
lastChange = "2021-05-18 07:04:12 +0000";
layers = (
{
layerId = "7763577D-A4D2-4749-AE53-49BDF6EC3913";
shapes = (
{
closed = 1;
nodes = (
(522,0,ls),
(908,0,o),
(1257,306,o),
(1310,683,cs),
(1365,1078,o),
(1088,1400,o),
(702,1400,cs),
(246,1400,l),
(50,0,l)
);
},
{
closed = 1;
nodes = (
(504,1100,l),
(677,1100,ls),
(895,1100,o),
(1044,928,o),
(1014,717,cs),
(982,486,o),
(764,300,o),
(548,300,cs),
(392,300,l)
);
}
);
width = 1344;
},
{
layerId = "DDA43255-513F-4353-BCA4-425ED8D2F935";
shapes = (
{
closed = 1;
nodes = (
(513,0,ls),
(901,0,o),
(1256,312,o),
(1310,697,cs),
(1364,1084,o),
(1095,1400,o),
(707,1400,cs),
(246,1400,l),
(50,0,l)
);
},
{
closed = 1;
nodes = (
(298,1340,l),
(702,1340,ls),
(1056,1340,o),
(1300,1056,o),
(1251,703,cs),
(1201,348,o),
(874,60,o),
(518,60,cs),
(118,60,l)
);
}
);
width = 1342;
},
{
layerId = "9333E5AC-F59E-47B3-BDF0-7EA648395594";
shapes = (
{
closed = 1;
nodes = (
(516,0,ls),
(904,0,o),
(1256,310,o),
(1310,692,cs),
(1364,1082,o),
(1092,1400,o),
(705,1400,cs),
(246,1400,l),
(50,0,l)
);
},
{
closed = 1;
nodes = (
(375,1250,l),
(693,1250,ls),
(996,1250,o),
(1204,1008,o),
(1162,708,cs),
(1119,400,o),
(833,150,o),
(529,150,cs),
(221,150,l)
);
}
);
width = 1342.75;
}
);
unicode = 68;
},
{
glyphname = Eth;
kernLeft = H;
kernRight = O;
lastChange = "2021-05-18 07:06:23 +0000";
layers = (
{
layerId = "7763577D-A4D2-4749-AE53-49BDF6EC3913";
shapes = (
{
closed = 1;
nodes = (
(640,0,ls),
(1026,0,o),
(1375,306,o),
(1428,683,cs),
(1483,1078,o),
(1206,1400,o),
(820,1400,cs),
(366,1400,l),
(296,900,l),
(156,900,l),
(114,600,l),
(254,600,l),
(170,0,l)
);
},
{
closed = 1;
nodes = (
(554,600,l),
(792,600,l),
(834,900,l),
(596,900,l),
(624,1100,l),
(795,1100,ls),
(1015,1100,o),
(1162,928,o),
(1132,717,cs),
(1100,488,o),
(886,300,o),
(666,300,cs),
(512,300,l)
);
}
);
width = 1462;
},
{
layerId = "DDA43255-513F-4353-BCA4-425ED8D2F935";
shapes = (
{
closed = 1;
nodes = (
(623,0,ls),
(1009,0,o),
(1366,312,o),
(1420,697,cs),
(1474,1084,o),
(1203,1400,o),
(817,1400,cs),
(354,1400,l),
(267,780,l),
(139,780,l),
(131,720,l),
(259,720,l),
(158,0,l)
);
},
{
closed = 1;
nodes = (
(319,720,l),
(717,720,l),
(725,780,l),
(327,780,l),
(406,1340,l),
(812,1340,ls),
(1156,1340,o),
(1411,1062,o),
(1361,703,cs),
(1312,356,o),
(988,60,o),
(628,60,cs),
(226,60,l)
);
}
);
width = 1452;
},
{
layerId = "9333E5AC-F59E-47B3-BDF0-7EA648395594";
shapes = (
{
closed = 1;
nodes = (
(630,0,ls),
(1016,0,o),
(1370,310,o),
(1424,692,cs),
(1478,1082,o),
(1205,1400,o),
(819,1400,cs),
(360,1400,l),
(279,825,l),
(146,825,l),
(126,675,l),
(258,675,l),
(164,0,l)
);
},
{
closed = 1;
nodes = (
(408,675,l),
(746,675,l),
(767,825,l),
(429,825,l),
(489,1250,l),
(807,1250,ls),
(1104,1250,o),
(1319,1012,o),
(1276,708,cs),
(1234,406,o),
(951,150,o),
(643,150,cs),
(334,150,l)
);
}
);
width = 1457;
}
);
metricLeft = "=D-20";
metricRight = D;
unicode = 208;
},
{
glyphname = E;
kernLeft = H;
kernRight = E;
lastChange = "2021-05-18 07:04:12 +0000";
layers = (
{
layerId = "7763577D-A4D2-4749-AE53-49BDF6EC3913";
shapes = (
{
closed = 1;
nodes = (
(942,0,l),
(984,300,l),
(392,300,l),
(434,600,l),
(890,600,l),
(932,900,l),
(476,900,l),
(504,1100,l),
(1096,1100,l),
(1138,1400,l),
(246,1400,l),
(50,0,l)
);
}
);
width = 1112;
},
{
layerId = "DDA43255-513F-4353-BCA4-425ED8D2F935";
shapes = (
{
closed = 1;
nodes = (
(882,0,l),
(890,60,l),
(118,60,l),
(211,720,l),
(867,720,l),
(875,780,l),
(219,780,l),
(298,1340,l),
(1070,1340,l),
(1078,1400,l),
(246,1400,l),
(50,0,l)
);
}
);
width = 1052;
},
{
layerId = "9333E5AC-F59E-47B3-BDF0-7EA648395594";
shapes = (
{
closed = 1;
nodes = (
(905,0,l),
(925,150,l),
(221,150,l),
(295,675,l),
(876,675,l),
(896,825,l),
(315,825,l),
(375,1250,l),
(1080,1250,l),
(1101,1400,l),
(246,1400,l),
(50,0,l)
);
}
);
width = 1074.5;
}
);
unicode = 69;
},
{
glyphname = F;
kernLeft = H;
kernRight = F;
lastChange = "2021-05-18 07:04:12 +0000";
layers = (
{
layerId = "7763577D-A4D2-4749-AE53-49BDF6EC3913";
shapes = (
{
closed = 1;
nodes = (
(350,0,l),
(434,600,l),
(870,600,l),
(912,900,l),
(476,900,l),
(504,1100,l),
(1036,1100,l),
(1078,1400,l),
(246,1400,l),
(50,0,l)
);
}
);
width = 972;
},
{
layerId = "DDA43255-513F-4353-BCA4-425ED8D2F935";
shapes = (
{
closed = 1;
nodes = (
(110,0,l),
(211,720,l),
(867,720,l),
(875,780,l),
(219,780,l),
(298,1340,l),
(1050,1340,l),
(1058,1400,l),
(246,1400,l),
(50,0,l)
);
}
);
width = 952;
},
{
layerId = "9333E5AC-F59E-47B3-BDF0-7EA648395594";
shapes = (
{
closed = 1;
nodes = (
(200,0,l),
(295,675,l),
(868,675,l),
(889,825,l),
(315,825,l),
(375,1250,l),
(1045,1250,l),
(1066,1400,l),
(246,1400,l),
(50,0,l)
);
}
);
width = 959.5;
}
);
unicode = 70;
},
{
glyphname = G;
kernLeft = O;
kernRight = O;
lastChange = "2021-05-18 07:04:12 +0000";
layers = (
{
layerId = "7763577D-A4D2-4749-AE53-49BDF6EC3913";
shapes = (
{
closed = 1;
nodes = (
(1078,-26,o),
(1429,314,o),
(1468,732,c),
(928,740,l),
(891,480,l),
(1076,487,l),
(974,345,o),
(834,274,o),
(703,274,cs),
(496,274,o),
(353,452,o),
(385,679,cs),
(422,944,o),
(646,1126,o),
(855,1126,cs),
(944,1126,o),
(1037,1090,o),
(1106,998,c),
(1383,1129,l),
(1258,1331,o),
(1069,1424,o),
(867,1424,cs),
(519,1424,o),
(150,1138,o),
(91,719,cs),
(34,312,o),
(290,-26,o),
(691,-26,cs)
);
}
);
width = 1497;
},
{
layerId = "DDA43255-513F-4353-BCA4-425ED8D2F935";
shapes = (
{
closed = 1;
nodes = (
(1038,-26,o),
(1380,270,o),
(1456,640,c),
(916,642,l),
(908,582,l),
(1380,584,l),
(1291,284,o),
(997,34,o),
(681,34,cs),
(335,34,o),
(97,334,o),
(148,697,cs),
(198,1056,o),
(521,1366,o),
(875,1366,cs),
(1063,1366,o),
(1236,1273,o),
(1333,1109,c),
(1389,1137,l),
(1287,1311,o),
(1102,1426,o),
(877,1426,cs),
(496,1426,o),
(145,1102,o),
(89,703,cs),
(32,302,o),
(296,-26,o),
(679,-26,cs)
);
}
);
width = 1496;
},
{
layerId = "9333E5AC-F59E-47B3-BDF0-7EA648395594";
shapes = (
{
closed = 1;
nodes = (
(1053,-26,o),
(1398,287,o),
(1461,675,c),
(921,679,l),
(902,544,l),
(1266,548,l),
(1172,307,o),
(936,124,o),
(689,124,cs),
(395,124,o),
(193,378,o),
(237,690,cs),
(282,1014,o),
(568,1276,o),
(868,1276,cs),
(1018,1276,o),
(1161,1204,o),
(1248,1067,c),
(1387,1134,l),
(1276,1319,o),
(1090,1425,o),
(873,1425,cs),
(505,1425,o),
(147,1116,o),
(90,709,cs),
(33,306,o),
(294,-26,o),
(684,-26,cs)
);
}
);
width = 1496.375;
}
);
unicode = 71;
},
{
glyphname = H;
kernLeft = H;
kernRight = H;
lastChange = "2021-05-18 07:04:12 +0000";
layers = (
{
layerId = "7763577D-A4D2-4749-AE53-49BDF6EC3913";
shapes = (
{
closed = 1;
nodes = (
(972,900,l),
(476,900,l),
(546,1400,l),
(246,1400,l),
(50,0,l),
(350,0,l),
(434,600,l),
(930,600,l),
(846,0,l),
(1146,0,l),
(1342,1400,l),
(1042,1400,l)
);
}
);
width = 1336;
},
{
layerId = "DDA43255-513F-4353-BCA4-425ED8D2F935";
shapes = (
{
closed = 1;
nodes = (
(1073,780,l),
(219,780,l),
(306,1400,l),
(246,1400,l),
(50,0,l),
(110,0,l),
(211,720,l),
(1065,720,l),
(964,0,l),
(1024,0,l),
(1220,1400,l),
(1160,1400,l)
);
}
);
width = 1214;
},
{
layerId = "9333E5AC-F59E-47B3-BDF0-7EA648395594";
shapes = (
{
closed = 1;
nodes = (
(1035,825,l),
(315,825,l),
(396,1400,l),
(246,1400,l),
(50,0,l),
(200,0,l),
(295,675,l),
(1014,675,l),
(920,0,l),
(1070,0,l),
(1266,1400,l),
(1116,1400,l)
);
}
);
width = 1259.75;
}
);
unicode = 72;
},
{
glyphname = I;
kernLeft = H;
kernRight = H;
lastChange = "2021-05-18 07:04:12 +0000";
layers = (
{
layerId = "7763577D-A4D2-4749-AE53-49BDF6EC3913";
shapes = (
{
closed = 1;
nodes = (
(380,0,l),
(576,1400,l),
(276,1400,l),
(80,0,l)
);
}
);
width = 600;
},
{
layerId = "DDA43255-513F-4353-BCA4-425ED8D2F935";
shapes = (
{
closed = 1;
nodes = (
(140,0,l),
(336,1400,l),
(276,1400,l),
(80,0,l)
);
}
);
width = 360;
},
{
layerId = "9333E5AC-F59E-47B3-BDF0-7EA648395594";
shapes = (
{
closed = 1;
nodes = (
(230,0,l),
(426,1400,l),
(276,1400,l),
(80,0,l)
);
}
);
width = 450;
}
);
unicode = 73;
},
{
glyphname = J;
kernLeft = J;
kernRight = J;
lastChange = "2021-05-18 07:04:12 +0000";
layers = (
{
layerId = "7763577D-A4D2-4749-AE53-49BDF6EC3913";
shapes = (
{
closed = 1;
nodes = (
(536,-26,o),
(769,178,o),
(805,438,cs),
(940,1400,l),
(640,1400,l),
(508,454,ls),
(494,360,o),
(396,274,o),
(293,274,cs),
(250,274,o),
(218,291,o),
(199,309,c),
(-14,89,l),
(63,17,o),
(166,-26,o),
(285,-26,cs)
);
}
);
width = 934;
},
{
layerId = "DDA43255-513F-4353-BCA4-425ED8D2F935";
shapes = (
{
closed = 1;
nodes = (
(388,-26,o),
(569,150,o),
(596,344,cs),
(744,1400,l),
(684,1400,l),
(537,348,ls),
(514,186,o),
(359,34,o),
(195,34,cs),
(129,34,o),
(66,57,o),
(21,101,c),
(-22,57,l),
(33,3,o),
(110,-26,o),
(193,-26,cs)
);
}
);
width = 738;
},
{
layerId = "9333E5AC-F59E-47B3-BDF0-7EA648395594";
shapes = (
{
closed = 1;
nodes = (
(444,-26,o),
(644,161,o),
(674,379,cs),
(818,1400,l),
(668,1400,l),
(526,388,ls),
(507,251,o),
(373,124,o),
(232,124,cs),
(174,124,o),
(123,145,o),
(88,179,c),
(-19,69,l),
(44,8,o),
(131,-26,o),
(228,-26,cs)
);
}
);
width = 811.5;
}
);
unicode = 74;
},
{
glyphname = K;
kernLeft = H;
kernRight = K;
lastChange = "2021-05-18 07:04:12 +0000";
layers = (
{
layerId = "7763577D-A4D2-4749-AE53-49BDF6EC3913";
shapes = (
{
closed = 1;
nodes = (
(690,740,l),
(1340,1400,l),
(941,1400,l),
(476,924,l),
(547,1400,l),
(246,1400,l),
(50,0,l),
(350,0,l),
(417,458,l),
(467,506,l),
(751,0,l),
(1137,0,l)
);
}
);
width = 1230;
},
{
layerId = "DDA43255-513F-4353-BCA4-425ED8D2F935";
shapes = (
{
closed = 1;
nodes = (
(411,738,l),
(1061,1400,l),
(982,1400,l),
(193,594,l),
(306,1400,l),
(246,1400,l),
(50,0,l),
(110,0,l),
(181,500,l),
(366,690,l),
(778,0,l),
(853,0,l)
);
}
);
width = 984;
},
{
layerId = "9333E5AC-F59E-47B3-BDF0-7EA648395594";
shapes = (
{
closed = 1;
nodes = (
(516,739,l),
(1166,1400,l),
(967,1400,l),
(299,718,l),
(396,1400,l),
(246,1400,l),
(50,0,l),
(200,0,l),
(270,484,l),
(404,621,l),
(768,0,l),
(960,0,l)
);
}
);
width = 1076.25;
}
);
unicode = 75;
},
{
glyphname = L;
kernLeft = H;
kernRight = L;
lastChange = "2021-05-18 07:04:12 +0000";
layers = (
{
layerId = "7763577D-A4D2-4749-AE53-49BDF6EC3913";
shapes = (
{
closed = 1;
nodes = (
(900,0,l),
(942,300,l),
(392,300,l),
(546,1400,l),
(246,1400,l),
(50,0,l)
);
}
);
width = 1070;
},
{
layerId = "DDA43255-513F-4353-BCA4-425ED8D2F935";
shapes = (
{
closed = 1;
nodes = (
(800,0,l),
(808,60,l),
(118,60,l),
(306,1400,l),
(246,1400,l),
(50,0,l)
);
}
);
width = 970;
},
{
layerId = "9333E5AC-F59E-47B3-BDF0-7EA648395594";
shapes = (
{
closed = 1;
nodes = (
(838,0,l),
(858,150,l),
(221,150,l),
(396,1400,l),
(246,1400,l),
(50,0,l)
);
}
);
width = 1007.5;
}
);
metricLeft = H;
unicode = 76;
},
{
glyphname = M;
kernLeft = M;
kernRight = M;
lastChange = "2021-05-18 07:04:12 +0000";
layers = (
{
layerId = "7763577D-A4D2-4749-AE53-49BDF6EC3913";
shapes = (
{
closed = 1;
nodes = (
(357,0,l),
(612,756,l),
(790,0,l),
(998,0,l),
(1392,756,l),
(1429,0,l),
(1732,0,l),
(1657,1400,l),
(1400,1400,l),
(967,574,l),
(772,1400,l),
(517,1400,l),
(48,0,l)
);
}
);
width = 1924;
},
{
layerId = "DDA43255-513F-4353-BCA4-425ED8D2F935";
shapes = (
{
closed = 1;
nodes = (
(110,0,l),
(521,1228,l),
(780,138,l),
(810,138,l),
(1375,1228,l),
(1440,0,l),
(1501,0,l),
(1426,1400,l),
(1400,1400,l),
(812,268,l),
(542,1400,l),
(516,1400,l),
(49,0,l)
);
}
);
width = 1692;
},
{
layerId = "9333E5AC-F59E-47B3-BDF0-7EA648395594";
shapes = (
{
closed = 1;
nodes = (
(203,0,l),
(555,1051,l),
(784,86,l),
(881,86,l),
(1381,1051,l),
(1436,0,l),
(1588,0,l),
(1513,1400,l),
(1400,1400,l),
(870,383,l),
(628,1400,l),
(516,1400,l),
(49,0,l)
);
}
);
width = 1779;
}
);
unicode = 77;
},
{
glyphname = N;
kernLeft = H;
kernRight = H;
lastChange = "2021-05-18 07:04:12 +0000";
layers = (
{
layerId = "7763577D-A4D2-4749-AE53-49BDF6EC3913";
shapes = (
{
closed = 1;
nodes = (
(350,0,l),
(473,858,l),
(865,0,l),
(1186,0,l),
(1382,1400,l),
(1082,1400,l),
(959,542,l),
(567,1400,l),
(246,1400,l),
(50,0,l)
);
}
);
width = 1376;
},
{
layerId = "DDA43255-513F-4353-BCA4-425ED8D2F935";
shapes = (
{
closed = 1;
nodes = (
(140,0,l),
(322,1292,l),
(994,0,l),
(1058,0,l),
(1254,1400,l),
(1194,1400,l),
(1012,108,l),
(342,1400,l),
(276,1400,l),
(80,0,l)
);
}
);
width = 1278;
},
{
layerId = "9333E5AC-F59E-47B3-BDF0-7EA648395594";
shapes = (
{
closed = 1;
nodes = (
(219,0,l),
(379,1129,l),
(946,0,l),
(1106,0,l),
(1302,1400,l),
(1152,1400,l),
(992,271,l),
(426,1400,l),
(265,1400,l),
(69,0,l)
);
}
);
width = 1314.75;
}
);
unicode = 78;
},
{
glyphname = O;
kernLeft = O;
kernRight = O;
lastChange = "2021-05-18 07:04:12 +0000";
layers = (
{
layerId = "7763577D-A4D2-4749-AE53-49BDF6EC3913";
shapes = (
{
closed = 1;
nodes = (
(1084,-26,o),
(1431,292,o),
(1486,683,cs),
(1543,1092,o),
(1272,1426,o),
(883,1426,cs),
(512,1426,o),
(166,1108,o),
(110,717,cs),
(53,308,o),
(324,-26,o),
(713,-26,cs)
);
},
{
closed = 1;
nodes = (
(516,274,o),
(374,458,o),
(406,683,cs),
(440,926,o),
(652,1126,o),
(875,1126,cs),
(1080,1126,o),
(1222,942,o),
(1190,717,cs),
(1156,474,o),
(944,274,o),
(721,274,cs)
);
}
);
width = 1540;
},
{
layerId = "DDA43255-513F-4353-BCA4-425ED8D2F935";
shapes = (
{
closed = 1;
nodes = (
(1078,-26,o),
(1432,298,o),
(1488,697,cs),
(1544,1098,o),
(1278,1426,o),
(897,1426,cs),
(518,1426,o),
(165,1102,o),
(109,703,cs),
(52,302,o),
(318,-26,o),
(699,-26,cs)
);
},
{
closed = 1;
nodes = (
(355,34,o),
(116,332,o),
(168,697,cs),
(218,1058,o),
(541,1366,o),
(895,1366,cs),
(1241,1366,o),
(1480,1066,o),
(1429,703,cs),
(1378,342,o),
(1055,34,o),
(701,34,cs)
);
}
);
width = 1540;
},
{
layerId = "9333E5AC-F59E-47B3-BDF0-7EA648395594";
shapes = (
{
closed = 1;
nodes = (
(1080,-26,o),
(1432,296,o),
(1487,692,cs),
(1544,1096,o),
(1276,1426,o),
(892,1426,cs),
(516,1426,o),
(165,1104,o),
(109,708,cs),
(52,304,o),
(320,-26,o),
(704,-26,cs)
);
},
{
closed = 1;
nodes = (
(415,124,o),
(213,379,o),
(257,692,cs),
(301,1009,o),
(583,1276,o),
(888,1276,cs),
(1181,1276,o),
(1383,1020,o),
(1339,708,cs),
(1295,392,o),
(1013,124,o),
(709,124,cs)
);
}
);
width = 1540;
}
);
unicode = 79;
},
{
glyphname = Oslash;
kernLeft = O;
kernRight = O;
lastChange = "2021-05-18 07:04:12 +0000";
layers = (
{
layerId = "7763577D-A4D2-4749-AE53-49BDF6EC3913";
shapes = (
{
closed = 1;
nodes = (
(491,17,l),
(554,-9,o),
(626,-26,o),
(713,-26,cs),
(1084,-26,o),
(1431,292,o),
(1486,683,cs),
(1516,898,o),
(1454,1086,o),
(1341,1220,c),
(1456,1372,l),
(1211,1522,l),
(1107,1385,l),
(1044,1409,o),
(972,1426,o),
(883,1426,cs),
(512,1426,o),
(166,1108,o),
(110,717,cs),
(80,502,o),
(144,314,o),
(255,182,c),
(142,28,l),
(388,-122,l)
);
},
{
closed = 1;
nodes = (
(406,515,o),
(394,600,o),
(406,683,cs),
(440,926,o),
(652,1126,o),
(875,1126,cs),
(890,1126,o),
(914,1125,o),
(936,1121,c),
(439,445,l)
);
},
{
closed = 1;
nodes = (
(708,274,o),
(684,274,o),
(663,280,c),
(1160,955,l),
(1193,885,o),
(1202,800,o),
(1190,717,cs),
(1156,474,o),
(944,274,o),
(721,274,cs)
);
}
);
width = 1540;
},
{
layerId = "DDA43255-513F-4353-BCA4-425ED8D2F935";
shapes = (
{
closed = 1;
nodes = (
(379,65,l),
(470,9,o),
(578,-26,o),
(699,-26,cs),
(1078,-26,o),
(1432,298,o),
(1488,697,cs),
(1523,950,o),
(1431,1173,o),
(1265,1303,c),
(1359,1432,l),
(1310,1462,l),
(1219,1335,l),
(1128,1393,o),
(1020,1426,o),
(897,1426,cs),
(518,1426,o),
(165,1102,o),
(109,703,cs),
(73,452,o),
(167,229,o),
(333,97,c),
(239,-32,l),
(288,-62,l)
);
},
{
closed = 1;
nodes = (
(216,269,o),
(136,470,o),
(168,697,cs),
(218,1058,o),
(541,1366,o),
(895,1366,cs),
(1003,1366,o),
(1103,1337,o),
(1186,1285,c),
(367,149,l)
);
},
{
closed = 1;
nodes = (
(595,34,o),
(495,63,o),
(412,115,c),
(1232,1253,l),
(1380,1131,o),
(1460,930,o),
(1429,703,cs),
(1378,342,o),
(1055,34,o),
(701,34,cs)
);
}
);
width = 1540;
},
{
layerId = "9333E5AC-F59E-47B3-BDF0-7EA648395594";
shapes = (
{
closed = 1;
nodes = (
(421,47,l),
(502,2,o),
(596,-26,o),
(704,-26,cs),
(1080,-26,o),
(1432,296,o),
(1487,692,cs),
(1520,931,o),
(1440,1140,o),
(1294,1272,c),
(1395,1410,l),
(1273,1485,l),
(1177,1354,l),
(1097,1399,o),
(1002,1426,o),
(892,1426,cs),
(516,1426,o),
(165,1104,o),
(109,708,cs),
(76,471,o),
(158,261,o),
(304,129,c),
(203,-10,l),
(326,-85,l)
);
},
{
closed = 1;
nodes = (
(287,361,o),
(233,519,o),
(257,692,cs),
(301,1009,o),
(583,1276,o),
(888,1276,cs),
(961,1276,o),
(1032,1258,o),
(1092,1224,c),
(394,260,l)
);
},
{
closed = 1;
nodes = (
(637,124,o),
(566,142,o),
(506,177,c),
(1205,1141,l),
(1310,1039,o),
(1363,881,o),
(1339,708,cs),
(1295,392,o),
(1013,124,o),
(709,124,cs)
);
}
);
width = 1540;
}
);
metricLeft = O;
metricRight = O;
unicode = 216;
},
{
glyphname = OE;
kernLeft = O;
kernRight = E;
lastChange = "2021-05-18 07:04:12 +0000";
layers = (
{
layerId = "7763577D-A4D2-4749-AE53-49BDF6EC3913";
shapes = (
{
closed = 1;
nodes = (
(850,-26,o),
(991,17,o),
(1114,99,c),
(1093,0,l),
(1926,0,l),
(1968,300,l),
(1436,300,l),
(1471,550,l),
(1907,550,l),
(1949,850,l),
(1513,850,l),
(1548,1100,l),
(2080,1100,l),
(2122,1400,l),
(1290,1400,l),
(1268,1291,l),
(1168,1373,o),
(1038,1426,o),
(883,1426,cs),
(512,1426,o),
(166,1108,o),
(110,717,cs),
(53,308,o),
(324,-26,o),
(713,-26,cs)
);
},
{
closed = 1;
nodes = (
(516,274,o),
(374,458,o),
(406,683,cs),
(440,926,o),
(652,1126,o),
(875,1126,cs),
(1080,1126,o),
(1222,942,o),
(1190,717,cs),
(1156,474,o),
(944,274,o),
(721,274,cs)
);
}
);
width = 2096;
},
{
layerId = "DDA43255-513F-4353-BCA4-425ED8D2F935";
shapes = (
{
closed = 1;
nodes = (
(978,-26,o),
(1244,150,o),
(1387,402,c),
(1330,0,l),
(2036,0,l),
(2044,60,l),
(1398,60,l),
(1484,670,l),
(2034,670,l),
(2042,730,l),
(1492,730,l),
(1578,1340,l),
(2224,1340,l),
(2232,1400,l),
(1526,1400,l),
(1469,994,l),
(1396,1246,o),
(1178,1426,o),
(897,1426,cs),
(518,1426,o),
(165,1102,o),
(109,703,cs),
(52,302,o),
(318,-26,o),
(699,-26,cs)
);
},
{
closed = 1;
nodes = (
(355,34,o),
(116,332,o),
(168,697,cs),
(218,1058,o),
(541,1366,o),
(895,1366,cs),
(1241,1366,o),
(1480,1066,o),
(1429,703,cs),
(1378,342,o),
(1055,34,o),
(701,34,cs)
);
}
);
width = 2206;
},
{
layerId = "9333E5AC-F59E-47B3-BDF0-7EA648395594";
shapes = (
{
closed = 1;
nodes = (
(930,-26,o),
(1149,100,o),
(1285,288,c),
(1241,0,l),
(1995,0,l),
(2016,150,l),
(1412,150,l),
(1479,625,l),
(1986,625,l),
(2007,775,l),
(1500,775,l),
(1567,1250,l),
(2170,1250,l),
(2191,1400,l),
(1438,1400,l),
(1394,1105,l),
(1311,1294,o),
(1126,1426,o),
(892,1426,cs),
(516,1426,o),
(165,1104,o),
(109,708,cs),
(52,304,o),
(320,-26,o),
(704,-26,cs)
);
},
{
closed = 1;
nodes = (
(415,124,o),
(213,379,o),
(257,692,cs),
(301,1009,o),
(583,1276,o),
(888,1276,cs),
(1181,1276,o),
(1383,1020,o),
(1339,708,cs),
(1295,392,o),
(1013,124,o),
(709,124,cs)
);
}
);
width = 2164.75;
}
);
metricLeft = O;
metricRight = E;
unicode = 338;
},
{
glyphname = P;
kernLeft = H;
kernRight = P;
lastChange = "2021-05-18 07:04:12 +0000";
layers = (
{
layerId = "7763577D-A4D2-4749-AE53-49BDF6EC3913";
shapes = (
{
closed = 1;
nodes = (
(350,0,l),
(426,544,l),
(663,544,ls),
(885,544,o),
(1092,728,o),
(1124,955,cs),
(1158,1196,o),
(996,1400,o),
(766,1400,cs),
(246,1400,l),
(50,0,l)
);
},
{
closed = 1;
nodes = (
(511,1144,l),
(713,1144,ls),
(793,1144,o),
(842,1084,o),
(832,1011,cs),
(819,920,o),
(734,844,o),
(654,844,cs),
(468,844,l)
);
}
);
width = 1140;
},
{
layerId = "DDA43255-513F-4353-BCA4-425ED8D2F935";
shapes = (
{
closed = 1;
nodes = (
(110,0,l),
(194,600,l),
(544,600,ls),
(758,600,o),
(958,768,o),
(990,997,cs),
(1022,1226,o),
(873,1400,o),
(653,1400,cs),
(246,1400,l),
(50,0,l)
);
},
{
closed = 1;
nodes = (
(298,1340,l),
(648,1340,ls),
(830,1340,o),
(958,1198,o),
(931,1003,cs),
(903,806,o),
(731,660,o),
(549,660,cs),
(202,660,l)
);
}
);
width = 1000;
},
{
layerId = "9333E5AC-F59E-47B3-BDF0-7EA648395594";
shapes = (
{
closed = 1;
nodes = (
(200,0,l),
(281,579,l),
(589,579,ls),
(806,579,o),
(1008,753,o),
(1040,981,cs),
(1073,1215,o),
(919,1400,o),
(695,1400,cs),
(246,1400,l),
(50,0,l)
);
},
{
closed = 1;
nodes = (
(378,1267,l),
(672,1267,ls),
(816,1267,o),
(915,1155,o),
(894,1006,cs),
(872,849,o),
(732,729,o),
(588,729,cs),
(302,729,l)
);
}
);
width = 1052.5;
}
);
metricLeft = H;
unicode = 80;
},
{
glyphname = Thorn;
kernLeft = H;
kernRight = o;
lastChange = "2021-05-18 07:04:12 +0000";
layers = (
{
layerId = "7763577D-A4D2-4749-AE53-49BDF6EC3913";
shapes = (
{
closed = 1;
nodes = (
(350,0,l),
(388,272,l),
(624,272,ls),
(846,272,o),
(1054,456,o),
(1086,683,cs),
(1120,924,o),
(958,1128,o),
(728,1128,cs),
(508,1128,l),
(546,1400,l),
(246,1400,l),
(50,0,l)
);
},
{
closed = 1;
nodes = (
(472,872,l),
(675,872,ls),
(755,872,o),
(804,812,o),
(794,739,cs),
(781,648,o),
(696,572,o),
(616,572,cs),
(430,572,l)
);
}
);
width = 1140;
},
{
layerId = "DDA43255-513F-4353-BCA4-425ED8D2F935";
shapes = (
{
closed = 1;
nodes = (
(110,0,l),
(152,300,l),
(502,300,ls),
(716,300,o),
(916,468,o),
(948,697,cs),
(980,926,o),
(831,1100,o),
(611,1100,cs),
(264,1100,l),
(306,1400,l),
(246,1400,l),
(50,0,l)
);
},
{
closed = 1;
nodes = (
(256,1040,l),
(606,1040,ls),
(788,1040,o),
(916,898,o),
(889,703,cs),
(861,506,o),
(689,360,o),
(507,360,cs),
(160,360,l)
);
}
);
width = 1000;
},
{
layerId = "9333E5AC-F59E-47B3-BDF0-7EA648395594";
shapes = (
{
closed = 1;
nodes = (
(200,0,l),
(241,290,l),
(548,290,ls),
(765,290,o),
(968,464,o),
(1000,692,cs),
(1033,925,o),
(879,1111,o),
(655,1111,cs),
(356,1111,l),
(396,1400,l),
(246,1400,l),
(50,0,l)
);
},
{
closed = 1;
nodes = (
(337,977,l),
(632,977,ls),
(776,977,o),
(874,866,o),
(853,717,cs),
(831,559,o),
(692,440,o),
(548,440,cs),
(261,440,l)
);
}
);
width = 1052.5;
}
);
metricRight = p;
unicode = 222;
},
{
glyphname = Q;
kernLeft = O;
kernRight = O;
lastChange = "2021-05-18 07:04:12 +0000";
layers = (
{
layerId = "7763577D-A4D2-4749-AE53-49BDF6EC3913";
shapes = (
{
closed = 1;
nodes = (
(1456,160,l),
(1324,307,l),
(1411,421,o),
(1468,554,o),
(1487,691,cs),
(1544,1100,o),
(1273,1434,o),
(885,1434,cs),
(513,1434,o),
(167,1116,o),
(112,725,cs),
(54,314,o),
(326,-18,o),
(714,-18,cs),
(844,-18,o),
(975,19,o),
(1091,91,c),
(1220,-52,l)
);
},
{
closed = 1;
nodes = (
(517,282,o),
(375,464,o),
(407,691,cs),
(441,934,o),
(653,1134,o),
(876,1134,cs),
(1081,1134,o),
(1223,950,o),
(1192,725,cs),
(1182,656,o),
(1158,598,o),
(1129,546,c),
(1062,612,l),
(826,400,l),
(894,319,l),
(840,297,o),
(785,282,o),
(723,282,cs)
);
}
);
width = 1584;
},
{
layerId = "DDA43255-513F-4353-BCA4-425ED8D2F935";
shapes = (
{
closed = 1;
nodes = (
(1388,32,l),
(1235,207,l),
(1368,337,o),
(1459,508,o),
(1486,697,cs),
(1542,1098,o),
(1278,1426,o),
(897,1426,cs),
(516,1426,o),
(165,1102,o),
(109,703,cs),
(52,302,o),
(316,-26,o),
(699,-26,cs),
(876,-26,o),
(1049,45,o),
(1190,165,c),
(1342,-10,l)
);
},
{
closed = 1;
nodes = (
(357,34,o),
(116,332,o),
(168,697,cs),
(218,1056,o),
(541,1366,o),
(895,1366,cs),
(1237,1366,o),
(1478,1068,o),
(1427,703,cs),
(1403,538,o),
(1322,377,o),
(1198,253,c),
(968,520,l),
(921,476,l),
(1151,209,l),
(1024,99,o),
(857,34,o),
(701,34,cs)
);
}
);
width = 1538;
},
{
layerId = "9333E5AC-F59E-47B3-BDF0-7EA648395594";
shapes = (
{
closed = 1;
nodes = (
(1414,80,l),
(1268,245,l),
(1384,369,o),
(1462,525,o),
(1486,695,cs),
(1543,1099,o),
(1276,1429,o),
(893,1429,cs),
(515,1429,o),
(166,1107,o),
(110,711,cs),
(53,307,o),
(320,-23,o),
(705,-23,cs),
(864,-23,o),
(1021,35,o),
(1153,137,c),
(1296,-26,l)
);
},
{
closed = 1;
nodes = (
(417,127,o),
(213,382,o),
(258,695,cs),
(302,1010,o),
(583,1279,o),
(888,1279,cs),
(1179,1279,o),
(1382,1024,o),
(1339,711,cs),
(1320,582,o),
(1261,460,o),
(1172,363,c),
(1003,555,l),
(885,448,l),
(1055,250,l),
(955,173,o),
(830,127,o),
(709,127,cs)
);
}
);
width = 1555.25;
}
);
unicode = 81;
},
{
glyphname = R;
kernLeft = H;
kernRight = R;
lastChange = "2021-05-18 07:04:12 +0000";
layers = (
{
layerId = "7763577D-A4D2-4749-AE53-49BDF6EC3913";
shapes = (
{
closed = 1;
nodes = (
(350,0,l),
(426,544,l),
(533,544,l),
(773,0,l),
(1113,0,l),
(868,568,l),
(1031,640,o),
(1140,784,o),
(1164,955,cs),
(1198,1198,o),
(1038,1400,o),
(808,1400,cs),
(246,1400,l),
(50,0,l)
);
},
{
closed = 1;
nodes = (
(511,1144,l),
(753,1144,ls),
(833,1144,o),
(882,1084,o),
(872,1011,cs),
(859,920,o),
(774,844,o),
(694,844,cs),
(468,844,l)
);
}
);
width = 1266;
},
{
layerId = "DDA43255-513F-4353-BCA4-425ED8D2F935";
shapes = (
{
closed = 1;
nodes = (
(140,0,l),
(224,600,l),
(557,600,l),
(820,0,l),
(889,0,l),
(627,602,l),
(828,618,o),
(1009,780,o),
(1040,997,cs),
(1072,1226,o),
(923,1400,o),
(703,1400,cs),
(276,1400,l),
(80,0,l)
);
},
{
closed = 1;
nodes = (
(328,1340,l),
(698,1340,ls),
(880,1340,o),
(1008,1198,o),
(981,1003,cs),
(953,806,o),
(781,660,o),
(599,660,cs),
(232,660,l)
);
}
);
width = 1070;
},
{
layerId = "9333E5AC-F59E-47B3-BDF0-7EA648395594";
shapes = (
{
closed = 1;
nodes = (
(219,0,l),
(300,579,l),
(548,579,l),
(802,0,l),
(973,0,l),
(717,589,l),
(904,626,o),
(1058,782,o),
(1087,981,cs),
(1119,1216,o),
(966,1400,o),
(742,1400,cs),
(265,1400,l),
(69,0,l)
);
},
{
closed = 1;
nodes = (
(397,1267,l),
(719,1267,ls),
(862,1267,o),
(961,1155,o),
(940,1006,cs),
(918,849,o),
(778,729,o),
(635,729,cs),
(321,729,l)
);
}
);
width = 1143.5;
}
);
unicode = 82;
},
{
glyphname = S;
kernLeft = S;
kernRight = S;
lastChange = "2021-05-18 07:04:12 +0000";
layers = (
{
layerId = "7763577D-A4D2-4749-AE53-49BDF6EC3913";
shapes = (
{
closed = 1;
nodes = (
(852,-26,o),
(1114,142,o),
(1149,395,cs),
(1187,662,o),
(955,807,o),
(664,847,cs),
(549,867,o),
(452,872,o),
(466,971,cs),
(478,1058,o),
(612,1126,o),
(736,1124,cs),
(858,1124,o),
(945,1074,o),
(957,1016,c),
(1247,1102,l),
(1204,1300,o),
(990,1426,o),
(745,1426,cs),
(472,1426,o),
(207,1258,o),
(171,1005,cs),
(131,722,o),
(350,595,o),
(656,553,cs),
(757,535,o),
(865,504,o),
(854,429,cs),
(841,338,o),
(712,274,o),
(583,274,cs),
(462,274,o),
(375,326,o),
(363,384,c),
(73,296,l),
(119,100,o),
(330,-26,o),
(575,-26,cs)
);
}
);
width = 1264;
},
{
layerId = "DDA43255-513F-4353-BCA4-425ED8D2F935";
shapes = (
{
closed = 1;
nodes = (
(786,-26,o),
(1034,118,o),
(1066,347,cs),
(1098,574,o),
(880,682,o),
(627,729,cs),
(389,776,o),
(216,824,o),
(246,1039,cs),
(273,1230,o),
(492,1358,o),
(722,1358,cs),
(902,1358,o),
(1094,1278,o),
(1128,1120,c),
(1187,1136,l),
(1142,1318,o),
(933,1418,o),
(724,1418,cs),
(467,1418,o),
(219,1274,o),
(187,1045,cs),
(151,792,o),
(352,718,o),
(625,667,cs),
(833,626,o),
(1035,548,o),
(1007,353,cs),
(980,160,o),
(757,34,o),
(529,34,cs),
(349,34,o),
(157,114,o),
(123,272,c),
(66,254,l),
(101,80,o),
(308,-26,o),
(527,-26,cs)
);
}
);
width = 1198;
},
{
layerId = "9333E5AC-F59E-47B3-BDF0-7EA648395594";
shapes = (
{
closed = 1;
nodes = (
(811,-26,o),
(1064,127,o),
(1097,365,cs),
(1131,607,o),
(908,729,o),
(641,773,cs),
(449,810,o),
(305,842,o),
(329,1014,cs),
(350,1166,o),
(537,1271,o),
(727,1270,cs),
(886,1270,o),
(1038,1202,o),
(1064,1081,c),
(1210,1123,l),
(1165,1311,o),
(954,1421,o),
(732,1421,cs),
(469,1421,o),
(215,1268,o),
(181,1030,cs),
(144,766,o),
(351,672,o),
(637,624,cs),
(805,592,o),
(971,532,o),
(950,382,cs),
(928,227,o),
(740,124,o),
(549,124,cs),
(391,124,o),
(239,194,o),
(213,314,c),
(69,270,l),
(108,88,o),
(316,-26,o),
(545,-26,cs)
);
}
);
width = 1222.75;
}
);
unicode = 83;
},
{
glyphname = Germandbls;
kernLeft = Germandbls;
kernRight = Germandbls;
lastChange = "2021-05-18 07:04:12 +0000";
layers = (
{
layerId = "7763577D-A4D2-4749-AE53-49BDF6EC3913";
shapes = (
{
closed = 1;
nodes = (
(350,0,l),
(482,942,ls),
(497,1050,o),
(607,1144,o),
(701,1144,cs),
(779,1144,o),
(850,1156,o),
(841,1091,cs),
(835,1048,o),
(641,866,o),
(620,712,cs),
(603,594,l),
(694,594,ls),
(798,594,o),
(929,564,o),
(912,441,cs),
(892,300,o),
(733,254,o),
(629,254,cs),
(557,254,l),
(582,0,l),
(642,0,ls),
(874,0,o),
(1136,142,o),
(1173,405,cs),
(1197,578,o),
(1040,772,o),
(862,729,c),
(1036,900,o),
(1123,964,o),
(1135,1051,cs),
(1162,1240,o),
(976,1400,o),
(760,1400,cs),
(476,1400,o),
(214,1170,o),
(173,878,cs),
(50,0,l)
);
}
);
width = 1246;
},
{
layerId = "DDA43255-513F-4353-BCA4-425ED8D2F935";
shapes = (
{
closed = 1;
nodes = (
(110,0,l),
(249,992,ls),
(276,1182,o),
(451,1338,o),
(643,1338,cs),
(791,1338,o),
(914,1284,o),
(898,1155,cs),
(883,1034,o),
(546,756,o),
(546,696,cs),
(545,662,l),
(612,662,ls),
(778,662,o),
(960,570,o),
(931,367,cs),
(902,158,o),
(692,60,o),
(526,60,cs),
(435,60,l),
(446,0,l),
(521,0,ls),
(719,0,o),
(957,120,o),
(990,359,cs),
(1022,586,o),
(834,740,o),
(632,719,c),
(870,991,o),
(956,1068,o),
(967,1149,cs),
(991,1318,o),
(841,1398,o),
(649,1398,cs),
(427,1398,o),
(221,1218,o),
(189,994,cs),
(50,0,l)
);
}
);
width = 1070;
},
{
layerId = "9333E5AC-F59E-47B3-BDF0-7EA648395594";
shapes = (
{
closed = 1;
nodes = (
(200,0,l),
(336,973,ls),
(359,1133,o),
(510,1265,o),
(665,1265,cs),
(787,1265,o),
(890,1236,o),
(877,1131,cs),
(865,1039,o),
(582,797,o),
(574,702,cs),
(567,637,l),
(643,637,ls),
(786,637,o),
(948,568,o),
(924,395,cs),
(898,211,o),
(707,133,o),
(565,133,cs),
(481,133,l),
(497,0,l),
(566,0,ls),
(777,0,o),
(1024,128,o),
(1059,376,cs),
(1088,583,o),
(911,752,o),
(718,723,c),
(932,957,o),
(1019,1029,o),
(1030,1112,cs),
(1055,1289,o),
(892,1399,o),
(691,1399,cs),
(445,1399,o),
(218,1200,o),
(183,951,cs),
(50,0,l)
);
}
);
width = 1136;
}
);
unicode = 7838;
},
{
glyphname = T;
kernLeft = T;
kernRight = T;
lastChange = "2021-05-18 07:04:12 +0000";
layers = (
{
layerId = "7763577D-A4D2-4749-AE53-49BDF6EC3913";
shapes = (
{
closed = 1;
nodes = (
(206,1400,l),
(164,1100,l),
(564,1100,l),
(410,0,l),
(710,0,l),
(864,1100,l),
(1264,1100,l),
(1306,1400,l)
);
}
);
width = 1260;
},
{
layerId = "DDA43255-513F-4353-BCA4-425ED8D2F935";
shapes = (
{
closed = 1;
nodes = (
(206,1400,l),
(198,1340,l),
(716,1340,l),
(528,0,l),
(588,0,l),
(776,1340,l),
(1296,1340,l),
(1304,1400,l)
);
}
);
width = 1258;
},
{
layerId = "9333E5AC-F59E-47B3-BDF0-7EA648395594";
shapes = (
{
closed = 1;
nodes = (
(206,1400,l),
(185,1250,l),
(659,1250,l),
(484,0,l),
(634,0,l),
(809,1250,l),
(1284,1250,l),
(1305,1400,l)
);
}
);
width = 1258.75;
}
);
unicode = 84;
},
{
glyphname = U;
kernLeft = U;
kernRight = U;
lastChange = "2021-05-18 07:04:12 +0000";
layers = (
{
layerId = "7763577D-A4D2-4749-AE53-49BDF6EC3913";
shapes = (
{
closed = 1;
nodes = (
(960,-26,o),
(1221,238,o),
(1269,576,cs),
(1384,1400,l),
(1084,1400,l),
(971,592,ls),
(947,420,o),
(822,274,o),
(641,274,cs),
(480,274,o),
(407,406,o),
(431,576,cs),
(546,1400,l),
(246,1400,l),
(133,592,ls),
(85,254,o),
(288,-26,o),
(633,-26,cs)
);
}
);
width = 1378;
},
{
layerId = "DDA43255-513F-4353-BCA4-425ED8D2F935";
shapes = (
{
closed = 1;
nodes = (
(914,-26,o),
(1144,244,o),
(1192,582,cs),
(1306,1400,l),
(1246,1400,l),
(1132,586,ls),
(1090,290,o),
(891,34,o),
(581,34,cs),
(279,34,o),
(149,282,o),
(192,582,cs),
(306,1400,l),
(246,1400,l),
(132,586,ls),
(85,248,o),
(242,-26,o),
(579,-26,cs)
);
}
);
width = 1300;
},
{
layerId = "9333E5AC-F59E-47B3-BDF0-7EA648395594";
shapes = (
{
closed = 1;
nodes = (
(931,-26,o),
(1173,242,o),
(1221,580,cs),
(1335,1400,l),
(1185,1400,l),
(1072,588,ls),
(1036,339,o),
(865,124,o),
(604,124,cs),
(354,124,o),
(246,329,o),
(282,580,cs),
(396,1400,l),
(246,1400,l),
(132,588,ls),
(85,250,o),
(259,-26,o),
(599,-26,cs)
);
}
);
width = 1329.25;
}
);
unicode = 85;
},
{
glyphname = V;
kernLeft = W;
kernRight = W;
lastChange = "2021-05-18 07:04:12 +0000";
layers = (
{
layerId = "7763577D-A4D2-4749-AE53-49BDF6EC3913";
shapes = (
{
closed = 1;
nodes = (
(848,0,l),
(1553,1400,l),
(1230,1400,l),
(695,344,l),
(462,1400,l),
(149,1400,l),
(460,0,l)
);
}
);
width = 1444;
},
{
layerId = "DDA43255-513F-4353-BCA4-425ED8D2F935";
shapes = (
{
closed = 1;
nodes = (
(518,0,l),
(1225,1400,l),
(1160,1400,l),
(500,92,l),
(210,1400,l),
(147,1400,l),
(458,0,l)
);
}
);
width = 1118;
},
{
layerId = "9333E5AC-F59E-47B3-BDF0-7EA648395594";
shapes = (
{
closed = 1;
nodes = (
(642,0,l),
(1348,1400,l),
(1186,1400,l),
(573,187,l),
(305,1400,l),
(148,1400,l),
(459,0,l)
);
}
);
width = 1240.25;
}
);
unicode = 86;
},
{
glyphname = W;
kernLeft = W;
kernRight = W;
lastChange = "2021-05-18 07:04:12 +0000";
layers = (
{
layerId = "7763577D-A4D2-4749-AE53-49BDF6EC3913";
shapes = (
{
closed = 1;
nodes = (
(728,0,l),
(1016,726,l),
(1098,0,l),
(1436,0,l),
(1988,1400,l),
(1675,1400,l),
(1337,552,l),
(1243,1400,l),
(967,1400,l),
(629,552,l),
(535,1400,l),
(228,1400,l),
(390,0,l)
);
}
);
width = 1960;
},
{
layerId = "DDA43255-513F-4353-BCA4-425ED8D2F935";
shapes = (
{
closed = 1;
nodes = (
(466,0,l),
(962,1250,l),
(1106,0,l),
(1186,0,l),
(1739,1400,l),
(1676,1400,l),
(1157,86,l),
(1006,1400,l),
(958,1400,l),
(439,86,l),
(288,1400,l),
(227,1400,l),
(388,0,l)
);
}
);
width = 1712;
},
{
layerId = "9333E5AC-F59E-47B3-BDF0-7EA648395594";
shapes = (
{
closed = 1;
nodes = (
(564,0,l),
(982,1054,l),
(1103,0,l),
(1280,0,l),
(1832,1400,l),
(1676,1400,l),
(1225,261,l),
(1095,1400,l),
(961,1400,l),
(510,261,l),
(381,1400,l),
(227,1400,l),
(389,0,l)
);
}
);
width = 1805;
}
);
unicode = 87;
},
{
glyphname = X;
kernLeft = X;
kernRight = X;
lastChange = "2021-05-18 07:04:12 +0000";
layers = (
{
layerId = "7763577D-A4D2-4749-AE53-49BDF6EC3913";
shapes = (
{
closed = 1;
nodes = (
(365,0,l),
(757,448,l),
(1017,0,l),
(1383,0,l),
(973,704,l),
(1582,1402,l),
(1206,1402,l),
(816,958,l),
(558,1402,l),
(194,1402,l),
(601,704,l),
(-13,0,l)
);
}
);
width = 1516;
},
{
layerId = "DDA43255-513F-4353-BCA4-425ED8D2F935";
shapes = (
{
closed = 1;
nodes = (
(66,0,l),
(633,652,l),
(1016,0,l),
(1089,0,l),
(677,704,l),
(1283,1402,l),
(1208,1402,l),
(644,754,l),
(264,1402,l),
(191,1402,l),
(603,704,l),
(-11,0,l)
);
}
);
width = 1220;
},
{
layerId = "9333E5AC-F59E-47B3-BDF0-7EA648395594";
shapes = (
{
closed = 1;
nodes = (
(178,0,l),
(680,576,l),
(1016,0,l),
(1199,0,l),
(788,704,l),
(1395,1402,l),
(1207,1402,l),
(709,831,l),
(374,1402,l),
(192,1402,l),
(602,704,l),
(-12,0,l)
);
}
);
width = 1331;
}
);
unicode = 88;
},
{
glyphname = Y;
kernLeft = Y;
kernRight = Y;
lastChange = "2021-05-18 07:04:12 +0000";
layers = (
{
layerId = "7763577D-A4D2-4749-AE53-49BDF6EC3913";
shapes = (
{
closed = 1;
nodes = (
(754,956,l),
(537,1400,l),
(190,1400,l),
(567,630,l),
(476,0,l),
(776,0,l),
(867,630,l),
(1462,1400,l),
(1101,1400,l)
);
}
);
width = 1392;
},
{
layerId = "DDA43255-513F-4353-BCA4-425ED8D2F935";
shapes = (
{
closed = 1;
nodes = (
(581,702,l),
(256,1400,l),
(187,1400,l),
(544,636,l),
(454,0,l),
(514,0,l),
(604,636,l),
(1175,1400,l),
(1104,1400,l)
);
}
);
width = 1108;
},
{
layerId = "9333E5AC-F59E-47B3-BDF0-7EA648395594";
shapes = (
{
closed = 1;
nodes = (
(646,797,l),
(361,1400,l),
(188,1400,l),
(553,634,l),
(462,0,l),
(612,0,l),
(703,634,l),
(1283,1400,l),
(1103,1400,l)
);
}
);
width = 1214.5;
}
);
unicode = 89;
},
{
glyphname = Z;
kernLeft = Z;
kernRight = Z;
lastChange = "2021-05-18 07:04:12 +0000";
layers = (
{
layerId = "7763577D-A4D2-4749-AE53-49BDF6EC3913";
shapes = (
{
closed = 1;
nodes = (
(1182,0,l),
(1224,300,l),
(501,300,l),
(1339,1100,l),
(1378,1400,l),
(246,1400,l),
(204,1100,l),
(927,1100,l),
(89,300,l),
(50,0,l)
);
}
);
width = 1372;
},
{
layerId = "DDA43255-513F-4353-BCA4-425ED8D2F935";
shapes = (
{
closed = 1;
nodes = (
(1182,0,l),
(1190,60,l),
(137,60,l),
(1371,1340,l),
(1378,1400,l),
(246,1400,l),
(238,1340,l),
(1291,1340,l),
(58,60,l),
(50,0,l)
);
}
);
width = 1372;
},
{
layerId = "9333E5AC-F59E-47B3-BDF0-7EA648395594";
shapes = (
{
closed = 1;
nodes = (
(1182,0,l),
(1203,150,l),
(274,150,l),
(1359,1250,l),
(1378,1400,l),
(246,1400,l),
(225,1250,l),
(1155,1250,l),
(70,150,l),
(50,0,l)
);
}
);
width = 1372;
}
);
unicode = 90;
},
{
glyphname = a;
kernLeft = o;
kernRight = n;
lastChange = "2021-05-18 07:04:12 +0000";
layers = (
{
layerId = "7763577D-A4D2-4749-AE53-49BDF6EC3913";
shapes = (
{
closed = 1;
nodes = (
(901,902,l),
(849,972,o),
(770,1028,o),
(653,1028,cs),
(372,1028,o),
(112,800,o),
(72,517,cs),
(30,218,o),
(240,-26,o),
(539,-26,cs),
(638,-26,o),
(726,18,o),
(798,88,c),
(779,0,l),
(1080,0,l),
(1220,1000,l),
(920,1000,l)
);
},
{
closed = 1;
nodes = (
(436,262,o),
(359,362,o),
(376,483,cs),
(395,624,o),
(520,738,o),
(650,738,cs),
(766,738,o),
(844,640,o),
(826,517,cs),
(807,378,o),
(682,262,o),
(550,262,cs)
);
}
);
width = 1270;
},
{
layerId = "DDA43255-513F-4353-BCA4-425ED8D2F935";
shapes = (
{
closed = 1;
nodes = (
(1041,766,l),
(991,922,o),
(863,1028,o),
(667,1028,c),
(379,1028,o),
(111,794,o),
(70,503,c),
(29,212,o),
(234,-26,o),
(525,-26,c),
(718,-26,o),
(873,76,o),
(967,232,c),
(934,0,l),
(994,0,l),
(1134,1000,l),
(1074,1000,l)
);
},
{
closed = 1;
nodes = (
(279,34,o),
(93,236,o),
(130,497,c),
(166,756,o),
(405,968,o),
(665,968,c),
(917,968,o),
(1037,764,o),
(1000,503,c),
(964,246,o),
(787,34,o),
(527,34,c)
);
}
);
width = 1184;
},
{
associatedMasterId = "DDA43255-513F-4353-BCA4-425ED8D2F935";
layerId = "296DA952-3136-45B1-A499-AC05F418BDA3";
name = "May 12, 21, 16:35";
shapes = (
{
closed = 1;
nodes = (
(1041,766,l),
(991,922,o),
(863,1028,o),
(667,1028,c),
(379,1028,o),
(111,794,o),
(70,503,c),
(29,212,o),
(234,-26,o),
(525,-26,c),
(718,-26,o),
(873,76,o),
(967,232,c),
(934,0,l),
(994,0,l),
(1134,1000,l),
(1074,1000,l)
);
},
{
closed = 1;
nodes = (
(279,34,o),
(93,236,o),
(130,497,c),
(166,756,o),
(405,968,o),
(665,968,c),
(917,968,o),
(1037,764,o),
(1000,503,c),
(964,246,o),
(787,34,o),
(527,34,c)
);
}
);
width = 1184;
},
{
associatedMasterId = "DDA43255-513F-4353-BCA4-425ED8D2F935";
layerId = "DCF566E5-36A3-4377-9A86-A140B5647678";
name = "May 12, 21, 16:35";
shapes = (
{
closed = 1;
nodes = (
(1041,766,l),
(991,922,o),
(863,1028,o),
(667,1028,c),
(379,1028,o),
(111,794,o),
(70,503,c),
(29,212,o),
(234,-26,o),
(525,-26,c),
(718,-26,o),
(873,76,o),
(967,232,c),
(934,0,l),
(994,0,l),
(1134,1000,l),
(1074,1000,l)
);
},
{
closed = 1;
nodes = (
(279,34,o),
(93,236,o),
(130,497,c),
(166,756,o),
(405,968,o),
(665,968,c),
(917,968,o),
(1037,764,o),
(1000,503,c),
(964,246,o),
(787,34,o),
(527,34,c)
);
}
);
width = 1184;
},
{
layerId = "9333E5AC-F59E-47B3-BDF0-7EA648395594";
shapes = (
{
closed = 1;
nodes = (
(989,817,l),
(938,941,o),
(828,1028,o),
(662,1028,c),
(376,1028,o),
(111,796,o),
(71,508,c),
(29,214,o),
(236,-26,o),
(530,-26,c),
(688,-26,o),
(818,54,o),
(904,178,c),
(876,0,l),
(1026,0,l),
(1166,1000,l),
(1016,1000,l)
);
},
{
closed = 1;
nodes = (
(338,120,o),
(193,283,o),
(222,492,c),
(252,707,o),
(448,882,o),
(659,882,c),
(860,882,o),
(965,718,o),
(935,508,c),
(905,296,o),
(748,120,o),
(536,120,c)
);
}
);
width = 1216.25;
}
);
unicode = 97;
},
{
glyphname = ae;
kernLeft = o;
kernRight = e;
lastChange = "2021-05-18 07:04:12 +0000";
layers = (
{
layerId = "7763577D-A4D2-4749-AE53-49BDF6EC3913";
shapes = (
{
closed = 1;
nodes = (
(564,-26,ls),
(698,-26,o),
(781,8,o),
(886,102,c),
(958,28,o),
(1066,-26,o),
(1201,-26,cs),
(1392,-26,o),
(1576,90,o),
(1681,268,c),
(1378,355,l),
(1336,309,o),
(1276,274,o),
(1209,274,cs),
(1124,276,o),
(1082,322,o),
(1064,394,c),
(1735,394,l),
(1840,714,o),
(1642,1028,o),
(1315,1028,cs),
(1200,1028,o),
(1084,988,o),
(978,904,c),
(908,984,o),
(780,1028,o),
(609,1028,cs),
(422,1028,o),
(282,1011,o),
(162,845,c),
(407,679,l),
(427,709,o),
(460,756,o),
(605,756,cs),
(708,756,o),
(778,716,o),
(782,630,c),
(367,622,ls),
(207,622,o),
(81,510,o),
(60,361,cs),
(27,126,o),
(154,-26,o),
(438,-26,cs)
);
},
{
closed = 1;
nodes = (
(381,154,o),
(329,206,o),
(341,293,cs),
(354,384,o),
(437,402,o),
(525,402,cs),
(738,402,l),
(731,352,ls),
(717,254,o),
(605,154,o),
(485,154,cs)
);
},
{
closed = 1;
nodes = (
(1129,700,o),
(1218,768,o),
(1312,768,cs),
(1390,768,o),
(1449,716,o),
(1465,630,c),
(1089,614,l)
);
}
);
width = 1818;
},
{
layerId = "DDA43255-513F-4353-BCA4-425ED8D2F935";
shapes = (
{
closed = 1;
nodes = (
(503,0,ls),
(671,0,o),
(827,120,o),
(875,284,c),
(935,117,o),
(1085,0,o),
(1281,0,cs),
(1479,0,o),
(1668,122,o),
(1773,300,c),
(1713,317,l),
(1611,157,o),
(1454,60,o),
(1283,60,cs),
(1054,60,o),
(892,244,o),
(907,494,c),
(1845,494,l),
(1886,828,o),
(1710,1054,o),
(1423,1054,cs),
(1218,1054,o),
(1023,924,o),
(920,734,c),
(916,912,o),
(854,1054,o),
(605,1054,cs),
(474,1054,o),
(306,1015,o),
(214,889,c),
(263,857,l),
(342,963,o),
(491,994,o),
(603,994,cs),
(897,994,o),
(872,798,o),
(854,558,c),
(432,556,ls),
(252,556,o),
(82,518,o),
(45,321,c),
(17,94,o),
(211,0,o),
(391,0,cs)
);
},
{
closed = 1;
nodes = (
(248,60,o),
(79,110,o),
(104,315,c),
(130,456,o),
(251,496,o),
(427,496,cs),
(847,496,l),
(832,386,l),
(824,332,o),
(794,60,o),
(453,60,c)
);
},
{
closed = 1;
nodes = (
(966,796,o),
(1181,994,o),
(1421,994,cs),
(1655,994,o),
(1819,792,o),
(1794,558,c),
(916,554,l)
);
}
);
width = 1907;
},
{
layerId = "9333E5AC-F59E-47B3-BDF0-7EA648395594";
shapes = (
{
closed = 1;
nodes = (
(526,-10,ls),
(681,-10,o),
(810,78,o),
(879,216,c),
(944,84,o),
(1078,-10,o),
(1251,-10,cs),
(1446,-10,o),
(1634,110,o),
(1739,288,c),
(1587,331,l),
(1508,214,o),
(1387,140,o),
(1255,140,cs),
(1080,141,o),
(963,273,o),
(966,457,c),
(1804,457,l),
(1869,785,o),
(1685,1044,o),
(1383,1044,cs),
(1211,1044,o),
(1046,948,o),
(942,798,c),
(913,939,o),
(826,1044,o),
(607,1044,cs),
(455,1044,o),
(297,1014,o),
(195,873,c),
(317,790,l),
(374,868,o),
(479,905,o),
(604,905,cs),
(826,905,o),
(837,767,o),
(827,585,c),
(408,581,ls),
(235,581,o),
(82,515,o),
(51,336,c),
(21,106,o),
(190,-10,o),
(409,-10,cs)
);
},
{
closed = 1;
nodes = (
(298,95,o),
(173,146,o),
(193,307,c),
(214,429,o),
(321,461,o),
(464,461,cs),
(806,461,l),
(794,373,l),
(784,303,o),
(723,95,o),
(465,95,c)
);
},
{
closed = 1;
nodes = (
(1027,760,o),
(1195,909,o),
(1380,909,cs),
(1556,909,o),
(1680,764,o),
(1671,585,c),
(981,577,l)
);
}
);
width = 1873.625;
}
);
unicode = 230;
},
{
glyphname = b;
kernLeft = h;
kernRight = o;
lastChange = "2021-05-18 07:04:12 +0000";
layers = (
{
layerId = "7763577D-A4D2-4749-AE53-49BDF6EC3913";
shapes = (
{
closed = 1;
nodes = (
(632,1028,o),
(545,984,o),
(473,914,c),
(561,1500,l),
(261,1500,l),
(50,0,l),
(350,0,l),
(369,100,l),
(422,30,o),
(500,-26,o),
(615,-26,c),
(898,-26,o),
(1158,202,o),
(1198,485,c),
(1240,784,o),
(1030,1028,o),
(729,1028,c)
);
},
{
closed = 1;
nodes = (
(504,264,o),
(427,362,o),
(444,485,c),
(463,624,o),
(588,740,o),
(718,740,c),
(834,740,o),
(912,640,o),
(895,519,c),
(875,378,o),
(750,264,o),
(618,264,c)
);
}
);
width = 1260;
},
{
layerId = "DDA43255-513F-4353-BCA4-425ED8D2F935";
shapes = (
{
closed = 1;
nodes = (
(467,1028,o),
(311,926,o),
(217,770,c),
(321,1500,l),
(261,1500,l),
(50,0,l),
(110,0,l),
(144,236,l),
(194,80,o),
(322,-26,o),
(517,-26,c),
(806,-26,o),
(1073,208,o),
(1114,497,c),
(1155,790,o),
(951,1028,o),
(659,1028,c)
);
},
{
closed = 1;
nodes = (
(267,34,o),
(147,238,o),
(184,497,c),
(220,754,o),
(397,968,o),
(657,968,c),
(905,968,o),
(1091,766,o),
(1054,503,c),
(1018,246,o),
(779,34,o),
(519,34,c)
);
}
);
width = 1174;
},
{
associatedMasterId = "DDA43255-513F-4353-BCA4-425ED8D2F935";
layerId = "FD0A2E74-956B-4E39-9E99-BFA989DA2D4C";
name = "May 12, 21, 16:35";
shapes = (
{
closed = 1;
nodes = (
(467,1028,o),
(311,926,o),
(217,770,c),
(321,1500,l),
(261,1500,l),
(50,0,l),
(110,0,l),
(144,236,l),
(194,80,o),
(322,-26,o),
(517,-26,c),
(806,-26,o),
(1073,208,o),
(1114,497,c),
(1155,790,o),
(951,1028,o),
(659,1028,c)
);
},
{
closed = 1;
nodes = (
(267,34,o),
(147,238,o),
(184,497,c),
(220,754,o),
(397,968,o),
(657,968,c),
(905,968,o),
(1091,766,o),
(1054,503,c),
(1018,246,o),
(779,34,o),
(519,34,c)
);
}
);
width = 1174;
},
{
associatedMasterId = "DDA43255-513F-4353-BCA4-425ED8D2F935";
layerId = "141CAD4D-21AD-48BD-B0E0-3BFC57593169";
name = "May 12, 21, 16:35";
shapes = (
{
closed = 1;
nodes = (
(467,1028,o),
(311,926,o),
(217,770,c),
(321,1500,l),
(261,1500,l),
(50,0,l),
(110,0,l),
(144,236,l),
(194,80,o),
(322,-26,o),
(517,-26,c),
(806,-26,o),
(1073,208,o),
(1114,497,c),
(1155,790,o),
(951,1028,o),
(659,1028,c)
);
},
{
closed = 1;
nodes = (
(267,34,o),
(147,238,o),
(184,497,c),
(220,754,o),
(397,968,o),
(657,968,c),
(905,968,o),
(1091,766,o),
(1054,503,c),
(1018,246,o),
(779,34,o),
(519,34,c)
);
}
);
width = 1174;
},
{
layerId = "9333E5AC-F59E-47B3-BDF0-7EA648395594";
shapes = (
{
closed = 1;
nodes = (
(529,1028,o),
(399,948,o),
(313,824,c),
(411,1500,l),
(261,1500,l),
(50,0,l),
(200,0,l),
(228,185,l),
(280,61,o),
(389,-26,o),
(554,-26,c),
(841,-26,o),
(1105,206,o),
(1146,493,c),
(1187,788,o),
(981,1028,o),
(685,1028,c)
);
},
{
closed = 1;
nodes = (
(356,120,o),
(252,285,o),
(282,493,c),
(311,705,o),
(469,883,o),
(680,883,c),
(878,883,o),
(1024,719,o),
(994,509,c),
(964,296,o),
(768,120,o),
(556,120,c)
);
}
);
width = 1206.25;
}
);
metricLeft = H;
unicode = 98;
},
{
glyphname = c;
kernLeft = o;
kernRight = c;
lastChange = "2021-05-18 07:04:12 +0000";
layers = (
{
layerId = "7763577D-A4D2-4749-AE53-49BDF6EC3913";
shapes = (
{
closed = 1;
nodes = (
(620,300,o),
(568,274,o),
(511,274,c),
(406,274,o),
(342,374,o),
(358,483,c),
(376,612,o),
(486,728,o),
(609,728,c),
(648,728,o),
(690,714,o),
(721,678,c),
(1000,811,l),
(925,939,o),
(790,1028,o),
(617,1028,c),
(350,1028,o),
(102,800,o),
(62,517,c),
(20,218,o),
(218,-26,o),
(503,-26,c),
(658,-26,o),
(810,49,o),
(919,175,c),
(659,334,l)
);
}
);
width = 1020;
},
{
layerId = "DDA43255-513F-4353-BCA4-425ED8D2F935";
shapes = (
{
closed = 1;
nodes = (
(772,109,o),
(633,34,o),
(491,34,c),
(251,34,o),
(84,240,o),
(120,497,c),
(155,752,o),
(379,968,o),
(629,968,c),
(755,968,o),
(878,905,o),
(948,791,c),
(1002,817,l),
(930,945,o),
(795,1028,o),
(631,1028,c),
(357,1028,o),
(101,794,o),
(60,503,c),
(19,212,o),
(212,-26,o),
(489,-26,c),
(650,-26,o),
(806,55,o),
(914,183,c),
(864,213,l)
);
}
);
width = 1018;
},
{
associatedMasterId = "DDA43255-513F-4353-BCA4-425ED8D2F935";
layerId = "4D5052CA-17AC-4B14-B54D-6A0BD4908AF6";
name = "May 12, 21, 16:35";
shapes = (
{
closed = 1;
nodes = (
(772,109,o),
(633,34,o),
(491,34,c),
(251,34,o),
(84,240,o),
(120,497,c),
(155,752,o),
(379,968,o),
(629,968,c),
(755,968,o),
(878,905,o),
(948,791,c),
(1002,817,l),
(930,945,o),
(795,1028,o),
(631,1028,c),
(357,1028,o),
(101,794,o),
(60,503,c),
(19,212,o),
(212,-26,o),
(489,-26,c),
(650,-26,o),
(806,55,o),
(914,183,c),
(864,213,l)
);
}
);
width = 1018;
},
{
associatedMasterId = "DDA43255-513F-4353-BCA4-425ED8D2F935";
layerId = "ED84B74F-9727-4318-BF49-96C955C01233";
name = "May 12, 21, 16:35";
shapes = (
{
closed = 1;
nodes = (
(772,109,o),
(633,34,o),
(491,34,c),
(251,34,o),
(84,240,o),
(120,497,c),
(155,752,o),
(379,968,o),
(629,968,c),
(755,968,o),
(878,905,o),
(948,791,c),
(1002,817,l),
(930,945,o),
(795,1028,o),
(631,1028,c),
(357,1028,o),
(101,794,o),
(60,503,c),
(19,212,o),
(212,-26,o),
(489,-26,c),
(650,-26,o),
(806,55,o),
(914,183,c),
(864,213,l)
);
}
);
width = 1018;
},
{
layerId = "9333E5AC-F59E-47B3-BDF0-7EA648395594";
shapes = (
{
closed = 1;
nodes = (
(715,181,o),
(609,124,o),
(499,124,c),
(309,124,o),
(181,290,o),
(209,492,c),
(238,700,o),
(419,878,o),
(622,878,c),
(715,878,o),
(808,833,o),
(863,749,c),
(1001,815,l),
(928,943,o),
(793,1028,o),
(626,1028,c),
(354,1028,o),
(101,796,o),
(61,508,c),
(19,214,o),
(214,-26,o),
(494,-26,c),
(653,-26,o),
(808,53,o),
(916,180,c),
(787,258,l)
);
}
);
width = 1018.75;
}
);
unicode = 99;
},
{
glyphname = d;
kernLeft = o;
kernRight = l;
lastChange = "2021-05-18 07:04:12 +0000";
layers = (
{
layerId = "7763577D-A4D2-4749-AE53-49BDF6EC3913";
shapes = (
{
closed = 1;
nodes = (
(891,902,l),
(839,972,o),
(760,1026,o),
(643,1026,c),
(362,1026,o),
(102,798,o),
(62,517,c),
(20,218,o),
(230,-26,o),
(529,-26,c),
(628,-26,o),
(715,16,o),
(787,86,c),
(769,0,l),
(1070,0,l),
(1281,1500,l),
(980,1500,l)
);
},
{
closed = 1;
nodes = (
(426,262,o),
(348,360,o),
(366,483,c),
(385,624,o),
(510,738,o),
(640,738,c),
(756,738,o),
(834,640,o),
(816,517,c),
(797,376,o),
(672,262,o),
(540,262,c)
);
}
);
width = 1240;
},
{
layerId = "DDA43255-513F-4353-BCA4-425ED8D2F935";
shapes = (
{
closed = 1;
nodes = (
(1031,766,l),
(981,922,o),
(853,1028,o),
(657,1028,c),
(369,1028,o),
(101,794,o),
(60,503,c),
(19,212,o),
(224,-26,o),
(515,-26,c),
(708,-26,o),
(863,76,o),
(957,232,c),
(924,0,l),
(984,0,l),
(1195,1500,l),
(1135,1500,l)
);
},
{
closed = 1;
nodes = (
(269,34,o),
(83,236,o),
(120,497,c),
(156,756,o),
(397,968,o),
(655,968,c),
(907,968,o),
(1027,764,o),
(990,503,c),
(954,246,o),
(777,34,o),
(517,34,c)
);
}
);
width = 1204;
},
{
associatedMasterId = "DDA43255-513F-4353-BCA4-425ED8D2F935";
layerId = "106CCBF7-B992-4148-BB79-CC5E306EA6A7";
name = "May 12, 21, 16:35";
shapes = (
{
closed = 1;
nodes = (
(1031,766,l),
(981,922,o),
(853,1028,o),
(657,1028,c),
(369,1028,o),
(101,794,o),
(60,503,c),
(19,212,o),
(224,-26,o),
(515,-26,c),
(708,-26,o),
(863,76,o),
(957,232,c),
(924,0,l),
(984,0,l),
(1195,1500,l),
(1135,1500,l)
);
},
{
closed = 1;
nodes = (
(269,34,o),
(83,236,o),
(120,497,c),
(156,756,o),
(397,968,o),
(655,968,c),
(907,968,o),
(1027,764,o),
(990,503,c),
(954,246,o),
(777,34,o),
(517,34,c)
);
}
);
width = 1204;
},
{
associatedMasterId = "DDA43255-513F-4353-BCA4-425ED8D2F935";
layerId = "97FA490A-D638-4A90-AD92-4EC8C8473646";
name = "May 12, 21, 16:35";
shapes = (
{
closed = 1;
nodes = (
(1031,766,l),
(981,922,o),
(853,1028,o),
(657,1028,c),
(369,1028,o),
(101,794,o),
(60,503,c),
(19,212,o),
(224,-26,o),
(515,-26,c),
(708,-26,o),
(863,76,o),
(957,232,c),
(924,0,l),
(984,0,l),
(1195,1500,l),
(1135,1500,l)
);
},
{
closed = 1;
nodes = (
(269,34,o),
(83,236,o),
(120,497,c),
(156,756,o),
(397,968,o),
(655,968,c),
(907,968,o),
(1027,764,o),
(990,503,c),
(954,246,o),
(777,34,o),
(517,34,c)
);
}
);
width = 1204;
},
{
layerId = "9333E5AC-F59E-47B3-BDF0-7EA648395594";
shapes = (
{
closed = 1;
nodes = (
(979,817,l),
(928,941,o),
(818,1027,o),
(652,1027,c),
(366,1027,o),
(101,796,o),
(61,508,c),
(19,214,o),
(226,-26,o),
(520,-26,c),
(678,-26,o),
(808,54,o),
(893,177,c),
(866,0,l),
(1016,0,l),
(1227,1500,l),
(1077,1500,l)
);
},
{
closed = 1;
nodes = (
(328,120,o),
(182,283,o),
(212,492,c),
(242,707,o),
(439,882,o),
(649,882,c),
(850,882,o),
(955,718,o),
(925,508,c),
(895,295,o),
(738,120,o),
(526,120,c)
);
}
);
width = 1217.5;
}
);
metricLeft = o;
unicode = 100;
},
{
glyphname = eth;
kernLeft = o;
kernRight = eth;
lastChange = "2021-05-18 07:04:12 +0000";
layers = (
{
layerId = "7763577D-A4D2-4749-AE53-49BDF6EC3913";
shapes = (
{
closed = 1;
nodes = (
(1010,1450,l),
(884,1592,l),
(391,1160,l),
(519,1018,l)
);
},
{
ref = partialdiff;
}
);
width = 1126;
},
{
layerId = "DDA43255-513F-4353-BCA4-425ED8D2F935";
shapes = (
{
closed = 1;
nodes = (
(1007,1500,l),
(969,1542,l),
(470,1114,l),
(509,1070,l)
);
},
{
ref = partialdiff;
}
);
width = 1124;
},
{
layerId = "9333E5AC-F59E-47B3-BDF0-7EA648395594";
shapes = (
{
closed = 1;
nodes = (
(1008,1481,l),
(937,1561,l),
(440,1131,l),
(513,1051,l)
);
},
{
alignment = -1;
ref = partialdiff;
}
);
width = 1124.75;
}
);
unicode = 240;
},
{
glyphname = e;
kernLeft = o;
kernRight = o;
lastChange = "2021-05-18 07:04:12 +0000";
layers = (
{
layerId = "7763577D-A4D2-4749-AE53-49BDF6EC3913";
shapes = (
{
closed = 1;
nodes = (
(694,-26,o),
(878,90,o),
(984,268,c),
(681,353,l),
(638,308,o),
(578,273,o),
(511,274,cs),
(427,276,o),
(384,322,o),
(366,393,c),
(1037,393,l),
(1142,711,o),
(945,1028,o),
(617,1028,cs),
(350,1028,o),
(102,800,o),
(62,518,cs),
(20,218,o),
(218,-26,o),
(503,-26,cs)
);
},
{
closed = 1;
nodes = (
(433,699,o),
(521,768,o),
(614,768,cs),
(692,768,o),
(752,715,o),
(769,629,c),
(392,613,l)
);
}
);
width = 1120;
},
{
layerId = "DDA43255-513F-4353-BCA4-425ED8D2F935";
shapes = (
{
closed = 1;
nodes = (
(688,-26,o),
(876,96,o),
(981,274,c),
(922,291,l),
(819,131,o),
(663,34,o),
(491,34,cs),
(263,34,o),
(100,218,o),
(115,468,c),
(1054,468,l),
(1094,802,o),
(919,1028,o),
(631,1028,cs),
(357,1028,o),
(101,794,o),
(60,503,cs),
(19,212,o),
(212,-26,o),
(489,-26,cs)
);
},
{
closed = 1;
nodes = (
(174,770,o),
(389,968,o),
(629,968,cs),
(863,968,o),
(1027,766,o),
(1003,532,c),
(124,528,l)
);
}
);
width = 1118;
},
{
associatedMasterId = "DDA43255-513F-4353-BCA4-425ED8D2F935";
layerId = "6B9465C1-2A0D-4810-8C7E-8E4F1C00B425";
name = "May 12, 21, 16:35";
shapes = (
{
closed = 1;
nodes = (
(688,-26,o),
(876,96,o),
(981,274,c),
(922,291,l),
(819,131,o),
(663,34,o),
(491,34,cs),
(263,34,o),
(100,218,o),
(115,468,c),
(1054,468,l),
(1094,802,o),
(919,1028,o),
(631,1028,cs),
(357,1028,o),
(101,794,o),
(60,503,cs),
(19,212,o),
(212,-26,o),
(489,-26,cs)
);
},
{
closed = 1;
nodes = (
(174,770,o),
(389,968,o),
(629,968,cs),
(863,968,o),
(1027,766,o),
(1003,532,c),
(124,528,l)
);
}
);
width = 1118;
},
{
associatedMasterId = "DDA43255-513F-4353-BCA4-425ED8D2F935";
layerId = "10BD23D4-CCE7-4274-BEC7-E2D77EF83611";
name = "May 12, 21, 16:35";
shapes = (
{
closed = 1;
nodes = (
(688,-26,o),
(876,96,o),
(981,274,c),
(922,291,l),
(819,131,o),
(663,34,o),
(491,34,cs),
(263,34,o),
(100,218,o),
(115,468,c),
(1054,468,l),
(1094,802,o),
(919,1028,o),
(631,1028,cs),
(357,1028,o),
(101,794,o),
(60,503,cs),
(19,212,o),
(212,-26,o),
(489,-26,cs)
);
},
{
closed = 1;
nodes = (
(174,770,o),
(389,968,o),
(629,968,cs),
(863,968,o),
(1027,766,o),
(1003,532,c),
(124,528,l)
);
}
);
width = 1118;
},
{
layerId = "9333E5AC-F59E-47B3-BDF0-7EA648395594";
shapes = (
{
closed = 1;
nodes = (
(690,-26,o),
(877,94,o),
(982,272,c),
(832,314,l),
(751,197,o),
(631,124,o),
(499,124,cs),
(325,125,o),
(207,257,o),
(209,440,c),
(1048,440,l),
(1112,768,o),
(929,1028,o),
(626,1028,cs),
(354,1028,o),
(101,796,o),
(61,509,cs),
(19,214,o),
(214,-26,o),
(494,-26,cs)
);
},
{
closed = 1;
nodes = (
(271,743,o),
(439,893,o),
(623,893,cs),
(799,893,o),
(924,747,o),
(915,568,c),
(225,560,l)
);
}
);
width = 1118.75;
}
);
unicode = 101;
},
{
glyphname = f;
kernLeft = f;
kernRight = f;
lastChange = "2021-05-18 07:04:12 +0000";
layers = (
{
layerId = "7763577D-A4D2-4749-AE53-49BDF6EC3913";
shapes = (
{
closed = 1;
nodes = (
(542,1198,o),
(574,1224,o),
(607,1224,c),
(614,1224,o),
(627,1222,o),
(631,1202,c),
(870,1400,l),
(807,1481,o),
(716,1524,o),
(615,1524,c),
(434,1524,o),
(267,1378,o),
(241,1190,c),
(214,1000,l),
(120,1000,l),
(78,700,l),
(172,700,l),
(74,0,l),
(374,0,l),
(472,700,l),
(730,700,l),
(772,1000,l),
(514,1000,l),
(539,1174,l)
);
}
);
width = 762;
},
{
layerId = "DDA43255-513F-4353-BCA4-425ED8D2F935";
shapes = (
{
closed = 1;
nodes = (
(394,1390,o),
(478,1464,o),
(568,1464,c),
(612,1464,o),
(651,1446,o),
(677,1416,c),
(725,1458,l),
(689,1500,o),
(636,1524,o),
(576,1524,c),
(452,1524,o),
(338,1424,o),
(321,1300,c),
(279,1000,l),
(121,1000,l),
(112,940,l),
(270,940,l),
(138,0,l),
(198,0,l),
(330,940,l),
(652,940,l),
(661,1000,l),
(339,1000,l),
(381,1300,l)
);
}
);
width = 620;
},
{
associatedMasterId = "DDA43255-513F-4353-BCA4-425ED8D2F935";
layerId = "BD9CA1A7-2CA1-4ED8-AA3A-759A5234C9C5";
name = "May 12, 21, 16:35";
shapes = (
{
closed = 1;
nodes = (
(394,1390,o),
(478,1464,o),
(568,1464,c),
(612,1464,o),
(651,1446,o),
(677,1416,c),
(725,1458,l),
(689,1500,o),
(636,1524,o),
(576,1524,c),
(452,1524,o),
(338,1424,o),
(321,1300,c),
(279,1000,l),
(121,1000,l),
(112,940,l),
(270,940,l),
(138,0,l),
(198,0,l),
(330,940,l),
(652,940,l),
(661,1000,l),
(339,1000,l),
(381,1300,l)
);
}
);
width = 620;
},
{
associatedMasterId = "DDA43255-513F-4353-BCA4-425ED8D2F935";
layerId = "4ED17C46-57B2-41C5-92C9-88D25F4CCC7B";
name = "May 12, 21, 16:35";
shapes = (
{
closed = 1;
nodes = (
(394,1390,o),
(478,1464,o),
(568,1464,c),
(612,1464,o),
(651,1446,o),
(677,1416,c),
(725,1458,l),
(689,1500,o),
(636,1524,o),
(576,1524,c),
(452,1524,o),
(338,1424,o),
(321,1300,c),
(279,1000,l),
(121,1000,l),
(112,940,l),
(270,940,l),
(138,0,l),
(198,0,l),
(330,940,l),
(652,940,l),
(661,1000,l),
(339,1000,l),
(381,1300,l)
);
}
);
width = 620;
},
{
layerId = "9333E5AC-F59E-47B3-BDF0-7EA648395594";
shapes = (
{
closed = 1;
nodes = (
(450,1318,o),
(514,1374,o),
(583,1374,c),
(613,1374,o),
(642,1362,o),
(660,1336,c),
(779,1436,l),
(733,1493,o),
(666,1524,o),
(591,1524,c),
(445,1524,o),
(311,1407,o),
(291,1259,c),
(255,1000,l),
(121,1000,l),
(99,850,l),
(233,850,l),
(114,0,l),
(264,0,l),
(383,850,l),
(681,850,l),
(703,1000,l),
(405,1000,l),
(440,1253,l)
);
}
);
width = 673.25;
}
);
unicode = 102;
},
{
glyphname = g;
kernLeft = o;
kernRight = g;
lastChange = "2021-05-18 07:04:12 +0000";
layers = (
{
layerId = "7763577D-A4D2-4749-AE53-49BDF6EC3913";
shapes = (
{
closed = 1;
nodes = (
(885,906,l),
(835,974,o),
(758,1026,o),
(643,1026,cs),
(362,1026,o),
(102,798,o),
(62,517,cs),
(20,218,o),
(230,-26,o),
(529,-26,cs),
(626,-26,o),
(711,14,o),
(781,82,c),
(763,-2,ls),
(745,-132,o),
(598,-198,o),
(451,-198,cs),
(366,-198,o),
(291,-154,o),
(261,-64,c),
(-22,-172,l),
(40,-362,o),
(222,-500,o),
(442,-500,cs),
(738,-500,o),
(1018,-322,o),
(1061,-18,cs),
(1204,1000,l),
(904,1000,l)
);
},
{
closed = 1;
nodes = (
(426,262,o),
(348,360,o),
(366,483,cs),
(385,624,o),
(510,738,o),
(640,738,cs),
(756,738,o),
(834,640,o),
(816,517,cs),
(797,376,o),
(672,262,o),
(540,262,cs)
);
}
);
width = 1254;
},
{
layerId = "DDA43255-513F-4353-BCA4-425ED8D2F935";
shapes = (
{
closed = 1;
nodes = (
(993,768,l),
(941,922,o),
(815,1028,o),
(631,1028,c),
(357,1028,o),
(101,794,o),
(60,503,c),
(19,212,o),
(212,-26,o),
(489,-26,c),
(670,-26,o),
(823,76,o),
(919,230,c),
(879,-48,l),
(851,-248,o),
(620,-440,o),
(413,-440,c),
(236,-440,o),
(68,-292,o),
(60,-112,c),
(1,-134,l),
(20,-328,o),
(201,-500,o),
(411,-500,c),
(645,-500,o),
(906,-284,o),
(938,-52,c),
(1086,1000,l),
(1026,1000,l)
);
},
{
closed = 1;
nodes = (
(253,34,o),
(83,238,o),
(120,497,c),
(156,756,o),
(381,968,o),
(629,968,c),
(871,968,o),
(990,756,o),
(954,503,c),
(919,254,o),
(741,34,o),
(491,34,c)
);
}
);
width = 1136;
},
{
associatedMasterId = "DDA43255-513F-4353-BCA4-425ED8D2F935";
layerId = "AF147070-4A4F-44EE-ACC3-694794846626";
name = "May 12, 21, 16:35";
shapes = (
{
closed = 1;
nodes = (
(993,768,l),
(941,922,o),
(815,1028,o),
(631,1028,c),
(357,1028,o),
(101,794,o),
(60,503,c),
(19,212,o),
(212,-26,o),
(489,-26,c),
(670,-26,o),
(823,76,o),
(919,230,c),
(879,-48,l),
(851,-248,o),
(620,-440,o),
(413,-440,c),
(236,-440,o),
(68,-292,o),
(60,-112,c),
(1,-134,l),
(20,-328,o),
(201,-500,o),
(411,-500,c),
(645,-500,o),
(906,-284,o),
(938,-52,c),
(1086,1000,l),
(1026,1000,l)
);
},
{
closed = 1;
nodes = (
(253,34,o),
(83,238,o),
(120,497,c),
(156,756,o),
(381,968,o),
(629,968,c),
(871,968,o),
(990,756,o),
(954,503,c),
(919,254,o),
(741,34,o),
(491,34,c)
);
}
);
width = 1136;
},
{
associatedMasterId = "DDA43255-513F-4353-BCA4-425ED8D2F935";
layerId = "D8EA99F5-8984-48E1-812C-233FBE899257";
name = "May 12, 21, 16:35";
shapes = (
{
closed = 1;
nodes = (
(993,768,l),
(941,922,o),
(815,1028,o),
(631,1028,c),
(357,1028,o),
(101,794,o),
(60,503,c),
(19,212,o),
(212,-26,o),
(489,-26,c),
(670,-26,o),
(823,76,o),
(919,230,c),
(879,-48,l),
(851,-248,o),
(620,-440,o),
(413,-440,c),
(236,-440,o),
(68,-292,o),
(60,-112,c),
(1,-134,l),
(20,-328,o),
(201,-500,o),
(411,-500,c),
(645,-500,o),
(906,-284,o),
(938,-52,c),
(1086,1000,l),
(1026,1000,l)
);
},
{
closed = 1;
nodes = (
(253,34,o),
(83,238,o),
(120,497,c),
(156,756,o),
(381,968,o),
(629,968,c),
(871,968,o),
(990,756,o),
(954,503,c),
(919,254,o),
(741,34,o),
(491,34,c)
);
}
);
width = 1136;
},
{
layerId = "9333E5AC-F59E-47B3-BDF0-7EA648395594";
shapes = (
{
closed = 1;
nodes = (
(953,820,l),
(901,942,o),
(794,1027,o),
(636,1027,c),
(359,1027,o),
(101,796,o),
(61,508,c),
(19,214,o),
(219,-26,o),
(504,-26,c),
(654,-26,o),
(781,53,o),
(867,175,c),
(836,-31,l),
(811,-205,o),
(612,-349,o),
(427,-349,c),
(285,-349,o),
(152,-240,o),
(135,-94,c),
(-8,-148,l),
(28,-341,o),
(209,-500,o),
(423,-500,c),
(680,-500,o),
(948,-298,o),
(984,-39,c),
(1130,1000,l),
(980,1000,l)
);
},
{
closed = 1;
nodes = (
(318,120,o),
(182,284,o),
(212,492,c),
(242,707,o),
(429,882,o),
(633,882,c),
(828,882,o),
(932,713,o),
(902,508,c),
(873,300,o),
(715,120,o),
(509,120,c)
);
}
);
width = 1180.25;
}
);
unicode = 103;
},
{
glyphname = h;
kernLeft = h;
kernRight = n;
lastChange = "2021-05-18 07:04:12 +0000";
layers = (
{
layerId = "7763577D-A4D2-4749-AE53-49BDF6EC3913";
shapes = (
{
closed = 1;
nodes = (
(1134,784,o),
(986,1026,o),
(689,1026,c),
(598,1026,o),
(530,1028,o),
(479,946,c),
(561,1500,l),
(261,1500,l),
(50,0,l),
(352,0,l),
(421,492,l),
(439,624,o),
(510,738,o),
(650,738,c),
(752,738,o),
(818,640,o),
(799,508,c),
(728,0,l),
(1028,0,l),
(1097,496,l)
);
}
);
width = 1178;
},
{
layerId = "DDA43255-513F-4353-BCA4-425ED8D2F935";
shapes = (
{
closed = 1;
nodes = (
(997,804,o),
(851,1028,o),
(609,1028,c),
(463,1028,o),
(324,943,o),
(221,797,c),
(321,1500,l),
(261,1500,l),
(50,0,l),
(110,0,l),
(187,548,l),
(219,778,o),
(409,968,o),
(607,968,c),
(803,968,o),
(938,782,o),
(905,552,c),
(828,0,l),
(888,0,l),
(965,552,l)
);
}
);
width = 1038;
},
{
associatedMasterId = "DDA43255-513F-4353-BCA4-425ED8D2F935";
layerId = "9703B28E-E05C-4761-BB87-9F4054D89899";
name = "May 12, 21, 16:35";
shapes = (
{
closed = 1;
nodes = (
(997,804,o),
(851,1028,o),
(609,1028,c),
(463,1028,o),
(324,943,o),
(221,797,c),
(321,1500,l),
(261,1500,l),
(50,0,l),
(110,0,l),
(187,548,l),
(219,778,o),
(409,968,o),
(607,968,c),
(803,968,o),
(938,782,o),
(905,552,c),
(828,0,l),
(888,0,l),
(965,552,l)
);
}
);
width = 1038;
},
{
associatedMasterId = "DDA43255-513F-4353-BCA4-425ED8D2F935";
layerId = "63A5ABB5-68DA-44E0-9C2D-B41692133B5D";
name = "May 12, 21, 16:35";
shapes = (
{
closed = 1;
nodes = (
(997,804,o),
(851,1028,o),
(609,1028,c),
(463,1028,o),
(324,943,o),
(221,797,c),
(321,1500,l),
(261,1500,l),
(50,0,l),
(110,0,l),
(187,548,l),
(219,778,o),
(409,968,o),
(607,968,c),
(803,968,o),
(938,782,o),
(905,552,c),
(828,0,l),
(888,0,l),
(965,552,l)
);
}
);
width = 1038;
},
{
layerId = "9333E5AC-F59E-47B3-BDF0-7EA648395594";
shapes = (
{
closed = 1;
nodes = (
(1048,797,o),
(902,1027,o),
(639,1027,c),
(514,1027,o),
(401,975,o),
(318,853,c),
(411,1500,l),
(261,1500,l),
(50,0,l),
(201,0,l),
(275,527,l),
(302,720,o),
(447,882,o),
(623,882,c),
(784,882,o),
(893,729,o),
(865,536,c),
(791,0,l),
(941,0,l),
(1015,531,l)
);
}
);
width = 1090.5;
}
);
metricLeft = H;
unicode = 104;
},
{
glyphname = i;
kernLeft = i;
kernRight = i;
lastChange = "2021-05-18 07:04:12 +0000";
layers = (
{
layerId = "7763577D-A4D2-4749-AE53-49BDF6EC3913";
shapes = (
{
closed = 1;
nodes = (
(52,0,l),
(352,0,l),
(492,1000,l),
(192,1000,l)
);
},
{
closed = 1;
nodes = (
(447,1100,o),
(512,1158,o),
(523,1233,c),
(536,1324,o),
(472,1400,o),
(380,1400,c),
(306,1400,o),
(238,1340,o),
(228,1267,c),
(215,1174,o),
(281,1100,o),
(371,1100,c)
);
}
);
width = 542;
},
{
layerId = "DDA43255-513F-4353-BCA4-425ED8D2F935";
shapes = (
{
closed = 1;
nodes = (
(56,0,l),
(116,0,l),
(256,1000,l),
(196,1000,l)
);
},
{
closed = 1;
nodes = (
(288,1200,o),
(312,1222,o),
(314,1241,c),
(318,1266,o),
(297,1290,o),
(272,1290,c),
(249,1290,o),
(228,1270,o),
(225,1247,c),
(222,1226,o),
(240,1200,o),
(266,1200,c)
);
}
);
width = 330;
},
{
associatedMasterId = "DDA43255-513F-4353-BCA4-425ED8D2F935";
layerId = "D16C9476-B019-4384-B141-9499B662A686";
name = "May 12, 21, 16:35";
shapes = (
{
closed = 1;
nodes = (
(56,0,l),
(116,0,l),
(256,1000,l),
(196,1000,l)
);
},
{
closed = 1;
nodes = (
(288,1200,o),
(312,1222,o),
(314,1241,c),
(318,1266,o),
(297,1290,o),
(272,1290,c),
(249,1290,o),
(228,1270,o),
(225,1247,c),
(222,1226,o),
(240,1200,o),
(266,1200,c)
);
}
);
width = 330;
},
{
associatedMasterId = "DDA43255-513F-4353-BCA4-425ED8D2F935";
layerId = "0145BB30-C297-4BC1-A6F4-CC7A51D5E3CB";
name = "May 12, 21, 16:35";
shapes = (
{
closed = 1;
nodes = (
(56,0,l),
(116,0,l),
(256,1000,l),
(196,1000,l)
);
},
{
closed = 1;
nodes = (
(288,1200,o),
(312,1222,o),
(314,1241,c),
(318,1266,o),
(297,1290,o),
(272,1290,c),
(249,1290,o),
(228,1270,o),
(225,1247,c),
(222,1226,o),
(240,1200,o),
(266,1200,c)
);
}
);
width = 330;
},
{
layerId = "9333E5AC-F59E-47B3-BDF0-7EA648395594";
shapes = (
{
closed = 1;
nodes = (
(55,0,l),
(205,0,l),
(345,1000,l),
(195,1000,l)
);
},
{
closed = 1;
nodes = (
(348,1163,o),
(387,1198,o),
(392,1238,c),
(400,1288,o),
(363,1331,o),
(313,1331,c),
(270,1331,o),
(232,1296,o),
(226,1255,c),
(219,1207,o),
(255,1163,o),
(305,1163,c)
);
}
);
width = 409.5;
}
);
unicode = 105;
},
{
glyphname = idotless;
kernLeft = i;
kernRight = i;
lastChange = "2021-05-18 07:05:25 +0000";
layers = (
{
layerId = "7763577D-A4D2-4749-AE53-49BDF6EC3913";
shapes = (
{
closed = 1;
nodes = (
(50,0,l),
(350,0,l),
(490,1000,l),
(190,1000,l)
);
}
);
width = 540;
},
{
layerId = "DDA43255-513F-4353-BCA4-425ED8D2F935";
shapes = (
{
closed = 1;
nodes = (
(50,0,l),
(110,0,l),
(250,1000,l),
(190,1000,l)
);
}
);
width = 300;
},
{
layerId = "9333E5AC-F59E-47B3-BDF0-7EA648395594";
shapes = (
{
closed = 1;
nodes = (
(50,0,l),
(200,0,l),
(340,1000,l),
(190,1000,l)
);
}
);
width = 391;
}
);
metricLeft = i;
metricRight = i;
unicode = 305;
},
{
glyphname = iacute;
kernLeft = i;
kernRight = i;
lastChange = "2021-05-18 07:05:31 +0000";
layers = (
{
layerId = "7763577D-A4D2-4749-AE53-49BDF6EC3913";
shapes = (
{
closed = 1;
nodes = (
(50,0,l),
(350,0,l),
(490,1000,l),
(190,1000,l)
);
},
{
pos = (-290,0);
ref = acutecomb;
}
);
width = 593;
},
{
layerId = "DDA43255-513F-4353-BCA4-425ED8D2F935";
shapes = (
{
closed = 1;
nodes = (
(50,0,l),
(110,0,l),
(250,1000,l),
(190,1000,l)
);
},
{
pos = (-340,0);
ref = acutecomb;
}
);
width = 301;
},
{
layerId = "9333E5AC-F59E-47B3-BDF0-7EA648395594";
shapes = (
{
closed = 1;
nodes = (
(50,0,l),
(200,0,l),
(340,1000,l),
(190,1000,l)
);
},
{
alignment = -1;
pos = (-321,0);
ref = acutecomb;
}
);
width = 412;
}
);
metricLeft = i;
metricRight = "=i-100";
unicode = 237;
},
{
glyphname = icircumflex;
lastChange = "2021-05-18 07:05:42 +0000";
layers = (
{
layerId = "7763577D-A4D2-4749-AE53-49BDF6EC3913";
shapes = (
{
closed = 1;
nodes = (
(53,0,l),
(353,0,l),
(493,1000,l),
(193,1000,l)
);
},
{
pos = (-377,0);
ref = circumflexcomb;
}
);
width = 542;
},
{
layerId = "DDA43255-513F-4353-BCA4-425ED8D2F935";
shapes = (
{
closed = 1;
nodes = (
(41,0,l),
(101,0,l),
(241,1000,l),
(181,1000,l)
);
},
{
pos = (-379,0);
ref = circumflexcomb;
}
);
width = 282;
},
{
layerId = "9333E5AC-F59E-47B3-BDF0-7EA648395594";
shapes = (
{
closed = 1;
nodes = (
(46,0,l),
(196,0,l),
(336,1000,l),
(186,1000,l)
);
},
{
alignment = -1;
pos = (-378,0);
ref = circumflexcomb;
}
);
width = 381;
}
);
metricLeft = "=i-100";
metricRight = "=i-100";
unicode = 238;
},
{
glyphname = idieresis;
kernLeft = i;
kernRight = i;
lastChange = "2021-05-18 07:05:48 +0000";
layers = (
{
layerId = "7763577D-A4D2-4749-AE53-49BDF6EC3913";
shapes = (
{
closed = 1;
nodes = (
(210,0,l),
(510,0,l),
(650,1000,l),
(350,1000,l)
);
},
{
pos = (-340,0);
ref = dieresiscomb;
}
);
width = 862;
},
{
layerId = "DDA43255-513F-4353-BCA4-425ED8D2F935";
shapes = (
{
closed = 1;
nodes = (
(132,0,l),
(192,0,l),
(332,1000,l),
(272,1000,l)
);
},
{
pos = (-340,0);
ref = dieresiscomb;
}
);
width = 466;
},
{
layerId = "9333E5AC-F59E-47B3-BDF0-7EA648395594";
shapes = (
{
closed = 1;
nodes = (
(161,0,l),
(311,0,l),
(451,1000,l),
(301,1000,l)
);
},
{
alignment = -1;
pos = (-340,0);
ref = dieresiscomb;
}
);
width = 615;
}
);
metricLeft = "=i-60";
metricRight = "=i-60";
unicode = 239;
},
{
glyphname = igrave;
kernLeft = i;
kernRight = i;
lastChange = "2021-05-18 07:05:52 +0000";
layers = (
{
layerId = "7763577D-A4D2-4749-AE53-49BDF6EC3913";
shapes = (
{
closed = 1;
nodes = (
(97,0,l),
(397,0,l),
(537,1000,l),
(237,1000,l)
);
},
{
pos = (-303,0);
ref = grave;
}
);
width = 587;
},
{
layerId = "DDA43255-513F-4353-BCA4-425ED8D2F935";
shapes = (
{
closed = 1;
nodes = (
(49,0,l),
(109,0,l),
(249,1000,l),
(189,1000,l)
);
},
{
pos = (-301,0);
ref = grave;
}
);
width = 299;
},
{
layerId = "9333E5AC-F59E-47B3-BDF0-7EA648395594";
shapes = (
{
closed = 1;
nodes = (
(67,0,l),
(217,0,l),
(357,1000,l),
(207,1000,l)
);
},
{
alignment = -1;
pos = (-302,0);
ref = grave;
}
);
width = 408;
}
);
metricLeft = "=i-100";
metricRight = i;
unicode = 236;
},
{
glyphname = j;
kernLeft = j;
kernRight = g;
lastChange = "2021-05-18 07:04:12 +0000";
layers = (
{
layerId = "7763577D-A4D2-4749-AE53-49BDF6EC3913";
shapes = (
{
closed = 1;
nodes = (
(50,-500,o),
(280,-296,o),
(317,-36,c),
(462,1000,l),
(162,1000,l),
(19,-20,l),
(5,-116,o),
(-93,-200,o),
(-178,-200,c),
(-170,-200,o),
(-229,-500,o),
(-221,-500,c)
);
},
{
closed = 1;
nodes = (
(417,1100,o),
(485,1160,o),
(495,1233,c),
(508,1326,o),
(442,1400,o),
(352,1400,c),
(276,1400,o),
(210,1342,o),
(200,1267,c),
(187,1176,o),
(251,1100,o),
(343,1100,c)
);
}
);
width = 542;
},
{
layerId = "DDA43255-513F-4353-BCA4-425ED8D2F935";
shapes = (
{
closed = 1;
nodes = (
(-7,-500,o),
(167,-346,o),
(195,-150,c),
(356,1000,l),
(296,1000,l),
(135,-146,l),
(112,-312,o),
(-38,-440,o),
(-212,-440,c),
(-210,-440,o),
(-222,-500,o),
(-221,-500,cs)
);
},
{
closed = 1;
nodes = (
(380,1200,o),
(403,1218,o),
(406,1241,c),
(410,1266,o),
(389,1290,o),
(364,1290,c),
(341,1290,o),
(320,1270,o),
(317,1247,c),
(313,1222,o),
(332,1200,o),
(358,1200,c)
);
}
);
width = 452;
},
{
associatedMasterId = "DDA43255-513F-4353-BCA4-425ED8D2F935";
layerId = "CA8505A7-123A-438A-AC61-928EDAC90985";
name = "May 12, 21, 16:35";
shapes = (
{
closed = 1;
nodes = (
(-7,-500,o),
(167,-346,o),
(195,-150,c),
(356,1000,l),
(296,1000,l),
(135,-146,l),
(112,-312,o),
(-38,-440,o),
(-212,-440,c),
(-210,-440,o),
(-222,-500,o),
(-221,-500,cs)
);
},
{
closed = 1;
nodes = (
(380,1200,o),
(403,1218,o),
(406,1241,c),
(410,1266,o),
(389,1290,o),
(364,1290,c),
(341,1290,o),
(320,1270,o),
(317,1247,c),
(313,1222,o),
(332,1200,o),
(358,1200,c)
);
}
);
width = 452;
},
{
associatedMasterId = "DDA43255-513F-4353-BCA4-425ED8D2F935";
layerId = "1A6828E0-9DFD-4B28-AEE0-676635E17A5F";
name = "May 12, 21, 16:35";
shapes = (
{
closed = 1;
nodes = (
(-7,-500,o),
(167,-346,o),
(195,-150,c),
(356,1000,l),
(296,1000,l),
(135,-146,l),
(112,-312,o),
(-38,-440,o),
(-212,-440,c),
(-210,-440,o),
(-222,-500,o),
(-221,-500,cs)
);
},
{
closed = 1;
nodes = (
(380,1200,o),
(403,1218,o),
(406,1241,c),
(410,1266,o),
(389,1290,o),
(364,1290,c),
(341,1290,o),
(320,1270,o),
(317,1247,c),
(313,1222,o),
(332,1200,o),
(358,1200,c)
);
}
);
width = 452;
},
{
layerId = "9333E5AC-F59E-47B3-BDF0-7EA648395594";
shapes = (
{
closed = 1;
nodes = (
(14,-500,o),
(209,-327,o),
(241,-107,c),
(396,1000,l),
(246,1000,l),
(92,-99,l),
(72,-239,o),
(-59,-350,o),
(-199,-350,c),
(-195,-350,o),
(-225,-500,o),
(-221,-500,cs)
);
},
{
closed = 1;
nodes = (
(394,1163,o),
(434,1196,o),
(439,1238,c),
(447,1289,o),
(409,1331,o),
(360,1331,c),
(317,1331,o),
(279,1297,o),
(273,1255,c),
(266,1205,o),
(302,1163,o),
(352,1163,c)
);
}
);
width = 485.75;
}
);
unicode = 106;
},
{
glyphname = k;
kernLeft = h;
kernRight = k;
lastChange = "2021-05-18 07:04:12 +0000";
layers = (
{
layerId = "7763577D-A4D2-4749-AE53-49BDF6EC3913";
shapes = (
{
closed = 1;
nodes = (
(746,588,l),
(1151,1000,l),
(753,1000,l),
(442,682,l),
(561,1500,l),
(261,1500,l),
(50,0,l),
(350,0,l),
(383,216,l),
(512,344,l),
(661,0,l),
(1001,0,l)
);
}
);
width = 1118;
},
{
layerId = "DDA43255-513F-4353-BCA4-425ED8D2F935";
shapes = (
{
closed = 1;
nodes = (
(510,602,l),
(903,1000,l),
(824,1000,l),
(189,352,l),
(351,1500,l),
(291,1500,l),
(80,0,l),
(140,0,l),
(177,258,l),
(465,552,l),
(706,0,l),
(773,0,l)
);
}
);
width = 944;
},
{
associatedMasterId = "DDA43255-513F-4353-BCA4-425ED8D2F935";
layerId = "A0919B49-C5D7-4E6F-B3E4-66F8EAD276ED";
name = "May 12, 21, 16:35";
shapes = (
{
closed = 1;
nodes = (
(510,602,l),
(903,1000,l),
(824,1000,l),
(189,352,l),
(351,1500,l),
(291,1500,l),
(80,0,l),
(140,0,l),
(177,258,l),
(465,552,l),
(706,0,l),
(773,0,l)
);
}
);
width = 944;
},
{
associatedMasterId = "DDA43255-513F-4353-BCA4-425ED8D2F935";
layerId = "268700DE-5CC8-4EE4-B91E-7A774EA61983";
name = "May 12, 21, 16:35";
shapes = (
{
closed = 1;
nodes = (
(510,602,l),
(903,1000,l),
(824,1000,l),
(189,352,l),
(351,1500,l),
(291,1500,l),
(80,0,l),
(140,0,l),
(177,258,l),
(465,552,l),
(706,0,l),
(773,0,l)
);
}
);
width = 944;
},
{
layerId = "9333E5AC-F59E-47B3-BDF0-7EA648395594";
shapes = (
{
closed = 1;
nodes = (
(599,597,l),
(996,1000,l),
(797,1000,l),
(284,476,l),
(430,1500,l),
(280,1500,l),
(69,0,l),
(219,0,l),
(254,242,l),
(483,474,l),
(689,0,l),
(859,0,l)
);
}
);
width = 1009.25;
}
);
unicode = 107;
},
{
glyphname = l;
kernLeft = h;
kernRight = l;
lastChange = "2021-05-18 07:04:12 +0000";
layers = (
{
layerId = "7763577D-A4D2-4749-AE53-49BDF6EC3913";
shapes = (
{
closed = 1;
nodes = (
(350,0,l),
(561,1500,l),
(261,1500,l),
(50,0,l)
);
}
);
width = 540;
},
{
layerId = "DDA43255-513F-4353-BCA4-425ED8D2F935";
shapes = (
{
closed = 1;
nodes = (
(140,2,l),
(351,1500,l),
(291,1500,l),
(80,2,l)
);
}
);
width = 360;
},
{
associatedMasterId = "DDA43255-513F-4353-BCA4-425ED8D2F935";
layerId = "F5B6907A-9015-4E52-8DD3-ACE5621F87C7";
name = "May 12, 21, 16:35";
shapes = (
{
closed = 1;
nodes = (
(140,2,l),
(351,1500,l),
(291,1500,l),
(80,2,l)
);
}
);
width = 360;
},
{
associatedMasterId = "DDA43255-513F-4353-BCA4-425ED8D2F935";
layerId = "9C501874-D76D-4D62-BDC0-709D8823BF1A";
name = "May 12, 21, 16:35";
shapes = (
{
closed = 1;
nodes = (
(140,2,l),
(351,1500,l),
(291,1500,l),
(80,2,l)
);
}
);
width = 360;
},
{
layerId = "9333E5AC-F59E-47B3-BDF0-7EA648395594";
shapes = (
{
closed = 1;
nodes = (
(219,1,l),
(430,1500,l),
(280,1500,l),
(69,1,l)
);
}
);
width = 427.5;
}
);
unicode = 108;
},
{
glyphname = m;
kernLeft = n;
kernRight = n;
lastChange = "2021-05-18 07:04:12 +0000";
layers = (
{
layerId = "7763577D-A4D2-4749-AE53-49BDF6EC3913";
shapes = (
{
closed = 1;
nodes = (
(310,0,l),
(383,524,ls),
(397,619,o),
(494,703,o),
(597,703,cs),
(683,703,o),
(742,635,o),
(729,540,cs),
(653,0,l),
(953,0,l),
(1026,524,ls),
(1040,619,o),
(1137,703,o),
(1239,703,cs),
(1326,703,o),
(1385,635,o),
(1372,540,cs),
(1296,0,l),
(1596,0,l),
(1669,524,ls),
(1706,784,o),
(1517,1003,o),
(1248,1003,cs),
(1136,1003,o),
(1020,965,o),
(914,877,c),
(844,953,o),
(734,1003,o),
(606,1003,cs),
(554,1003,o),
(497,997,o),
(437,956,c),
(452,1000,l),
(150,1000,l),
(10,0,l)
);
}
);
width = 1746;
},
{
layerId = "DDA43255-513F-4353-BCA4-425ED8D2F935";
shapes = (
{
closed = 1;
nodes = (
(90,0,l),
(164,528,ls),
(196,758,o),
(355,968,o),
(547,968,cs),
(753,968,o),
(856,782,o),
(823,552,cs),
(746,0,l),
(806,0,l),
(883,548,ls),
(915,778,o),
(1073,968,o),
(1283,968,cs),
(1489,968,o),
(1572,782,o),
(1539,552,cs),
(1462,0,l),
(1522,0,l),
(1599,548,ls),
(1635,804,o),
(1535,1028,o),
(1285,1028,cs),
(1103,1028,o),
(967,922,o),
(879,744,c),
(842,914,o),
(741,1028,o),
(549,1028,cs),
(391,1028,o),
(296,935,o),
(200,793,c),
(230,1000,l),
(170,1000,l),
(30,0,l)
);
}
);
width = 1692;
},
{
associatedMasterId = "DDA43255-513F-4353-BCA4-425ED8D2F935";
layerId = "06291745-7409-453D-8CB3-E571EFCE78DF";
name = "May 12, 21, 16:35";
shapes = (
{
closed = 1;
nodes = (
(90,0,l),
(164,528,ls),
(196,758,o),
(355,968,o),
(547,968,cs),
(753,968,o),
(856,782,o),
(823,552,cs),
(746,0,l),
(806,0,l),
(883,548,ls),
(915,778,o),
(1073,968,o),
(1283,968,cs),
(1489,968,o),
(1572,782,o),
(1539,552,cs),
(1462,0,l),
(1522,0,l),
(1599,548,ls),
(1635,804,o),
(1535,1028,o),
(1285,1028,cs),
(1103,1028,o),
(967,922,o),
(879,744,c),
(842,914,o),
(741,1028,o),
(549,1028,cs),
(391,1028,o),
(296,935,o),
(200,793,c),
(230,1000,l),
(170,1000,l),
(30,0,l)
);
}
);
width = 1692;
},
{
associatedMasterId = "DDA43255-513F-4353-BCA4-425ED8D2F935";
layerId = "5094B4EA-BF10-43B3-A7A4-4B600DDE0CDF";
name = "May 12, 21, 16:35";
shapes = (
{
closed = 1;
nodes = (
(90,0,l),
(164,528,ls),
(196,758,o),
(355,968,o),
(547,968,cs),
(753,968,o),
(856,782,o),
(823,552,cs),
(746,0,l),
(806,0,l),
(883,548,ls),
(915,778,o),
(1073,968,o),
(1283,968,cs),
(1489,968,o),
(1572,782,o),
(1539,552,cs),
(1462,0,l),
(1522,0,l),
(1599,548,ls),
(1635,804,o),
(1535,1028,o),
(1285,1028,cs),
(1103,1028,o),
(967,922,o),
(879,744,c),
(842,914,o),
(741,1028,o),
(549,1028,cs),
(391,1028,o),
(296,935,o),
(200,793,c),
(230,1000,l),
(170,1000,l),
(30,0,l)
);
}
);
width = 1692;
},
{
layerId = "9333E5AC-F59E-47B3-BDF0-7EA648395594";
shapes = (
{
closed = 1;
nodes = (
(173,0,l),
(246,527,ls),
(271,706,o),
(407,869,o),
(566,869,cs),
(727,869,o),
(813,727,o),
(788,548,cs),
(711,0,l),
(861,0,l),
(937,539,ls),
(962,718,o),
(1097,869,o),
(1267,869,cs),
(1428,869,o),
(1502,727,o),
(1476,548,cs),
(1400,0,l),
(1550,0,l),
(1625,539,ls),
(1662,797,o),
(1528,1019,o),
(1271,1019,cs),
(1115,1019,o),
(987,938,o),
(892,794,c),
(843,929,o),
(738,1019,o),
(570,1019,cs),
(452,1019,o),
(371,958,o),
(289,854,c),
(313,1000,l),
(163,1000,l),
(23,0,l)
);
}
);
width = 1712.25;
}
);
unicode = 109;
},
{
glyphname = n;
kernLeft = n;
kernRight = n;
lastChange = "2021-05-18 07:04:12 +0000";
layers = (
{
layerId = "7763577D-A4D2-4749-AE53-49BDF6EC3913";
shapes = (
{
closed = 1;
nodes = (
(1154,786,o),
(1006,1028,o),
(709,1028,c),
(610,1028,o),
(525,986,o),
(453,914,c),
(471,1000,l),
(170,1000,l),
(30,0,l),
(330,0,l),
(399,494,l),
(417,624,o),
(510,740,o),
(648,740,c),
(772,740,o),
(836,640,o),
(817,510,c),
(746,0,l),
(1046,0,l),
(1116,498,l)
);
}
);
width = 1216;
},
{
layerId = "DDA43255-513F-4353-BCA4-425ED8D2F935";
shapes = (
{
closed = 1;
nodes = (
(977,804,o),
(831,1028,o),
(589,1028,c),
(443,1028,o),
(304,943,o),
(201,797,c),
(230,1000,l),
(170,1000,l),
(30,0,l),
(90,0,l),
(167,548,l),
(199,778,o),
(389,968,o),
(587,968,c),
(783,968,o),
(918,782,o),
(885,552,c),
(808,0,l),
(868,0,l),
(945,552,l)
);
}
);
width = 1038;
},
{
associatedMasterId = "DDA43255-513F-4353-BCA4-425ED8D2F935";
layerId = "EFCF8FCB-7BCB-4CCC-A6BC-51BC542EE8A7";
name = "May 12, 21, 16:35";
shapes = (
{
closed = 1;
nodes = (
(977,804,o),
(831,1028,o),
(589,1028,c),
(443,1028,o),
(304,943,o),
(201,797,c),
(230,1000,l),
(170,1000,l),
(30,0,l),
(90,0,l),
(167,548,l),
(199,778,o),
(389,968,o),
(587,968,c),
(783,968,o),
(918,782,o),
(885,552,c),
(808,0,l),
(868,0,l),
(945,552,l)
);
}
);
width = 1038;
},
{
layerId = "9333E5AC-F59E-47B3-BDF0-7EA648395594";
shapes = (
{
closed = 1;
nodes = (
(1043,797,o),
(897,1028,o),
(634,1028,c),
(506,1028,o),
(387,959,o),
(296,841,c),
(320,1000,l),
(170,1000,l),
(30,0,l),
(180,0,l),
(254,528,l),
(281,720,o),
(434,883,o),
(610,883,c),
(779,883,o),
(887,729,o),
(860,536,c),
(785,0,l),
(935,0,l),
(1009,532,l)
);
}
);
width = 1104.75;
}
);
unicode = 110;
},
{
glyphname = o;
kernLeft = o;
kernRight = o;
lastChange = "2021-05-18 07:04:12 +0000";
layers = (
{
layerId = "7763577D-A4D2-4749-AE53-49BDF6EC3913";
shapes = (
{
closed = 1;
nodes = (
(770,-26,o),
(1018,202,o),
(1058,483,cs),
(1100,784,o),
(902,1028,o),
(617,1028,cs),
(350,1028,o),
(102,800,o),
(62,517,cs),
(20,218,o),
(218,-26,o),
(503,-26,cs)
);
},
{
closed = 1;
nodes = (
(412,274,o),
(341,364,o),
(358,483,cs),
(376,614,o),
(488,728,o),
(609,728,cs),
(708,728,o),
(779,634,o),
(762,517,cs),
(744,386,o),
(634,274,o),
(511,274,cs)
);
}
);
width = 1120;
},
{
layerId = "DDA43255-513F-4353-BCA4-425ED8D2F935";
shapes = (
{
closed = 1;
nodes = (
(764,-26,o),
(1019,208,o),
(1060,497,cs),
(1101,790,o),
(909,1028,o),
(631,1028,cs),
(357,1028,o),
(101,794,o),
(60,503,cs),
(19,212,o),
(212,-26,o),
(489,-26,cs)
);
},
{
closed = 1;
nodes = (
(253,34,o),
(83,238,o),
(120,497,cs),
(155,750,o),
(377,968,o),
(629,968,cs),
(875,968,o),
(1036,754,o),
(1000,503,cs),
(965,252,o),
(741,34,o),
(491,34,cs)
);
}
);
width = 1120;
},
{
associatedMasterId = "DDA43255-513F-4353-BCA4-425ED8D2F935";
layerId = "48CF6B32-4DFB-4EAF-B1AB-35CDEF4FD1BE";
name = "May 12, 21, 16:35";
shapes = (
{
closed = 1;
nodes = (
(764,-26,o),
(1019,208,o),
(1060,497,cs),
(1101,790,o),
(909,1028,o),
(631,1028,cs),
(357,1028,o),
(101,794,o),
(60,503,cs),
(19,212,o),
(212,-26,o),
(489,-26,cs)
);
},
{
closed = 1;
nodes = (
(253,34,o),
(83,238,o),
(120,497,cs),
(155,750,o),
(377,968,o),
(629,968,cs),
(875,968,o),
(1036,754,o),
(1000,503,cs),
(965,252,o),
(741,34,o),
(491,34,cs)
);
}
);
width = 1120;
},
{
associatedMasterId = "DDA43255-513F-4353-BCA4-425ED8D2F935";
layerId = "078EA1BB-A147-4F64-9E73-24AA0B5A1EC8";
name = "May 12, 21, 16:35";
shapes = (
{
closed = 1;
nodes = (
(764,-26,o),
(1019,208,o),
(1060,497,cs),
(1101,790,o),
(909,1028,o),
(631,1028,cs),
(357,1028,o),
(101,794,o),
(60,503,cs),
(19,212,o),
(212,-26,o),
(489,-26,cs)
);
},
{
closed = 1;
nodes = (
(253,34,o),
(83,238,o),
(120,497,cs),
(155,750,o),
(377,968,o),
(629,968,cs),
(875,968,o),
(1036,754,o),
(1000,503,cs),
(965,252,o),
(741,34,o),
(491,34,cs)
);
}
);
width = 1120;
},
{
layerId = "9333E5AC-F59E-47B3-BDF0-7EA648395594";
shapes = (
{
closed = 1;
nodes = (
(766,-26,o),
(1019,206,o),
(1059,492,cs),
(1101,788,o),
(906,1028,o),
(626,1028,cs),
(354,1028,o),
(101,796,o),
(61,508,cs),
(19,214,o),
(214,-26,o),
(494,-26,cs)
);
},
{
closed = 1;
nodes = (
(313,124,o),
(180,285,o),
(209,492,cs),
(238,699,o),
(419,878,o),
(622,878,cs),
(812,878,o),
(940,709,o),
(911,508,cs),
(882,302,o),
(701,124,o),
(499,124,cs)
);
}
);
width = 1120;
}
);
unicode = 111;
},
{
glyphname = oslash;
kernLeft = o;
kernRight = o;
lastChange = "2021-05-18 07:04:12 +0000";
layers = (
{
layerId = "7763577D-A4D2-4749-AE53-49BDF6EC3913";
shapes = (
{
closed = 1;
nodes = (
(349,1,l),
(391,-15,o),
(440,-26,o),
(503,-26,cs),
(770,-26,o),
(1018,202,o),
(1058,483,cs),
(1079,638,o),
(1036,772,o),
(960,868,c),
(1035,968,l),
(838,1088,l),
(769,1001,l),
(729,1017,o),
(678,1028,o),
(617,1028,cs),
(350,1028,o),
(102,800,o),
(62,517,cs),
(41,364,o),
(84,230,o),
(160,134,c),
(85,34,l),
(283,-86,l)
);
},
{
closed = 1;
nodes = (
(326,404,o),
(327,436,o),
(331,465,cs),
(353,624,o),
(487,762,o),
(622,766,c),
(331,372,l)
);
},
{
closed = 1;
nodes = (
(789,630,l),
(792,598,o),
(793,564,o),
(789,535,cs),
(767,376,o),
(637,240,o),
(499,236,c)
);
}
);
width = 1120;
},
{
layerId = "DDA43255-513F-4353-BCA4-425ED8D2F935";
shapes = (
{
closed = 1;
nodes = (
(263,37,l),
(327,-1,o),
(404,-26,o),
(489,-26,cs),
(764,-26,o),
(1019,208,o),
(1060,497,cs),
(1085,680,o),
(1022,839,o),
(906,935,c),
(965,1014,l),
(915,1044,l),
(858,967,l),
(796,1005,o),
(719,1028,o),
(631,1028,cs),
(357,1028,o),
(101,794,o),
(60,503,cs),
(35,324,o),
(100,165,o),
(217,69,c),
(158,-10,l),
(207,-40,l)
);
},
{
closed = 1;
nodes = (
(151,205,o),
(98,342,o),
(120,497,cs),
(168,844,o),
(555,1081,o),
(824,917,c),
(251,121,l)
);
},
{
closed = 1;
nodes = (
(872,883,l),
(971,797,o),
(1022,658,o),
(1000,503,cs),
(953,164,o),
(577,-81,o),
(297,87,c)
);
}
);
width = 1120;
},
{
layerId = "9333E5AC-F59E-47B3-BDF0-7EA648395594";
shapes = (
{
closed = 1;
nodes = (
(295,24,l),
(351,-6,o),
(418,-26,o),
(494,-26,cs),
(766,-26,o),
(1019,206,o),
(1059,492,cs),
(1083,664,o),
(1027,814,o),
(926,910,c),
(991,997,l),
(886,1061,l),
(825,980,l),
(771,1010,o),
(704,1028,o),
(626,1028,cs),
(354,1028,o),
(101,796,o),
(61,508,cs),
(37,339,o),
(94,189,o),
(196,93,c),
(131,7,l),
(236,-57,l)
);
},
{
closed = 1;
nodes = (
(217,280,o),
(184,377,o),
(199,485,cs),
(237,762,o),
(530,961,o),
(748,860,c),
(281,215,l)
);
},
{
closed = 1;
nodes = (
(841,788,l),
(904,722,o),
(936,623,o),
(921,515,cs),
(883,244,o),
(600,39,o),
(373,143,c)
);
}
);
width = 1120;
}
);
metricLeft = o;
metricRight = o;
unicode = 248;
},
{
glyphname = oe;
kernLeft = o;
kernRight = e;
lastChange = "2021-05-18 07:04:12 +0000";
layers = (
{
layerId = "7763577D-A4D2-4749-AE53-49BDF6EC3913";
shapes = (
{
closed = 1;
nodes = (
(630,-26,o),
(759,26,o),
(869,124,c),
(941,38,o),
(1058,-26,o),
(1203,-26,cs),
(1394,-26,o),
(1578,90,o),
(1683,268,c),
(1380,355,l),
(1338,309,o),
(1278,274,o),
(1211,274,cs),
(1126,276,o),
(1084,322,o),
(1066,394,c),
(1737,394,l),
(1842,714,o),
(1644,1028,o),
(1317,1028,cs),
(1190,1028,o),
(1061,976,o),
(951,878,c),
(879,964,o),
(762,1028,o),
(617,1028,cs),
(350,1028,o),
(102,800,o),
(62,517,cs),
(20,218,o),
(218,-26,o),
(503,-26,cs)
);
},
{
closed = 1;
nodes = (
(412,274,o),
(341,364,o),
(358,483,cs),
(376,614,o),
(488,728,o),
(609,728,cs),
(708,728,o),
(779,634,o),
(762,517,cs),
(744,386,o),
(634,274,o),
(511,274,cs)
);
},
{
closed = 1;
nodes = (
(1131,700,o),
(1220,768,o),
(1314,768,cs),
(1392,768,o),
(1451,716,o),
(1467,630,c),
(1091,614,l)
);
}
);
width = 1820;
},
{
layerId = "DDA43255-513F-4353-BCA4-425ED8D2F935";
shapes = (
{
closed = 1;
nodes = (
(704,-26,o),
(907,116,o),
(1006,320,c),
(1047,120,o),
(1212,-26,o),
(1429,-26,cs),
(1628,-26,o),
(1816,96,o),
(1921,274,c),
(1862,291,l),
(1759,131,o),
(1603,34,o),
(1431,34,cs),
(1203,34,o),
(1040,218,o),
(1055,468,c),
(1994,468,l),
(2034,802,o),
(1859,1028,o),
(1571,1028,cs),
(1357,1028,o),
(1154,886,o),
(1054,680,c),
(1013,882,o),
(849,1028,o),
(631,1028,cs),
(357,1028,o),
(101,794,o),
(60,503,cs),
(19,212,o),
(212,-26,o),
(489,-26,cs)
);
},
{
closed = 1;
nodes = (
(253,34,o),
(83,238,o),
(120,497,cs),
(155,750,o),
(377,968,o),
(629,968,cs),
(875,968,o),
(1036,754,o),
(1000,503,cs),
(965,252,o),
(741,34,o),
(491,34,cs)
);
},
{
closed = 1;
nodes = (
(1114,770,o),
(1329,968,o),
(1569,968,cs),
(1803,968,o),
(1967,766,o),
(1943,532,c),
(1064,528,l)
);
}
);
width = 2058;
},
{
layerId = "9333E5AC-F59E-47B3-BDF0-7EA648395594";
shapes = (
{
closed = 1;
nodes = (
(676,-26,o),
(852,82,o),
(955,247,c),
(1007,89,o),
(1154,-26,o),
(1344,-26,cs),
(1540,-26,o),
(1727,94,o),
(1832,272,c),
(1681,315,l),
(1601,198,o),
(1481,124,o),
(1349,124,cs),
(1174,125,o),
(1057,257,o),
(1059,440,c),
(1898,440,l),
(1962,769,o),
(1778,1028,o),
(1476,1028,cs),
(1294,1028,o),
(1119,920,o),
(1015,754,c),
(963,913,o),
(816,1028,o),
(626,1028,cs),
(354,1028,o),
(101,796,o),
(61,508,cs),
(19,214,o),
(214,-26,o),
(494,-26,cs)
);
},
{
closed = 1;
nodes = (
(313,124,o),
(180,285,o),
(209,492,cs),
(238,699,o),
(419,878,o),
(622,878,cs),
(812,878,o),
(940,709,o),
(911,508,cs),
(882,302,o),
(701,124,o),
(499,124,cs)
);
},
{
closed = 1;
nodes = (
(1120,744,o),
(1288,893,o),
(1473,893,cs),
(1649,893,o),
(1774,747,o),
(1765,569,c),
(1074,560,l)
);
}
);
width = 1968.75;
}
);
metricLeft = o;
metricRight = e;
unicode = 339;
},
{
glyphname = p;
kernLeft = p;
kernRight = o;
lastChange = "2021-05-18 07:04:12 +0000";
layers = (
{
layerId = "7763577D-A4D2-4749-AE53-49BDF6EC3913";
shapes = (
{
closed = 1;
nodes = (
(369,98,l),
(421,28,o),
(498,-28,o),
(615,-28,c),
(898,-28,o),
(1156,200,o),
(1196,483,c),
(1238,782,o),
(1030,1026,o),
(729,1026,c),
(630,1026,o),
(544,982,o),
(472,912,c),
(491,1000,l),
(190,1000,l),
(-21,-500,l),
(280,-500,l)
);
},
{
closed = 1;
nodes = (
(834,738,o),
(911,638,o),
(894,517,c),
(875,376,o),
(750,262,o),
(618,262,c),
(504,262,o),
(426,360,o),
(444,483,c),
(463,622,o),
(588,738,o),
(718,738,c)
);
}
);
width = 1278;
},
{
layerId = "DDA43255-513F-4353-BCA4-425ED8D2F935";
shapes = (
{
closed = 1;
nodes = (
(143,234,l),
(193,78,o),
(321,-28,o),
(517,-28,cs),
(805,-28,o),
(1073,206,o),
(1114,497,cs),
(1155,788,o),
(950,1026,o),
(659,1026,cs),
(466,1026,o),
(311,924,o),
(217,768,c),
(250,1000,l),
(190,1000,l),
(-21,-500,l),
(39,-500,l)
);
},
{
closed = 1;
nodes = (
(913,966,o),
(1090,758,o),
(1054,503,cs),
(1017,238,o),
(771,32,o),
(519,32,cs),
(263,32,o),
(148,242,o),
(184,497,cs),
(220,758,o),
(401,966,o),
(657,966,cs)
);
}
);
width = 1194;
},
{
associatedMasterId = "DDA43255-513F-4353-BCA4-425ED8D2F935";
layerId = "1418EDA3-FF59-4A0E-94EA-90B109FD2E0B";
name = "May 12, 21, 16:35";
shapes = (
{
closed = 1;
nodes = (
(143,234,l),
(193,78,o),
(321,-28,o),
(517,-28,cs),
(805,-28,o),
(1073,206,o),
(1114,497,cs),
(1155,788,o),
(950,1026,o),
(659,1026,cs),
(466,1026,o),
(311,924,o),
(217,768,c),
(250,1000,l),
(190,1000,l),
(-21,-500,l),
(39,-500,l)
);
},
{
closed = 1;
nodes = (
(913,966,o),
(1090,758,o),
(1054,503,cs),
(1017,238,o),
(771,32,o),
(519,32,cs),
(263,32,o),
(148,242,o),
(184,497,cs),
(220,758,o),
(401,966,o),
(657,966,cs)
);
}
);
width = 1194;
},
{
associatedMasterId = "DDA43255-513F-4353-BCA4-425ED8D2F935";
layerId = "2D6864E0-B7A5-433A-B0A4-BC30C46486EE";
name = "May 12, 21, 16:35";
shapes = (
{
closed = 1;
nodes = (
(143,234,l),
(193,78,o),
(321,-28,o),
(517,-28,cs),
(805,-28,o),
(1073,206,o),
(1114,497,cs),
(1155,788,o),
(950,1026,o),
(659,1026,cs),
(466,1026,o),
(311,924,o),
(217,768,c),
(250,1000,l),
(190,1000,l),
(-21,-500,l),
(39,-500,l)
);
},
{
closed = 1;
nodes = (
(913,966,o),
(1090,758,o),
(1054,503,cs),
(1017,238,o),
(771,32,o),
(519,32,cs),
(263,32,o),
(148,242,o),
(184,497,cs),
(220,758,o),
(401,966,o),
(657,966,cs)
);
}
);
width = 1194;
},
{
layerId = "9333E5AC-F59E-47B3-BDF0-7EA648395594";
shapes = (
{
closed = 1;
nodes = (
(228,183,l),
(279,59,o),
(387,-28,o),
(554,-28,cs),
(840,-28,o),
(1104,204,o),
(1145,492,cs),
(1186,786,o),
(980,1026,o),
(685,1026,cs),
(528,1026,o),
(398,946,o),
(313,822,c),
(340,1000,l),
(190,1000,l),
(-21,-500,l),
(129,-500,l)
);
},
{
closed = 1;
nodes = (
(883,881,o),
(1023,713,o),
(994,508,cs),
(964,290,o),
(763,118,o),
(556,118,cs),
(353,118,o),
(252,286,o),
(282,492,cs),
(311,707,o),
(471,881,o),
(680,881,cs)
);
}
);
width = 1225.5;
}
);
unicode = 112;
},
{
glyphname = thorn;
kernLeft = h;
kernRight = o;
lastChange = "2021-05-18 07:04:12 +0000";
layers = (
{
layerId = "7763577D-A4D2-4749-AE53-49BDF6EC3913";
shapes = (
{
closed = 1;
nodes = (
(279,-500,l),
(369,98,l),
(421,28,o),
(498,-28,o),
(615,-28,cs),
(898,-28,o),
(1156,200,o),
(1196,483,cs),
(1238,782,o),
(1030,1026,o),
(729,1026,cs),
(630,1026,o),
(544,982,o),
(472,912,c),
(547,1400,l),
(246,1400,l),
(-21,-500,l)
);
},
{
closed = 1;
nodes = (
(504,262,o),
(426,360,o),
(444,483,cs),
(463,622,o),
(588,738,o),
(718,738,cs),
(834,738,o),
(911,638,o),
(894,517,cs),
(875,376,o),
(750,262,o),
(618,262,cs)
);
}
);
width = 1278;
},
{
layerId = "DDA43255-513F-4353-BCA4-425ED8D2F935";
shapes = (
{
closed = 1;
nodes = (
(39,-500,l),
(143,234,l),
(193,78,o),
(321,-28,o),
(517,-28,cs),
(805,-28,o),
(1073,206,o),
(1114,497,cs),
(1155,788,o),
(950,1026,o),
(659,1026,cs),
(466,1026,o),
(311,924,o),
(217,768,c),
(306,1400,l),
(246,1400,l),
(-21,-500,l)
);
},
{
closed = 1;
nodes = (
(263,32,o),
(148,242,o),
(184,497,cs),
(220,758,o),
(401,966,o),
(657,966,cs),
(913,966,o),
(1090,758,o),
(1054,503,cs),
(1017,238,o),
(771,32,o),
(519,32,cs)
);
}
);
width = 1194;
},
{
layerId = "9333E5AC-F59E-47B3-BDF0-7EA648395594";
shapes = (
{
closed = 1;
nodes = (
(129,-500,l),
(228,183,l),
(279,59,o),
(387,-28,o),
(554,-28,cs),
(840,-28,o),
(1104,204,o),
(1145,492,cs),
(1186,786,o),
(980,1026,o),
(685,1026,cs),
(528,1026,o),
(398,946,o),
(313,822,c),
(396,1400,l),
(246,1400,l),
(-21,-500,l)
);
},
{
closed = 1;
nodes = (
(353,118,o),
(252,286,o),
(282,492,cs),
(311,707,o),
(471,881,o),
(680,881,cs),
(883,881,o),
(1023,713,o),
(994,508,cs),
(964,290,o),
(763,118,o),
(556,118,cs)
);
}
);
width = 1225.5;
}
);
metricRight = p;
unicode = 254;
},
{
glyphname = q;
kernLeft = o;
kernRight = q;
lastChange = "2021-05-18 07:04:12 +0000";
layers = (
{
layerId = "7763577D-A4D2-4749-AE53-49BDF6EC3913";
shapes = (
{
closed = 1;
nodes = (
(648,-28,o),
(733,16,o),
(805,86,c),
(717,-500,l),
(1017,-500,l),
(1228,1000,l),
(928,1000,l),
(909,900,l),
(856,970,o),
(780,1026,o),
(663,1026,c),
(382,1026,o),
(122,798,o),
(82,517,c),
(40,216,o),
(250,-28,o),
(549,-28,c)
);
},
{
closed = 1;
nodes = (
(776,738,o),
(851,638,o),
(834,517,c),
(815,376,o),
(692,262,o),
(560,262,c),
(444,262,o),
(368,360,o),
(386,483,c),
(405,622,o),
(528,738,o),
(660,738,c)
);
}
);
width = 1278;
},
{
layerId = "DDA43255-513F-4353-BCA4-425ED8D2F935";
shapes = (
{
closed = 1;
nodes = (
(727,-28,o),
(883,74,o),
(977,230,c),
(873,-500,l),
(933,-500,l),
(1144,1000,l),
(1084,1000,l),
(1050,764,l),
(1000,920,o),
(872,1026,o),
(677,1026,c),
(388,1026,o),
(121,792,o),
(80,503,c),
(39,210,o),
(243,-28,o),
(535,-28,c)
);
},
{
closed = 1;
nodes = (
(927,966,o),
(1047,762,o),
(1010,503,c),
(974,246,o),
(797,32,o),
(537,32,c),
(289,32,o),
(103,234,o),
(140,497,c),
(176,754,o),
(415,966,o),
(675,966,c)
);
}
);
width = 1194;
},
{
associatedMasterId = "DDA43255-513F-4353-BCA4-425ED8D2F935";
layerId = "2182BA62-C416-4258-B5D5-9535444FE73A";
name = "May 12, 21, 16:35";
shapes = (
{
closed = 1;
nodes = (
(727,-28,o),
(883,74,o),
(977,230,c),
(873,-500,l),
(933,-500,l),
(1144,1000,l),
(1084,1000,l),
(1050,764,l),
(1000,920,o),
(872,1026,o),
(677,1026,c),
(388,1026,o),
(121,792,o),
(80,503,c),
(39,210,o),
(243,-28,o),
(535,-28,c)
);
},
{
closed = 1;
nodes = (
(927,966,o),
(1047,762,o),
(1010,503,c),
(974,246,o),
(797,32,o),
(537,32,c),
(289,32,o),
(103,234,o),
(140,497,c),
(176,754,o),
(415,966,o),
(675,966,c)
);
}
);
width = 1194;
},
{
associatedMasterId = "DDA43255-513F-4353-BCA4-425ED8D2F935";
layerId = "7B31BD66-F9F4-45B3-BEB2-5FA9957BEEBA";
name = "May 12, 21, 16:35";
shapes = (
{
closed = 1;
nodes = (
(727,-28,o),
(883,74,o),
(977,230,c),
(873,-500,l),
(933,-500,l),
(1144,1000,l),
(1084,1000,l),
(1050,764,l),
(1000,920,o),
(872,1026,o),
(677,1026,c),
(388,1026,o),
(121,792,o),
(80,503,c),
(39,210,o),
(243,-28,o),
(535,-28,c)
);
},
{
closed = 1;
nodes = (
(927,966,o),
(1047,762,o),
(1010,503,c),
(974,246,o),
(797,32,o),
(537,32,c),
(289,32,o),
(103,234,o),
(140,497,c),
(176,754,o),
(415,966,o),
(675,966,c)
);
}
);
width = 1194;
},
{
layerId = "9333E5AC-F59E-47B3-BDF0-7EA648395594";
shapes = (
{
closed = 1;
nodes = (
(697,-28,o),
(827,52,o),
(913,176,c),
(815,-500,l),
(965,-500,l),
(1176,1000,l),
(1026,1000,l),
(997,815,l),
(946,939,o),
(838,1026,o),
(672,1026,c),
(386,1026,o),
(121,794,o),
(81,508,c),
(39,212,o),
(246,-28,o),
(540,-28,c)
);
},
{
closed = 1;
nodes = (
(870,881,o),
(974,716,o),
(944,508,c),
(914,295,o),
(758,118,o),
(546,118,c),
(347,118,o),
(202,281,o),
(232,492,c),
(262,705,o),
(457,881,o),
(669,881,c)
);
}
);
width = 1225.5;
}
);
unicode = 113;
},
{
glyphname = r;
kernLeft = n;
kernRight = r;
lastChange = "2021-05-18 07:04:12 +0000";
layers = (
{
layerId = "7763577D-A4D2-4749-AE53-49BDF6EC3913";
shapes = (
{
closed = 1;
nodes = (
(867,1012,l),
(828,1024,o),
(784,1026,o),
(729,1026,cs),
(630,1026,o),
(545,984,o),
(473,914,c),
(491,998,l),
(190,998,l),
(50,0,l),
(352,0,l),
(421,492,ls),
(439,624,o),
(530,738,o),
(668,738,cs),
(714,738,o),
(756,725,o),
(788,697,c)
);
}
);
width = 832;
},
{
layerId = "DDA43255-513F-4353-BCA4-425ED8D2F935";
shapes = (
{
closed = 1;
nodes = (
(722,1009,l),
(690,1021,o),
(653,1028,o),
(611,1028,c),
(465,1028,o),
(324,943,o),
(221,797,c),
(250,1000,l),
(190,1000,l),
(50,0,l),
(110,0,l),
(187,548,l),
(219,778,o),
(409,968,o),
(609,968,c),
(643,968,o),
(677,963,o),
(707,951,c)
);
}
);
width = 682;
},
{
associatedMasterId = "DDA43255-513F-4353-BCA4-425ED8D2F935";
layerId = "69031A53-DC2B-4DC8-9E0B-446F87D784C0";
name = "May 12, 21, 16:35";
shapes = (
{
closed = 1;
nodes = (
(722,1009,l),
(690,1021,o),
(653,1028,o),
(611,1028,c),
(465,1028,o),
(324,943,o),
(221,797,c),
(250,1000,l),
(190,1000,l),
(50,0,l),
(110,0,l),
(187,548,l),
(219,778,o),
(409,968,o),
(609,968,c),
(643,968,o),
(677,963,o),
(707,951,c)
);
}
);
width = 682;
},
{
associatedMasterId = "DDA43255-513F-4353-BCA4-425ED8D2F935";
layerId = "0C159351-978A-447F-88DB-451CF7453F36";
name = "May 12, 21, 16:35";
shapes = (
{
closed = 1;
nodes = (
(722,1009,l),
(690,1021,o),
(653,1028,o),
(611,1028,c),
(465,1028,o),
(324,943,o),
(221,797,c),
(250,1000,l),
(190,1000,l),
(50,0,l),
(110,0,l),
(187,548,l),
(219,778,o),
(409,968,o),
(609,968,c),
(643,968,o),
(677,963,o),
(707,951,c)
);
}
);
width = 682;
},
{
layerId = "9333E5AC-F59E-47B3-BDF0-7EA648395594";
shapes = (
{
closed = 1;
nodes = (
(776,1010,l),
(742,1022,o),
(702,1027,o),
(655,1027,c),
(527,1027,o),
(407,958,o),
(316,841,c),
(340,999,l),
(190,999,l),
(50,0,l),
(201,0,l),
(275,527,l),
(302,720,o),
(454,882,o),
(631,882,c),
(670,882,o),
(707,874,o),
(737,856,c)
);
}
);
width = 738.25;
}
);
unicode = 114;
},
{
glyphname = s;
kernLeft = s;
kernRight = s;
lastChange = "2021-05-18 07:04:12 +0000";
layers = (
{
layerId = "7763577D-A4D2-4749-AE53-49BDF6EC3913";
shapes = (
{
closed = 1;
nodes = (
(563,-37,o),
(777,94,o),
(804,285,cs),
(835,466,o),
(681,575,o),
(508,628,cs),
(475,644,o),
(378,642,o),
(385,691,cs),
(395,762,o),
(459,787,o),
(536,782,cs),
(579,775,o),
(614,745,o),
(633,715,c),
(879,841,l),
(808,961,o),
(677,1034,o),
(512,1034,cs),
(323,1034,o),
(136,914,o),
(108,717,cs),
(81,524,o),
(250,401,o),
(433,375,cs),
(473,366,o),
(539,362,o),
(532,315,cs),
(524,256,o),
(458,234,o),
(398,234,cs),
(328,234,o),
(295,276,o),
(278,298,c),
(21,203,l),
(68,73,o),
(204,-3,o),
(362,-16,cs)
);
}
);
width = 894;
},
{
layerId = "DDA43255-513F-4353-BCA4-425ED8D2F935";
shapes = (
{
closed = 1;
nodes = (
(565,-20,o),
(750,86,o),
(774,255,c),
(797,422,o),
(633,477,o),
(452,537,cs),
(272,597,o),
(166,616,o),
(186,753,c),
(205,888,o),
(360,974,o),
(520,974,c),
(644,974,o),
(777,914,o),
(804,808,c),
(859,834,l),
(827,950,o),
(689,1034,o),
(522,1034,c),
(335,1034,o),
(150,928,o),
(126,759,c),
(103,592,o),
(229,551,o),
(450,479,cs),
(590,433,o),
(733,396,o),
(714,261,c),
(696,130,o),
(540,40,o),
(382,40,c),
(258,40,o),
(99,110,o),
(76,218,c),
(18,198,l),
(43,78,o),
(207,-20,o),
(380,-20,c)
);
}
);
width = 872;
},
{
associatedMasterId = "DDA43255-513F-4353-BCA4-425ED8D2F935";
layerId = "134EF1CA-C089-4E65-8B01-68F6F6745B8D";
name = "May 12, 21, 16:35";
shapes = (
{
closed = 1;
nodes = (
(565,-20,o),
(750,86,o),
(774,255,c),
(797,422,o),
(633,477,o),
(452,537,cs),
(272,597,o),
(166,616,o),
(186,753,c),
(205,888,o),
(360,974,o),
(520,974,c),
(644,974,o),
(777,914,o),
(804,808,c),
(859,834,l),
(827,950,o),
(689,1034,o),
(522,1034,c),
(335,1034,o),
(150,928,o),
(126,759,c),
(103,592,o),
(229,551,o),
(450,479,cs),
(590,433,o),
(733,396,o),
(714,261,c),
(696,130,o),
(540,40,o),
(382,40,c),
(258,40,o),
(99,110,o),
(76,218,c),
(18,198,l),
(43,78,o),
(207,-20,o),
(380,-20,c)
);
}
);
width = 872;
},
{
associatedMasterId = "DDA43255-513F-4353-BCA4-425ED8D2F935";
layerId = "CEB4E2D8-2EC1-4C93-9CC6-71251A46A1A5";
name = "May 12, 21, 16:35";
shapes = (
{
closed = 1;
nodes = (
(565,-20,o),
(750,86,o),
(774,255,c),
(797,422,o),
(633,477,o),
(452,537,cs),
(272,597,o),
(166,616,o),
(186,753,c),
(205,888,o),
(360,974,o),
(520,974,c),
(644,974,o),
(777,914,o),
(804,808,c),
(859,834,l),
(827,950,o),
(689,1034,o),
(522,1034,c),
(335,1034,o),
(150,928,o),
(126,759,c),
(103,592,o),
(229,551,o),
(450,479,cs),
(590,433,o),
(733,396,o),
(714,261,c),
(696,130,o),
(540,40,o),
(382,40,c),
(258,40,o),
(99,110,o),
(76,218,c),
(18,198,l),
(43,78,o),
(207,-20,o),
(380,-20,c)
);
}
);
width = 872;
},
{
layerId = "9333E5AC-F59E-47B3-BDF0-7EA648395594";
shapes = (
{
closed = 1;
nodes = (
(564,-26,o),
(760,89,o),
(785,266,c),
(811,439,o),
(651,514,o),
(473,571,cs),
(348,615,o),
(246,626,o),
(261,730,c),
(276,841,o),
(397,904,o),
(526,902,c),
(620,899,o),
(716,851,o),
(740,773,c),
(867,837,l),
(820,954,o),
(685,1034,o),
(518,1034,c),
(331,1034,o),
(145,923,o),
(119,743,c),
(95,567,o),
(237,495,o),
(444,440,cs),
(546,408,o),
(660,383,o),
(646,281,c),
(632,177,o),
(509,113,o),
(388,113,c),
(284,113,o),
(173,172,o),
(152,248,c),
(19,200,l),
(52,76,o),
(206,-14,o),
(373,-19,c)
);
}
);
width = 880.25;
}
);
unicode = 115;
},
{
glyphname = germandbls;
kernLeft = h;
kernRight = B;
lastChange = "2021-05-18 07:04:12 +0000";
layers = (
{
layerId = "7763577D-A4D2-4749-AE53-49BDF6EC3913";
shapes = (
{
closed = 1;
nodes = (
(350,0,l),
(482,942,ls),
(497,1050,o),
(605,1144,o),
(721,1144,cs),
(793,1144,o),
(842,1084,o),
(832,1011,cs),
(819,920,o),
(736,859,o),
(654,845,cs),
(637,840,l),
(604,598,l),
(694,594,ls),
(797,588,o),
(863,524,o),
(852,441,cs),
(838,340,o),
(733,254,o),
(629,254,cs),
(557,254,l),
(561,0,l),
(642,0,ls),
(874,0,o),
(1078,162,o),
(1110,385,cs),
(1128,518,o),
(1129,709,o),
(962,730,c),
(1081,779,o),
(1116,898,o),
(1127,977,cs),
(1161,1220,o),
(998,1400,o),
(760,1400,cs),
(474,1400,o),
(214,1170,o),
(173,878,cs),
(50,0,l)
);
}
);
width = 1186;
},
{
layerId = "DDA43255-513F-4353-BCA4-425ED8D2F935";
shapes = (
{
closed = 1;
nodes = (
(110,0,l),
(249,992,ls),
(276,1182,o),
(453,1338,o),
(645,1338,cs),
(801,1338,o),
(911,1202,o),
(887,1033,cs),
(863,862,o),
(712,722,o),
(554,722,cs),
(527,722,l),
(519,662,l),
(614,662,ls),
(780,662,o),
(894,530,o),
(871,365,cs),
(848,198,o),
(692,60,o),
(526,60,cs),
(435,60,l),
(446,0,l),
(521,0,ls),
(719,0,o),
(902,160,o),
(930,359,cs),
(953,524,o),
(863,664,o),
(721,707,c),
(837,769,o),
(927,890,o),
(946,1027,cs),
(975,1230,o),
(841,1398,o),
(647,1398,cs),
(425,1398,o),
(221,1218,o),
(190,996,cs),
(50,0,l)
);
}
);
width = 1010;
},
{
layerId = "9333E5AC-F59E-47B3-BDF0-7EA648395594";
shapes = (
{
closed = 1;
nodes = (
(200,0,l),
(336,973,ls),
(359,1133,o),
(510,1265,o),
(674,1265,cs),
(798,1265,o),
(885,1158,o),
(866,1025,cs),
(847,884,o),
(721,773,o),
(592,768,cs),
(568,766,l),
(551,638,l),
(644,637,ls),
(786,634,o),
(882,528,o),
(864,394,cs),
(844,251,o),
(707,133,o),
(565,133,cs),
(481,133,l),
(489,0,l),
(566,0,ls),
(777,0,o),
(968,161,o),
(998,369,cs),
(1019,522,o),
(963,681,o),
(811,716,c),
(929,773,o),
(998,893,o),
(1014,1008,cs),
(1045,1226,o),
(900,1399,o),
(689,1399,cs),
(443,1399,o),
(218,1200,o),
(184,952,cs),
(50,0,l)
);
}
);
width = 1076;
}
);
unicode = 223;
},
{
glyphname = t;
kernLeft = t;
kernRight = t;
lastChange = "2021-05-18 07:04:12 +0000";
layers = (
{
layerId = "7763577D-A4D2-4749-AE53-49BDF6EC3913";
shapes = (
{
closed = 1;
nodes = (
(740,1000,l),
(570,1000,l),
(614,1314,l),
(314,1314,l),
(270,1000,l),
(140,1000,l),
(98,700,l),
(228,700,l),
(130,0,l),
(430,0,l),
(528,700,l),
(698,700,l)
);
}
);
width = 730;
},
{
layerId = "DDA43255-513F-4353-BCA4-425ED8D2F935";
shapes = (
{
closed = 1;
nodes = (
(683,1000,l),
(409,1000,l),
(461,1384,l),
(401,1384,l),
(349,1000,l),
(143,1000,l),
(135,940,l),
(341,940,l),
(206,0,l),
(266,0,l),
(401,940,l),
(675,940,l)
);
}
);
width = 670;
},
{
associatedMasterId = "DDA43255-513F-4353-BCA4-425ED8D2F935";
layerId = "66483370-E385-46F2-9A74-F92F67B59111";
name = "May 12, 21, 16:35";
shapes = (
{
closed = 1;
nodes = (
(683,1000,l),
(409,1000,l),
(461,1384,l),
(401,1384,l),
(349,1000,l),
(143,1000,l),
(135,940,l),
(341,940,l),
(206,0,l),
(266,0,l),
(401,940,l),
(675,940,l)
);
}
);
width = 670;
},
{
associatedMasterId = "DDA43255-513F-4353-BCA4-425ED8D2F935";
layerId = "E31EAFF2-1959-4292-8F9A-A95AB6568318";
name = "May 12, 21, 16:35";
shapes = (
{
closed = 1;
nodes = (
(683,1000,l),
(409,1000,l),
(461,1384,l),
(401,1384,l),
(349,1000,l),
(143,1000,l),
(135,940,l),
(341,940,l),
(206,0,l),
(266,0,l),
(401,940,l),
(675,940,l)
);
}
);
width = 670;
},
{
layerId = "9333E5AC-F59E-47B3-BDF0-7EA648395594";
shapes = (
{
closed = 1;
nodes = (
(704,1000,l),
(469,1000,l),
(518,1358,l),
(368,1358,l),
(319,1000,l),
(142,1000,l),
(121,850,l),
(299,850,l),
(178,0,l),
(328,0,l),
(449,850,l),
(684,850,l)
);
}
);
width = 692.5;
}
);
unicode = 116;
},
{
glyphname = u;
kernLeft = u;
kernRight = u;
lastChange = "2021-05-18 07:04:12 +0000";
layers = (
{
layerId = "7763577D-A4D2-4749-AE53-49BDF6EC3913";
shapes = (
{
closed = 1;
nodes = (
(82,214,o),
(230,-28,o),
(527,-28,c),
(626,-28,o),
(711,16,o),
(783,86,c),
(765,0,l),
(1066,0,l),
(1206,1000,l),
(906,1000,l),
(837,508,l),
(819,376,o),
(726,262,o),
(588,262,c),
(464,262,o),
(400,360,o),
(419,492,c),
(490,1000,l),
(190,1000,l),
(121,504,l)
);
}
);
width = 1256;
},
{
layerId = "DDA43255-513F-4353-BCA4-425ED8D2F935";
shapes = (
{
closed = 1;
nodes = (
(82,198,o),
(228,-26,o),
(469,-26,c),
(616,-26,o),
(755,59,o),
(857,205,c),
(828,0,l),
(888,0,l),
(1028,1000,l),
(968,1000,l),
(891,454,l),
(859,224,o),
(669,34,o),
(471,34,c),
(275,34,o),
(141,220,o),
(173,450,c),
(250,1000,l),
(190,1000,l),
(113,450,l)
);
}
);
width = 1078;
},
{
associatedMasterId = "DDA43255-513F-4353-BCA4-425ED8D2F935";
layerId = "CBE216AE-02ED-495B-9588-A0FDABA1F799";
name = "May 12, 21, 16:35";
shapes = (
{
closed = 1;
nodes = (
(82,198,o),
(228,-26,o),
(469,-26,c),
(616,-26,o),
(755,59,o),
(857,205,c),
(828,0,l),
(888,0,l),
(1028,1000,l),
(968,1000,l),
(891,454,l),
(859,224,o),
(669,34,o),
(471,34,c),
(275,34,o),
(141,220,o),
(173,450,c),
(250,1000,l),
(190,1000,l),
(113,450,l)
);
}
);
width = 1078;
},
{
associatedMasterId = "DDA43255-513F-4353-BCA4-425ED8D2F935";
layerId = "25F13841-64CB-4518-AB08-6A129CE9349A";
name = "May 12, 21, 16:35";
shapes = (
{
closed = 1;
nodes = (
(82,198,o),
(228,-26,o),
(469,-26,c),
(616,-26,o),
(755,59,o),
(857,205,c),
(828,0,l),
(888,0,l),
(1028,1000,l),
(968,1000,l),
(891,454,l),
(859,224,o),
(669,34,o),
(471,34,c),
(275,34,o),
(141,220,o),
(173,450,c),
(250,1000,l),
(190,1000,l),
(113,450,l)
);
}
);
width = 1078;
},
{
layerId = "9333E5AC-F59E-47B3-BDF0-7EA648395594";
shapes = (
{
closed = 1;
nodes = (
(82,204,o),
(229,-27,o),
(491,-27,c),
(620,-27,o),
(739,43,o),
(829,160,c),
(804,0,l),
(955,0,l),
(1095,1000,l),
(945,1000,l),
(871,474,l),
(844,281,o),
(690,120,o),
(515,120,c),
(346,120,o),
(238,273,o),
(265,466,c),
(340,1000,l),
(190,1000,l),
(116,470,l)
);
}
);
width = 1144.75;
}
);
unicode = 117;
},
{
glyphname = v;
kernLeft = w;
kernRight = w;
lastChange = "2021-05-18 07:04:12 +0000";
layers = (
{
layerId = "7763577D-A4D2-4749-AE53-49BDF6EC3913";
shapes = (
{
closed = 1;
nodes = (
(1249,1000,l),
(924,1000,l),
(591,344,l),
(448,1000,l),
(133,1000,l),
(356,0,l),
(744,0,l)
);
}
);
width = 1236;
},
{
layerId = "DDA43255-513F-4353-BCA4-425ED8D2F935";
shapes = (
{
closed = 1;
nodes = (
(935,1004,l),
(870,1004,l),
(401,74,l),
(194,1004,l),
(131,1004,l),
(356,0,l),
(428,0,l)
);
}
);
width = 924;
},
{
associatedMasterId = "DDA43255-513F-4353-BCA4-425ED8D2F935";
layerId = "D98A307E-4957-42AD-82C9-4FA04A7EB488";
name = "May 12, 21, 16:35";
shapes = (
{
closed = 1;
nodes = (
(935,1004,l),
(870,1004,l),
(401,74,l),
(194,1004,l),
(131,1004,l),
(356,0,l),
(428,0,l)
);
}
);
width = 924;
},
{
associatedMasterId = "DDA43255-513F-4353-BCA4-425ED8D2F935";
layerId = "9ECC0443-5B3A-4505-95FD-E8694E9DFE91";
name = "May 12, 21, 16:35";
shapes = (
{
closed = 1;
nodes = (
(935,1004,l),
(870,1004,l),
(401,74,l),
(194,1004,l),
(131,1004,l),
(356,0,l),
(428,0,l)
);
}
);
width = 924;
},
{
layerId = "9333E5AC-F59E-47B3-BDF0-7EA648395594";
shapes = (
{
closed = 1;
nodes = (
(1053,1003,l),
(890,1003,l),
(472,175,l),
(289,1003,l),
(132,1003,l),
(356,0,l),
(547,0,l)
);
}
);
width = 1041;
}
);
unicode = 118;
},
{
glyphname = w;
kernLeft = w;
kernRight = w;
lastChange = "2021-05-18 07:04:12 +0000";
layers = (
{
layerId = "7763577D-A4D2-4749-AE53-49BDF6EC3913";
shapes = (
{
closed = 1;
nodes = (
(887,562,l),
(992,0,l),
(1286,0,l),
(1761,1000,l),
(1462,1000,l),
(1193,438,l),
(1088,1000,l),
(796,1000,l),
(529,438,l),
(422,1000,l),
(133,1000,l),
(326,0,l),
(620,0,l)
);
}
);
width = 1748;
},
{
layerId = "DDA43255-513F-4353-BCA4-425ED8D2F935";
shapes = (
{
closed = 1;
nodes = (
(843,940,l),
(1028,0,l),
(1098,0,l),
(1575,1002,l),
(1514,1002,l),
(1071,72,l),
(890,1002,l),
(814,1002,l),
(371,72,l),
(188,1002,l),
(131,1002,l),
(326,0,l),
(394,0,l)
);
}
);
width = 1564;
},
{
associatedMasterId = "DDA43255-513F-4353-BCA4-425ED8D2F935";
layerId = "1E911646-EDDA-49F3-9B08-45270C75F393";
name = "May 12, 21, 16:35";
shapes = (
{
closed = 1;
nodes = (
(843,940,l),
(1028,0,l),
(1098,0,l),
(1575,1002,l),
(1514,1002,l),
(1071,72,l),
(890,1002,l),
(814,1002,l),
(371,72,l),
(188,1002,l),
(131,1002,l),
(326,0,l),
(394,0,l)
);
}
);
width = 1564;
},
{
associatedMasterId = "DDA43255-513F-4353-BCA4-425ED8D2F935";
layerId = "B3F07C5B-76A4-4FF5-8C1E-6D4C8602379D";
name = "May 12, 21, 16:35";
shapes = (
{
closed = 1;
nodes = (
(843,940,l),
(1028,0,l),
(1098,0,l),
(1575,1002,l),
(1514,1002,l),
(1071,72,l),
(890,1002,l),
(814,1002,l),
(371,72,l),
(188,1002,l),
(131,1002,l),
(326,0,l),
(394,0,l)
);
}
);
width = 1564;
},
{
layerId = "9333E5AC-F59E-47B3-BDF0-7EA648395594";
shapes = (
{
closed = 1;
nodes = (
(860,798,l),
(1015,0,l),
(1169,0,l),
(1645,1001,l),
(1495,1001,l),
(1117,209,l),
(964,1001,l),
(807,1001,l),
(430,209,l),
(276,1001,l),
(132,1001,l),
(326,0,l),
(479,0,l)
);
}
);
width = 1633;
}
);
unicode = 119;
},
{
glyphname = x;
kernLeft = x;
kernRight = x;
lastChange = "2021-05-18 07:04:12 +0000";
layers = (
{
layerId = "7763577D-A4D2-4749-AE53-49BDF6EC3913";
shapes = (
{
closed = 1;
nodes = (
(383,0,l),
(601,248,l),
(745,0,l),
(1109,0,l),
(816,502,l),
(1251,1000,l),
(875,1000,l),
(660,758,l),
(521,1000,l),
(157,1000,l),
(446,502,l),
(7,0,l)
);
}
);
width = 1262;
},
{
layerId = "DDA43255-513F-4353-BCA4-425ED8D2F935";
shapes = (
{
closed = 1;
nodes = (
(84,0,l),
(479,452,l),
(742,0,l),
(815,0,l),
(520,502,l),
(957,1004,l),
(882,1004,l),
(490,554,l),
(224,1004,l),
(151,1004,l),
(446,502,l),
(9,0,l)
);
}
);
width = 966;
},
{
associatedMasterId = "DDA43255-513F-4353-BCA4-425ED8D2F935";
layerId = "B2AA6CED-0521-43A2-BE2C-2E83E19986AF";
name = "May 12, 21, 16:35";
shapes = (
{
closed = 1;
nodes = (
(84,0,l),
(479,452,l),
(742,0,l),
(815,0,l),
(520,502,l),
(957,1004,l),
(882,1004,l),
(490,554,l),
(224,1004,l),
(151,1004,l),
(446,502,l),
(9,0,l)
);
}
);
width = 966;
},
{
associatedMasterId = "DDA43255-513F-4353-BCA4-425ED8D2F935";
layerId = "BE1E7A03-983F-4771-BC61-346FB9A1465B";
name = "May 12, 21, 16:35";
shapes = (
{
closed = 1;
nodes = (
(84,0,l),
(479,452,l),
(742,0,l),
(815,0,l),
(520,502,l),
(957,1004,l),
(882,1004,l),
(490,554,l),
(224,1004,l),
(151,1004,l),
(446,502,l),
(9,0,l)
);
}
);
width = 966;
},
{
layerId = "9333E5AC-F59E-47B3-BDF0-7EA648395594";
shapes = (
{
closed = 1;
nodes = (
(196,0,l),
(525,376,l),
(743,0,l),
(925,0,l),
(631,502,l),
(1067,1003,l),
(879,1003,l),
(554,631,l),
(335,1003,l),
(153,1003,l),
(446,502,l),
(8,0,l)
);
}
);
width = 1077;
}
);
unicode = 120;
},
{
glyphname = y;
kernLeft = y;
kernRight = y;
lastChange = "2021-05-18 07:04:12 +0000";
layers = (
{
layerId = "7763577D-A4D2-4749-AE53-49BDF6EC3913";
shapes = (
{
closed = 1;
nodes = (
(573,410,l),
(476,1000,l),
(153,1000,l),
(370,0,l),
(117,-500,l),
(440,-500,l),
(1199,1000,l),
(874,1000,l)
);
}
);
width = 1206;
},
{
layerId = "DDA43255-513F-4353-BCA4-425ED8D2F935";
shapes = (
{
closed = 1;
nodes = (
(409,84,l),
(216,1000,l),
(151,1000,l),
(368,2,l),
(115,-500,l),
(180,-500,l),
(937,1000,l),
(874,1000,l)
);
}
);
width = 946;
},
{
associatedMasterId = "DDA43255-513F-4353-BCA4-425ED8D2F935";
layerId = "BD34D1DD-E71E-48C1-87B4-66F85A029816";
name = "May 12, 21, 16:35";
shapes = (
{
closed = 1;
nodes = (
(409,84,l),
(216,1000,l),
(151,1000,l),
(368,2,l),
(115,-500,l),
(180,-500,l),
(937,1000,l),
(874,1000,l)
);
}
);
width = 946;
},
{
associatedMasterId = "DDA43255-513F-4353-BCA4-425ED8D2F935";
layerId = "CC7EB0FD-AC72-4508-BDFF-00A7ED7259E2";
name = "May 12, 21, 16:35";
shapes = (
{
closed = 1;
nodes = (
(409,84,l),
(216,1000,l),
(151,1000,l),
(368,2,l),
(115,-500,l),
(180,-500,l),
(937,1000,l),
(874,1000,l)
);
}
);
width = 946;
},
{
layerId = "9333E5AC-F59E-47B3-BDF0-7EA648395594";
shapes = (
{
closed = 1;
nodes = (
(471,206,l),
(314,1000,l),
(152,1000,l),
(369,1,l),
(116,-500,l),
(278,-500,l),
(1035,1000,l),
(874,1000,l)
);
}
);
width = 1043.5;
}
);
unicode = 121;
},
{
glyphname = z;
kernLeft = z;
kernRight = z;
lastChange = "2021-05-18 07:04:12 +0000";
layers = (
{
background = {
shapes = (
{
closed = 1;
nodes = (
(974,1000,l),
(120,1000,l),
(120,700,l),
(540,700,l),
(120,300,l),
(120,0,l),
(974,0,l),
(974,300,l),
(554,300,l),
(974,700,l)
);
}
);
};
layerId = "7763577D-A4D2-4749-AE53-49BDF6EC3913";
shapes = (
{
closed = 1;
nodes = (
(1044,1000,l),
(190,1000,l),
(148,700,l),
(565,700,l),
(89,300,l),
(50,0,l),
(904,0,l),
(946,300,l),
(529,300,l),
(1005,700,l)
);
}
);
width = 1094;
},
{
layerId = "DDA43255-513F-4353-BCA4-425ED8D2F935";
shapes = (
{
closed = 1;
nodes = (
(1024,1000,l),
(170,1000,l),
(162,940,l),
(935,940,l),
(38,60,l),
(30,0,l),
(884,0,l),
(892,60,l),
(119,60,l),
(1016,940,l)
);
}
);
width = 1054;
},
{
associatedMasterId = "DDA43255-513F-4353-BCA4-425ED8D2F935";
layerId = "41FF1FDE-4B0D-469F-8741-A19A05B2D21A";
name = "May 12, 21, 16:35";
shapes = (
{
closed = 1;
nodes = (
(1024,1000,l),
(170,1000,l),
(162,940,l),
(935,940,l),
(38,60,l),
(30,0,l),
(884,0,l),
(892,60,l),
(119,60,l),
(1016,940,l)
);
}
);
width = 1054;
},
{
associatedMasterId = "DDA43255-513F-4353-BCA4-425ED8D2F935";
layerId = "A0BF5EC2-E385-4062-89A1-738B1FA8036C";
name = "May 12, 21, 16:35";
shapes = (
{
closed = 1;
nodes = (
(1024,1000,l),
(170,1000,l),
(162,940,l),
(935,940,l),
(38,60,l),
(30,0,l),
(884,0,l),
(892,60,l),
(119,60,l),
(1016,940,l)
);
}
);
width = 1054;
},
{
layerId = "9333E5AC-F59E-47B3-BDF0-7EA648395594";
shapes = (
{
closed = 1;
nodes = (
(1032,1000,l),
(178,1000,l),
(157,850,l),
(796,850,l),
(57,150,l),
(38,0,l),
(892,0,l),
(912,150,l),
(273,150,l),
(1012,850,l)
);
}
);
width = 1069;
}
);
unicode = 122;
},
{
glyphname = mu;
kernLeft = p;
kernRight = u;
lastChange = "2021-05-18 07:04:12 +0000";
layers = (
{
layerId = "7763577D-A4D2-4749-AE53-49BDF6EC3913";
shapes = (
{
closed = 1;
nodes = (
(249,-432,l),
(318,3,l),
(365,-15,o),
(418,-28,o),
(487,-28,cs),
(586,-28,o),
(671,16,o),
(743,86,c),
(725,0,l),
(1026,0,l),
(1166,1000,l),
(866,1000,l),
(797,508,ls),
(779,376,o),
(686,262,o),
(548,262,cs),
(424,262,o),
(360,360,o),
(379,492,cs),
(450,1000,l),
(150,1000,l),
(-51,-432,l)
);
}
);
width = 1176;
},
{
layerId = "DDA43255-513F-4353-BCA4-425ED8D2F935";
shapes = (
{
closed = 1;
nodes = (
(9,-432,l),
(100,209,l),
(153,71,o),
(270,-26,o),
(429,-26,cs),
(576,-26,o),
(715,59,o),
(817,205,c),
(788,0,l),
(848,0,l),
(988,1000,l),
(928,1000,l),
(851,454,ls),
(819,224,o),
(629,34,o),
(431,34,cs),
(235,34,o),
(101,220,o),
(133,450,cs),
(210,1000,l),
(150,1000,l),
(-51,-432,l)
);
}
);
width = 998;
},
{
layerId = "9333E5AC-F59E-47B3-BDF0-7EA648395594";
shapes = (
{
closed = 1;
nodes = (
(99,-432,l),
(182,132,l),
(233,39,o),
(326,-27,o),
(451,-27,cs),
(580,-27,o),
(699,43,o),
(789,160,c),
(764,0,l),
(915,0,l),
(1055,1000,l),
(905,1000,l),
(831,474,ls),
(804,281,o),
(650,120,o),
(475,120,cs),
(306,120,o),
(198,273,o),
(225,466,cs),
(300,1000,l),
(150,1000,l),
(-51,-432,l)
);
}
);
width = 1064.75;
}
);
unicode = 956;
},
{
glyphname = zero;
kernLeft = zero;
kernRight = zero;
lastChange = "2021-05-18 07:04:12 +0000";
layers = (
{
layerId = "7763577D-A4D2-4749-AE53-49BDF6EC3913";
shapes = (
{
closed = 1;
nodes = (
(864,-26,o),
(1129,292,o),
(1184,683,cs),
(1241,1092,o),
(1052,1426,o),
(723,1426,cs),
(412,1426,o),
(146,1108,o),
(90,717,cs),
(33,308,o),
(224,-26,o),
(553,-26,cs)
);
},
{
closed = 1;
nodes = (
(386,274,o),
(337,476,o),
(366,683,cs),
(398,910,o),
(520,1126,o),
(715,1126,cs),
(884,1126,o),
(940,938,o),
(908,717,cs),
(877,490,o),
(756,274,o),
(561,274,cs)
);
}
);
width = 1218;
},
{
layerId = "DDA43255-513F-4353-BCA4-425ED8D2F935";
shapes = (
{
closed = 1;
nodes = (
(858,-26,o),
(1090,298,o),
(1146,697,cs),
(1202,1100,o),
(1058,1426,o),
(717,1426,cs),
(376,1426,o),
(145,1104,o),
(89,703,cs),
(32,302,o),
(176,-26,o),
(519,-26,cs)
);
},
{
closed = 1;
nodes = (
(219,34,o),
(96,330,o),
(148,697,cs),
(198,1056,o),
(399,1366,o),
(715,1366,cs),
(1011,1366,o),
(1140,1084,o),
(1087,703,cs),
(1035,338,o),
(827,34,o),
(521,34,cs)
);
}
);
width = 1178;
},
{
layerId = "9333E5AC-F59E-47B3-BDF0-7EA648395594";
shapes = (
{
closed = 1;
nodes = (
(860,-26,o),
(1105,296,o),
(1160,692,cs),
(1217,1097,o),
(1056,1426,o),
(719,1426,cs),
(390,1426,o),
(145,1106,o),
(89,708,cs),
(32,304,o),
(194,-26,o),
(532,-26,cs)
);
},
{
closed = 1;
nodes = (
(282,124,o),
(186,385,o),
(230,692,cs),
(273,1001,o),
(444,1276,o),
(715,1276,cs),
(963,1276,o),
(1065,1029,o),
(1020,708,cs),
(976,395,o),
(800,124,o),
(536,124,cs)
);
}
);
width = 1193;
}
);
unicode = 48;
},
{
glyphname = one;
kernLeft = one;
kernRight = one;
lastChange = "2021-05-18 07:04:12 +0000";
layers = (
{
layerId = "7763577D-A4D2-4749-AE53-49BDF6EC3913";
shapes = (
{
closed = 1;
nodes = (
(500,0,l),
(696,1400,l),
(284,1400,l),
(162,1100,l),
(354,1100,l),
(200,0,l)
);
}
);
width = 730;
},
{
layerId = "DDA43255-513F-4353-BCA4-425ED8D2F935";
shapes = (
{
closed = 1;
nodes = (
(200,0,l),
(396,1400,l),
(226,1400,l),
(198,1340,l),
(328,1340,l),
(140,0,l)
);
}
);
width = 430;
},
{
layerId = "9333E5AC-F59E-47B3-BDF0-7EA648395594";
shapes = (
{
closed = 1;
nodes = (
(313,0,l),
(509,1400,l),
(248,1400,l),
(185,1250,l),
(338,1250,l),
(163,0,l)
);
}
);
width = 542.5;
}
);
unicode = 49;
},
{
glyphname = two;
kernLeft = two;
kernRight = two;
lastChange = "2021-05-18 07:04:12 +0000";
layers = (
{
hints = (
{
horizontal = 1;
origin = (0,22);
target = (0,2);
type = Stem;
},
{
horizontal = 1;
origin = (0,15);
target = (0,8);
type = Stem;
},
{
origin = (0,11);
target = (0,12);
type = Stem;
},
{
origin = (0,18);
target = (0,0);
type = Stem;
}
);
layerId = "7763577D-A4D2-4749-AE53-49BDF6EC3913";
shapes = (
{
closed = 1;
nodes = (
(982,0,l),
(1024,300,l),
(609,294,l),
(914,554,o),
(1081,710,o),
(1111,923,cs),
(1151,1202,o),
(956,1426,o),
(681,1426,cs),
(428,1426,o),
(184,1224,o),
(145,948,c),
(443,932,l),
(457,1034,o),
(562,1126,o),
(673,1126,cs),
(766,1126,o),
(829,1050,o),
(816,957,cs),
(791,780,o),
(243,388,o),
(41,272,c),
(10,0,l)
);
}
);
width = 1172;
},
{
hints = (
{
horizontal = 1;
origin = (0,22);
target = (0,2);
type = Stem;
},
{
horizontal = 1;
origin = (0,15);
target = (0,8);
type = Stem;
},
{
origin = (0,11);
target = (0,12);
type = Stem;
},
{
origin = (0,18);
target = (0,5);
type = Stem;
}
);
layerId = "DDA43255-513F-4353-BCA4-425ED8D2F935";
shapes = (
{
closed = 1;
nodes = (
(858,0,l),
(866,60,l),
(117,59,l),
(429,313,o),
(935,778,o),
(969,1023,cs),
(1001,1244,o),
(846,1426,o),
(627,1426,cs),
(408,1426,o),
(207,1248,o),
(176,1028,c),
(236,1024,l),
(262,1210,o),
(437,1366,o),
(625,1366,cs),
(809,1366,o),
(936,1214,o),
(910,1029,cs),
(876,784,o),
(381,373,o),
(16,53,c),
(10,0,l)
);
}
);
width = 1048;
},
{
hints = (
{
horizontal = 1;
origin = (0,22);
target = (0,2);
type = Stem;
},
{
horizontal = 1;
origin = (0,15);
target = (0,8);
type = Stem;
},
{
origin = (0,11);
target = (0,12);
type = Stem;
},
{
origin = (0,18);
target = (0,5);
type = Stem;
}
);
layerId = "9333E5AC-F59E-47B3-BDF0-7EA648395594";
shapes = (
{
closed = 1;
nodes = (
(905,0,l),
(925,150,l),
(302,147,l),
(611,403,o),
(990,753,o),
(1022,986,cs),
(1057,1228,o),
(887,1426,o),
(647,1426,cs),
(416,1426,o),
(198,1239,o),
(164,998,c),
(314,990,l),
(335,1144,o),
(484,1276,o),
(643,1276,cs),
(793,1276,o),
(896,1153,o),
(875,1002,cs),
(844,783,o),
(329,379,o),
(25,135,c),
(10,0,l)
);
}
);
width = 1094.5;
}
);
unicode = 50;
},
{
glyphname = three;
kernLeft = three;
kernRight = three;
lastChange = "2021-05-18 07:04:12 +0000";
layers = (
{
hints = (
{
horizontal = 1;
origin = (0,38);
target = (0,31);
type = Stem;
},
{
horizontal = 1;
origin = (0,25);
target = (0,24);
type = Stem;
},
{
horizontal = 1;
origin = (0,18);
target = (0,11);
type = Stem;
},
{
origin = (0,35);
target = (0,34);
type = Stem;
},
{
origin = (0,28);
target = (0,2);
type = Stem;
},
{
origin = (0,14);
target = (0,15);
type = Stem;
},
{
origin = (0,21);
target = (0,8);
type = Stem;
}
);
layerId = "7763577D-A4D2-4749-AE53-49BDF6EC3913";
shapes = (
{
closed = 1;
nodes = (
(710,-26,o),
(938,174,o),
(973,419,cs),
(991,548,o),
(950,701,o),
(859,737,c),
(953,782,o),
(1001,894,o),
(1013,979,cs),
(1048,1228,o),
(868,1428,o),
(626,1428,cs),
(396,1428,o),
(164,1242,o),
(131,1004,c),
(429,988,l),
(439,1060,o),
(539,1128,o),
(621,1128,cs),
(685,1128,o),
(727,1076,o),
(718,1013,cs),
(703,904,o),
(596,846,o),
(450,846,c),
(435,618,l),
(601,618,o),
(693,566,o),
(677,453,cs),
(664,356,o),
(570,274,o),
(473,274,cs),
(394,274,o),
(337,340,o),
(350,428,c),
(52,444,l),
(16,188,o),
(204,-26,o),
(465,-26,cs)
);
}
);
width = 1044;
},
{
background = {
shapes = (
{
closed = 1;
nodes = (
(908,708,o),
(822,746,c),
(906,804,o),
(942,902,o),
(942,1000,c),
(942,1248,o),
(742,1424,o),
(498,1424,c),
(252,1424,o),
(54,1246,o),
(54,1000,c),
(354,1000,l),
(354,1080,o),
(418,1144,o),
(498,1144,c),
(576,1144,o),
(642,1080,o),
(642,1000,c),
(642,936,o),
(568,830,o),
(390,830,c),
(390,648,l),
(618,648,o),
(678,530,o),
(678,446,c),
(678,352,o),
(600,274,o),
(504,274,c),
(410,274,o),
(332,352,o),
(332,446,c),
(32,446,l),
(32,184,o),
(244,-26,o),
(504,-26,c),
(764,-26,o),
(978,186,o),
(978,446,c),
(978,560,o)
);
}
);
};
layerId = "DDA43255-513F-4353-BCA4-425ED8D2F935";
shapes = (
{
closed = 1;
nodes = (
(622,-26,o),
(843,150,o),
(873,367,cs),
(898,544,o),
(819,677,o),
(647,737,c),
(795,783,o),
(905,904,o),
(927,1063,cs),
(955,1262,o),
(794,1426,o),
(595,1426,cs),
(396,1426,o),
(194,1266,o),
(166,1068,c),
(225,1064,l),
(248,1228,o),
(425,1366,o),
(593,1366,cs),
(755,1366,o),
(891,1232,o),
(868,1069,cs),
(840,872,o),
(672,766,o),
(448,766,c),
(443,706,l),
(683,706,o),
(845,596,o),
(814,373,cs),
(788,186,o),
(593,34,o),
(407,34,cs),
(183,34,o),
(75,182,o),
(101,368,c),
(42,372,l),
(11,154,o),
(146,-26,o),
(405,-26,cs)
);
}
);
width = 952;
},
{
hints = (
{
horizontal = 1;
origin = (0,38);
target = (0,31);
type = Stem;
},
{
horizontal = 1;
origin = (0,25);
target = (0,24);
type = Stem;
},
{
horizontal = 1;
origin = (0,18);
target = (0,11);
type = Stem;
},
{
origin = (0,35);
target = (0,34);
type = Stem;
},
{
origin = (0,28);
target = (0,2);
type = Stem;
},
{
origin = (0,14);
target = (0,15);
type = Stem;
},
{
origin = (0,21);
target = (0,8);
type = Stem;
}
);
layerId = "9333E5AC-F59E-47B3-BDF0-7EA648395594";
shapes = (
{
closed = 1;
nodes = (
(655,-26,o),
(879,159,o),
(911,387,cs),
(933,546,o),
(868,686,o),
(727,737,c),
(854,783,o),
(941,900,o),
(959,1032,cs),
(990,1249,o),
(822,1427,o),
(607,1427,cs),
(396,1427,o),
(183,1257,o),
(153,1044,c),
(302,1036,l),
(320,1165,o),
(468,1277,o),
(604,1277,cs),
(729,1277,o),
(830,1174,o),
(812,1048,cs),
(789,884,o),
(644,796,o),
(449,796,c),
(440,673,l),
(652,673,o),
(788,585,o),
(763,403,cs),
(742,250,o),
(584,124,o),
(432,124,cs),
(262,124,o),
(173,241,o),
(194,391,c),
(46,399,l),
(13,167,o),
(168,-26,o),
(428,-26,cs)
);
}
);
width = 986.5;
}
);
unicode = 51;
},
{
glyphname = four;
kernLeft = four;
kernRight = four;
lastChange = "2021-05-18 07:04:12 +0000";
layers = (
{
layerId = "7763577D-A4D2-4749-AE53-49BDF6EC3913";
shapes = (
{
closed = 1;
nodes = (
(902,0,l),
(945,310,l),
(1047,310,l),
(1089,610,l),
(987,610,l),
(1098,1400,l),
(727,1400,l),
(92,610,l),
(53,310,l),
(645,310,l),
(602,0,l)
);
},
{
closed = 1;
nodes = (
(745,996,l),
(687,610,l),
(445,610,l)
);
}
);
width = 1194;
},
{
layerId = "DDA43255-513F-4353-BCA4-425ED8D2F935";
shapes = (
{
closed = 1;
nodes = (
(680,0,l),
(741,434,l),
(911,434,l),
(919,494,l),
(749,494,l),
(876,1400,l),
(796,1400,l),
(79,498,l),
(71,434,l),
(681,434,l),
(620,0,l)
);
},
{
closed = 1;
nodes = (
(799,1302,l),
(689,494,l),
(156,498,l)
);
}
);
width = 1040;
},
{
layerId = "9333E5AC-F59E-47B3-BDF0-7EA648395594";
shapes = (
{
closed = 1;
nodes = (
(763,0,l),
(818,388,l),
(962,388,l),
(983,538,l),
(838,538,l),
(959,1400,l),
(770,1400,l),
(84,540,l),
(64,388,l),
(668,388,l),
(613,0,l)
);
},
{
closed = 1;
nodes = (
(779,1187,l),
(688,538,l),
(264,540,l)
);
}
);
width = 1097.75;
}
);
unicode = 52;
},
{
glyphname = five;
kernLeft = five;
kernRight = five;
lastChange = "2021-05-18 07:04:12 +0000";
layers = (
{
layerId = "7763577D-A4D2-4749-AE53-49BDF6EC3913";
shapes = (
{
closed = 1;
nodes = (
(768,-26,o),
(1008,188,o),
(1045,447,cs),
(1083,724,o),
(906,946,o),
(624,958,c),
(570,960,l),
(620,1100,l),
(1080,1100,l),
(1122,1400,l),
(415,1400,l),
(155,660,l),
(535,660,ls),
(735,660,o),
(763,578,o),
(749,481,cs),
(733,366,o),
(626,274,o),
(513,274,cs),
(416,274,o),
(349,350,o),
(364,456,c),
(66,472,l),
(29,208,o),
(218,-26,o),
(505,-26,cs)
);
}
);
width = 1172;
},
{
layerId = "DDA43255-513F-4353-BCA4-425ED8D2F935";
shapes = (
{
closed = 1;
nodes = (
(682,-26,o),
(908,170,o),
(942,413,cs),
(979,680,o),
(807,858,o),
(521,858,cs),
(311,858,l),
(472,1340,l),
(1054,1340,l),
(1062,1400,l),
(432,1400,l),
(228,798,l),
(556,798,ls),
(766,798,o),
(912,628,o),
(883,419,cs),
(853,208,o),
(655,34,o),
(443,34,cs),
(233,34,o),
(88,204,o),
(118,414,c),
(58,418,l),
(24,174,o),
(194,-26,o),
(441,-26,cs)
);
}
);
width = 1074;
},
{
layerId = "9333E5AC-F59E-47B3-BDF0-7EA648395594";
shapes = (
{
closed = 1;
nodes = (
(714,-26,o),
(946,177,o),
(981,426,cs),
(1018,697,o),
(844,891,o),
(560,896,cs),
(408,896,l),
(528,1250,l),
(1064,1250,l),
(1085,1400,l),
(426,1400,l),
(201,746,l),
(548,746,ls),
(754,746,o),
(856,609,o),
(833,442,cs),
(808,267,o),
(644,124,o),
(469,124,cs),
(302,124,o),
(186,259,o),
(210,430,c),
(61,438,l),
(26,187,o),
(203,-26,o),
(465,-26,cs)
);
}
);
width = 1110.75;
}
);
unicode = 53;
},
{
glyphname = six;
kernLeft = six;
kernRight = six;
lastChange = "2021-05-18 07:04:12 +0000";
layers = (
{
layerId = "7763577D-A4D2-4749-AE53-49BDF6EC3913";
shapes = (
{
closed = 1;
nodes = (
(760,-26,o),
(1007,192,o),
(1044,457,cs),
(1081,722,o),
(914,941,o),
(664,971,c),
(984,1400,l),
(629,1400,l),
(141,731,ls),
(88,653,o),
(60,568,o),
(49,491,cs),
(9,206,o),
(210,-26,o),
(491,-26,cs)
);
},
{
closed = 1;
nodes = (
(406,274,o),
(329,350,o),
(344,455,cs),
(360,568,o),
(463,674,o),
(591,674,cs),
(697,674,o),
(763,590,o),
(748,489,cs),
(733,380,o),
(624,274,o),
(499,274,cs)
);
}
);
width = 1110;
},
{
layerId = "DDA43255-513F-4353-BCA4-425ED8D2F935";
shapes = (
{
closed = 1;
nodes = (
(714,-26,o),
(956,186,o),
(993,447,cs),
(1045,818,o),
(669,1045,o),
(331,859,c),
(721,1400,l),
(650,1400,l),
(152,705,l),
(91,611,o),
(59,562,o),
(43,453,cs),
(6,190,o),
(192,-26,o),
(453,-26,cs)
);
},
{
closed = 1;
nodes = (
(235,34,o),
(70,214,o),
(103,449,cs),
(134,670,o),
(343,864,o),
(581,864,cs),
(807,864,o),
(966,682,o),
(934,455,cs),
(903,234,o),
(699,34,o),
(455,34,cs)
);
}
);
width = 1060;
},
{
layerId = "9333E5AC-F59E-47B3-BDF0-7EA648395594";
shapes = (
{
closed = 1;
nodes = (
(731,-26,o),
(975,188,o),
(1012,451,cs),
(1059,782,o),
(761,1006,o),
(456,901,c),
(820,1400,l),
(642,1400,l),
(148,715,l),
(90,627,o),
(59,564,o),
(45,467,cs),
(7,196,o),
(199,-26,o),
(467,-26,cs)
);
},
{
closed = 1;
nodes = (
(299,124,o),
(167,265,o),
(193,451,cs),
(219,632,o),
(388,793,o),
(585,793,cs),
(766,793,o),
(890,648,o),
(864,468,cs),
(839,289,o),
(671,124,o),
(472,124,cs)
);
}
);
width = 1078.75;
}
);
unicode = 54;
},
{
glyphname = seven;
kernLeft = seven;
kernRight = seven;
lastChange = "2021-05-18 07:04:12 +0000";
layers = (
{
layerId = "7763577D-A4D2-4749-AE53-49BDF6EC3913";
shapes = (
{
closed = 1;
nodes = (
(373,0,l),
(1163,1100,l),
(1202,1400,l),
(166,1400,l),
(124,1100,l),
(809,1100,l),
(21,0,l)
);
}
);
width = 1116;
},
{
layerId = "DDA43255-513F-4353-BCA4-425ED8D2F935";
shapes = (
{
closed = 1;
nodes = (
(162,0,l),
(1125,1340,l),
(1132,1400,l),
(166,1400,l),
(158,1340,l),
(1053,1340,l),
(93,0,l)
);
}
);
width = 1046;
},
{
layerId = "9333E5AC-F59E-47B3-BDF0-7EA648395594";
shapes = (
{
closed = 1;
nodes = (
(241,0,l),
(1139,1250,l),
(1158,1400,l),
(166,1400,l),
(145,1250,l),
(962,1250,l),
(66,0,l)
);
}
);
width = 1072.25;
}
);
unicode = 55;
},
{
glyphname = eight;
kernLeft = eight;
kernRight = eight;
lastChange = "2021-05-18 07:04:12 +0000";
layers = (
{
layerId = "7763577D-A4D2-4749-AE53-49BDF6EC3913";
shapes = (
{
closed = 1;
nodes = (
(752,-26,o),
(983,168,o),
(1017,409,cs),
(1035,534,o),
(999,646,o),
(931,724,c),
(1010,804,o),
(1055,894,o),
(1068,985,cs),
(1102,1228,o),
(922,1426,o),
(667,1426,cs),
(430,1426,o),
(213,1244,o),
(181,1019,cs),
(166,910,o),
(196,816,o),
(242,748,c),
(142,658,o),
(87,550,o),
(72,443,cs),
(35,182,o),
(224,-26,o),
(497,-26,cs)
);
},
{
closed = 1;
nodes = (
(426,274,o),
(371,334,o),
(381,409,cs),
(394,502,o),
(485,578,o),
(582,578,cs),
(661,578,o),
(717,518,o),
(706,443,cs),
(693,350,o),
(602,274,o),
(505,274,cs)
);
},
{
closed = 1;
nodes = (
(527,878,o),
(484,926,o),
(492,985,cs),
(503,1062,o),
(578,1126,o),
(659,1126,cs),
(722,1126,o),
(765,1078,o),
(757,1019,cs),
(746,942,o),
(671,878,o),
(590,878,cs)
);
}
);
width = 1110;
},
{
layerId = "DDA43255-513F-4353-BCA4-425ED8D2F935";
shapes = (
{
closed = 1;
nodes = (
(678,-26,o),
(895,150,o),
(925,367,cs),
(949,534,o),
(855,677,o),
(707,737,c),
(851,793,o),
(965,918,o),
(985,1063,cs),
(1013,1262,o),
(856,1426,o),
(639,1426,cs),
(424,1426,o),
(226,1266,o),
(198,1069,cs),
(177,922,o),
(259,795,o),
(384,739,c),
(218,679,o),
(85,538,o),
(62,373,cs),
(31,154,o),
(202,-26,o),
(441,-26,cs)
);
},
{
closed = 1;
nodes = (
(245,34,o),
(101,182,o),
(127,367,cs),
(154,554,o),
(343,706,o),
(544,706,cs),
(747,706,o),
(886,558,o),
(860,373,cs),
(834,186,o),
(649,34,o),
(443,34,cs)
);
},
{
closed = 1;
nodes = (
(366,766,o),
(240,898,o),
(263,1063,cs),
(287,1230,o),
(453,1366,o),
(637,1366,cs),
(817,1366,o),
(943,1234,o),
(920,1069,cs),
(896,902,o),
(730,766,o),
(546,766,cs)
);
}
);
width = 1024;
},
{
layerId = "9333E5AC-F59E-47B3-BDF0-7EA648395594";
shapes = (
{
closed = 1;
nodes = (
(706,-26,o),
(928,157,o),
(960,383,cs),
(981,534,o),
(909,665,o),
(791,732,c),
(911,797,o),
(999,909,o),
(1016,1034,cs),
(1046,1249,o),
(881,1426,o),
(650,1426,cs),
(426,1426,o),
(221,1258,o),
(192,1050,cs),
(173,918,o),
(235,803,o),
(331,742,c),
(190,671,o),
(86,543,o),
(66,399,cs),
(33,165,o),
(210,-26,o),
(462,-26,cs)
);
},
{
closed = 1;
nodes = (
(313,124,o),
(202,239,o),
(222,383,cs),
(244,535,o),
(396,658,o),
(558,658,cs),
(715,658,o),
(823,543,o),
(802,399,cs),
(781,248,o),
(631,124,o),
(466,124,cs)
);
},
{
closed = 1;
nodes = (
(426,808,o),
(332,909,o),
(349,1034,cs),
(368,1167,o),
(500,1276,o),
(645,1276,cs),
(781,1276,o),
(876,1176,o),
(859,1050,cs),
(840,917,o),
(708,808,o),
(563,808,cs)
);
}
);
width = 1056.25;
}
);
unicode = 56;
},
{
glyphname = nine;
kernLeft = nine;
kernRight = nine;
lastChange = "2021-05-18 07:04:12 +0000";
layers = (
{
layerId = "7763577D-A4D2-4749-AE53-49BDF6EC3913";
shapes = (
{
closed = 1;
nodes = (
(537,0,l),
(1025,669,ls),
(1079,747,o),
(1107,832,o),
(1118,909,cs),
(1157,1194,o),
(956,1426,o),
(675,1426,cs),
(406,1426,o),
(160,1208,o),
(122,943,cs),
(85,678,o),
(253,459,o),
(502,429,c),
(183,0,l)
);
},
{
closed = 1;
nodes = (
(469,726,o),
(404,810,o),
(418,911,cs),
(433,1020,o),
(542,1126,o),
(667,1126,cs),
(760,1126,o),
(837,1050,o),
(823,945,cs),
(807,832,o),
(703,726,o),
(575,726,cs)
);
}
);
width = 1120;
},
{
layerId = "DDA43255-513F-4353-BCA4-425ED8D2F935";
shapes = (
{
closed = 1;
nodes = (
(398,0,l),
(922,733,l),
(980,823,o),
(1012,868,o),
(1026,971,cs),
(1061,1220,o),
(884,1426,o),
(637,1426,cs),
(390,1426,o),
(162,1224,o),
(127,977,cs),
(78,626,o),
(433,411,o),
(754,587,c),
(329,0,l)
);
},
{
closed = 1;
nodes = (
(302,582,o),
(152,754,o),
(182,969,cs),
(212,1180,o),
(404,1368,o),
(635,1368,cs),
(844,1368,o),
(1000,1198,o),
(969,975,cs),
(939,766,o),
(742,582,o),
(516,582,cs)
);
}
);
width = 1020;
},
{
layerId = "9333E5AC-F59E-47B3-BDF0-7EA648395594";
shapes = (
{
closed = 1;
nodes = (
(450,0,l),
(961,709,l),
(1017,795,o),
(1048,855,o),
(1061,948,cs),
(1097,1210,o),
(911,1426,o),
(651,1426,cs),
(396,1426,o),
(161,1218,o),
(125,964,cs),
(81,646,o),
(366,429,o),
(660,528,c),
(274,0,l)
);
},
{
closed = 1;
nodes = (
(365,636,o),
(247,775,o),
(271,947,cs),
(295,1120,o),
(456,1277,o),
(647,1277,cs),
(813,1277,o),
(939,1143,o),
(914,964,cs),
(890,791,o),
(727,636,o),
(538,636,cs)
);
}
);
width = 1057.5;
}
);
unicode = 57;
},
{
glyphname = zeroinferior;
kernLeft = zero.dnom;
kernRight = zero.dnom;
lastChange = "2021-05-18 07:04:12 +0000";
layers = (
{
layerId = "7763577D-A4D2-4749-AE53-49BDF6EC3913";
shapes = (
{
closed = 1;
nodes = (
(397,-31,o),
(522,117,o),
(548,300,c),
(576,498,o),
(477,662,o),
(330,662,c),
(199,662,o),
(74,514,o),
(49,334,c),
(20,133,o),
(119,-31,o),
(266,-31,c)
);
},
{
closed = 1;
nodes = (
(210,137,o),
(202,230,o),
(212,300,c),
(223,378,o),
(272,494,o),
(340,494,c),
(385,494,o),
(394,399,o),
(385,334,c),
(374,260,o),
(320,137,o),
(256,137,c)
);
}
);
width = 648;
},
{
layerId = "DDA43255-513F-4353-BCA4-425ED8D2F935";
shapes = (
{
closed = 1;
nodes = (
(390,-31,o),
(521,107,o),
(548,298,c),
(575,491,o),
(480,636,o),
(340,636,c),
(202,636,o),
(71,495,o),
(45,304,c),
(17,111,o),
(112,-31,o),
(253,-31,c)
);
},
{
closed = 1;
nodes = (
(152,41,o),
(97,165,o),
(116,298,c),
(134,429,o),
(225,564,o),
(336,564,c),
(441,564,o),
(496,440,o),
(477,304,c),
(458,176,o),
(368,41,o),
(256,41,c)
);
}
);
width = 648;
},
{
layerId = "9333E5AC-F59E-47B3-BDF0-7EA648395594";
shapes = (
{
closed = 1;
nodes = (
(393,-31,o),
(521,111,o),
(548,299,c),
(575,494,o),
(479,646,o),
(336,646,c),
(201,646,o),
(72,502,o),
(47,315,c),
(18,119,o),
(115,-31,o),
(258,-31,c)
);
},
{
closed = 1;
nodes = (
(174,77,o),
(136,189,o),
(152,299,c),
(167,410,o),
(243,538,o),
(338,538,c),
(420,538,o),
(458,425,o),
(443,315,c),
(427,208,o),
(350,77,o),
(256,77,c)
);
}
);
width = 648;
}
);
unicode = 8320;
},
{
glyphname = oneinferior;
kernLeft = one.dnom;
kernRight = one.dnom;
lastChange = "2021-05-18 07:04:12 +0000";
layers = (
{
layerId = "7763577D-A4D2-4749-AE53-49BDF6EC3913";
shapes = (
{
closed = 1;
nodes = (
(252,0,l),
(340,631,l),
(137,631,l),
(90,463,l),
(149,463,l),
(84,0,l)
);
}
);
width = 466;
},
{
layerId = "DDA43255-513F-4353-BCA4-425ED8D2F935";
shapes = (
{
closed = 1;
nodes = (
(187,0,l),
(275,631,l),
(124,631,l),
(104,559,l),
(193,559,l),
(115,0,l)
);
}
);
width = 401;
},
{
layerId = "9333E5AC-F59E-47B3-BDF0-7EA648395594";
shapes = (
{
closed = 1;
nodes = (
(211,0,l),
(299,631,l),
(129,631,l),
(99,523,l),
(177,523,l),
(103,0,l)
);
}
);
width = 425.375;
}
);
unicode = 8321;
},
{
glyphname = twoinferior;
kernLeft = two.dnom;
kernRight = two.dnom;
lastChange = "2021-05-18 07:04:12 +0000";
layers = (
{
layerId = "7763577D-A4D2-4749-AE53-49BDF6EC3913";
shapes = (
{
closed = 1;
nodes = (
(501,0,l),
(524,168,l),
(362,162,l),
(460,239,o),
(556,306,o),
(569,401,c),
(589,544,o),
(489,662,o),
(347,662,c),
(220,662,o),
(104,560,o),
(86,426,c),
(251,410,l),
(257,453,o),
(306,494,o),
(357,494,c),
(390,494,o),
(411,469,o),
(402,434,c),
(310,289,o),
(166,231,o),
(40,151,c),
(26,0,l)
);
}
);
width = 727;
},
{
layerId = "DDA43255-513F-4353-BCA4-425ED8D2F935";
shapes = (
{
closed = 1;
nodes = (
(456,0,l),
(466,72,l),
(159,71,l),
(294,155,o),
(501,324,o),
(518,443,cs),
(535,562,o),
(449,650,o),
(330,650,cs),
(211,650,o),
(105,566,o),
(89,448,c),
(160,444,l),
(171,524,o),
(246,578,o),
(326,578,cs),
(404,578,o),
(458,528,o),
(447,449,cs),
(430,333,o),
(142,140,o),
(35,75,c),
(26,0,l)
);
}
);
width = 670;
},
{
layerId = "9333E5AC-F59E-47B3-BDF0-7EA648395594";
shapes = (
{
closed = 1;
nodes = (
(473,0,l),
(488,108,l),
(235,105,l),
(356,187,o),
(522,317,o),
(537,427,cs),
(555,555,o),
(464,655,o),
(336,655,cs),
(214,655,o),
(105,564,o),
(88,440,c),
(194,431,l),
(203,497,o),
(269,547,o),
(338,547,cs),
(399,547,o),
(440,506,o),
(430,443,cs),
(385,317,o),
(151,174,o),
(37,104,c),
(26,0,l)
);
}
);
width = 691.375;
}
);
unicode = 8322;
},
{
glyphname = threeinferior;
kernLeft = three.dnom;
kernRight = three.dnom;
lastChange = "2021-05-18 07:04:12 +0000";
layers = (
{
layerId = "7763577D-A4D2-4749-AE53-49BDF6EC3913";
shapes = (
{
closed = 1;
nodes = (
(349,-31,o),
(454,62,o),
(470,175,cs),
(479,234,o),
(464,289,o),
(437,321,c),
(473,363,o),
(485,402,o),
(490,437,cs),
(508,561,o),
(420,662,o),
(296,662,cs),
(189,662,o),
(93,577,o),
(77,462,c),
(242,446,l),
(245,467,o),
(277,494,o),
(306,494,cs),
(320,494,o),
(329,483,o),
(327,471,cs),
(322,433,o),
(289,382,o),
(213,382,c),
(216,276,l),
(289,276,o),
(311,238,o),
(307,209,cs),
(302,169,o),
(265,137,o),
(227,137,cs),
(205,137,o),
(191,153,o),
(196,184,c),
(30,200,l),
(13,78,o),
(107,-31,o),
(237,-31,cs)
);
}
);
width = 588;
},
{
layerId = "DDA43255-513F-4353-BCA4-425ED8D2F935";
shapes = (
{
closed = 1;
nodes = (
(306,-31,o),
(404,44,o),
(419,153,cs),
(431,236,o),
(404,275,o),
(352,320,c),
(394,340,o),
(435,401,o),
(444,463,cs),
(458,564,o),
(384,636,o),
(282,636,cs),
(183,636,o),
(94,568,o),
(79,468,c),
(151,464,l),
(159,524,o),
(217,564,o),
(278,564,cs),
(337,564,o),
(381,528,o),
(373,469,cs),
(362,396,o),
(302,355,o),
(211,355,c),
(204,283,l),
(307,283,o),
(359,237,o),
(348,159,cs),
(338,88,o),
(275,41,o),
(203,41,cs),
(133,41,o),
(86,84,o),
(95,154,c),
(24,158,l),
(8,48,o),
(88,-31,o),
(200,-31,cs)
);
}
);
width = 540;
},
{
layerId = "9333E5AC-F59E-47B3-BDF0-7EA648395594";
shapes = (
{
closed = 1;
nodes = (
(322,-31,o),
(423,51,o),
(438,161,cs),
(449,235,o),
(427,280,o),
(384,320,c),
(424,349,o),
(454,401,o),
(461,453,cs),
(477,563,o),
(398,646,o),
(287,646,cs),
(185,646,o),
(94,571,o),
(78,466,c),
(185,457,l),
(191,503,o),
(240,538,o),
(289,538,cs),
(331,538,o),
(362,511,o),
(356,470,cs),
(347,410,o),
(297,365,o),
(212,365,c),
(209,280,l),
(300,280,o),
(341,237,o),
(333,178,cs),
(325,118,o),
(271,77,o),
(212,77,cs),
(160,77,o),
(125,110,o),
(133,165,c),
(26,174,l),
(10,59,o),
(95,-31,o),
(214,-31,cs)
);
}
);
width = 558;
}
);
unicode = 8323;
},
{
glyphname = fourinferior;
kernLeft = four.dnom;
kernRight = four.dnom;
lastChange = "2021-05-18 07:04:12 +0000";
layers = (
{
layerId = "7763577D-A4D2-4749-AE53-49BDF6EC3913";
shapes = (
{
closed = 1;
nodes = (
(429,0,l),
(441,86,l),
(494,86,l),
(517,254,l),
(464,254,l),
(517,631,l),
(329,631,l),
(63,288,l),
(38,86,l),
(273,86,l),
(261,0,l)
);
},
{
closed = 1;
nodes = (
(336,396,l),
(313,254,l),
(228,254,l)
);
}
);
width = 696;
},
{
layerId = "DDA43255-513F-4353-BCA4-425ED8D2F935";
shapes = (
{
closed = 1;
nodes = (
(381,0,l),
(400,139,l),
(479,139,l),
(489,211,l),
(410,211,l),
(469,631,l),
(371,631,l),
(57,226,l),
(45,139,l),
(328,139,l),
(309,0,l)
);
},
{
closed = 1;
nodes = (
(385,535,l),
(338,211,l),
(133,211,l)
);
}
);
width = 674;
},
{
layerId = "9333E5AC-F59E-47B3-BDF0-7EA648395594";
shapes = (
{
closed = 1;
nodes = (
(399,0,l),
(415,119,l),
(485,119,l),
(500,227,l),
(430,227,l),
(487,631,l),
(355,631,l),
(59,249,l),
(42,119,l),
(307,119,l),
(291,0,l)
);
},
{
closed = 1;
nodes = (
(367,483,l),
(329,227,l),
(169,227,l)
);
}
);
width = 682.25;
}
);
unicode = 8324;
},
{
glyphname = fiveinferior;
kernLeft = five.dnom;
kernRight = five.dnom;
lastChange = "2021-05-18 07:04:12 +0000";
layers = (
{
layerId = "7763577D-A4D2-4749-AE53-49BDF6EC3913";
shapes = (
{
closed = 1;
nodes = (
(388,-31,o),
(501,66,o),
(518,189,c),
(538,333,o),
(466,444,o),
(310,444,c),
(294,444,l),
(300,485,l),
(488,485,l),
(508,631,l),
(167,631,l),
(81,276,l),
(299,276,l),
(339,276,o),
(359,253,o),
(355,223,c),
(349,176,o),
(303,137,o),
(254,137,c),
(224,137,o),
(204,160,o),
(210,198,c),
(44,214,l),
(25,82,o),
(126,-31,o),
(264,-31,c)
);
}
);
width = 706;
},
{
layerId = "DDA43255-513F-4353-BCA4-425ED8D2F935";
shapes = (
{
closed = 1;
nodes = (
(354,-31,o),
(463,53,o),
(480,175,c),
(497,296,o),
(411,396,o),
(289,396,c),
(194,389,l),
(227,545,l),
(510,545,l),
(520,617,l),
(172,617,l),
(97,290,l),
(282,324,l),
(363,324,o),
(420,261,o),
(409,181,c),
(397,98,o),
(320,41,o),
(237,41,c),
(157,41,o),
(99,94,o),
(111,176,cs),
(39,180,ls),
(22,57,o),
(109,-31,o),
(234,-31,c)
);
}
);
width = 670;
},
{
layerId = "9333E5AC-F59E-47B3-BDF0-7EA648395594";
shapes = (
{
closed = 1;
nodes = (
(367,-31,o),
(477,58,o),
(494,180,c),
(512,310,o),
(432,414,o),
(297,414,c),
(232,410,l),
(254,523,l),
(502,523,l),
(516,622,l),
(170,622,l),
(91,285,l),
(288,306,l),
(354,306,o),
(397,258,o),
(389,197,c),
(379,127,o),
(314,77,o),
(243,77,c),
(182,77,o),
(138,119,o),
(148,184,cs),
(41,193,ls),
(23,66,o),
(115,-31,o),
(245,-31,c)
);
}
);
width = 683.5;
}
);
unicode = 8325;
},
{
glyphname = sixinferior;
kernLeft = six.dnom;
kernRight = six.dnom;
lastChange = "2021-05-18 07:04:12 +0000";
layers = (
{
layerId = "7763577D-A4D2-4749-AE53-49BDF6EC3913";
shapes = (
{
closed = 1;
nodes = (
(390,-31,o),
(500,62,o),
(517,182,cs),
(533,297,o),
(478,386,o),
(365,424,c),
(523,629,l),
(322,636,l),
(81,300,o),
(65,282,o),
(56,219,cs),
(37,78,o),
(133,-31,o),
(271,-31,cs)
);
},
{
closed = 1;
nodes = (
(246,137,o),
(221,138,o),
(217,168,cs),
(217,210,o),
(253,264,o),
(313,264,cs),
(335,264,o),
(351,253,o),
(357,232,cs),
(358,183,o),
(311,137,o),
(261,137,cs)
);
}
);
width = 682;
},
{
layerId = "DDA43255-513F-4353-BCA4-425ED8D2F935";
shapes = (
{
closed = 1;
nodes = (
(378,-31,o),
(499,51,o),
(518,187,c),
(538,329,o),
(417,454,o),
(260,415,cs),
(408,619,l),
(323,620,ls),
(109,327,o),
(64,271,o),
(53,193,c),
(35,69,o),
(119,-31,o),
(258,-31,c)
);
},
{
closed = 1;
nodes = (
(174,41,o),
(112,99,o),
(124,184,c),
(137,276,o),
(221,350,o),
(311,350,c),
(389,350,o),
(460,290,o),
(447,193,c),
(434,103,o),
(352,41,o),
(261,41,c)
);
}
);
width = 682;
},
{
layerId = "9333E5AC-F59E-47B3-BDF0-7EA648395594";
shapes = (
{
closed = 1;
nodes = (
(383,-31,o),
(499,55,o),
(518,185,c),
(536,317,o),
(440,429,o),
(299,418,cs),
(451,623,l),
(323,626,ls),
(99,317,o),
(64,275,o),
(54,203,c),
(36,72,o),
(124,-31,o),
(263,-31,c)
);
},
{
closed = 1;
nodes = (
(201,77,o),
(153,114,o),
(159,178,c),
(167,251,o),
(233,318,o),
(312,318,c),
(369,318,o),
(419,276,o),
(413,208,c),
(406,133,o),
(337,77,o),
(261,77,c)
);
}
);
width = 682;
}
);
unicode = 8326;
},
{
glyphname = seveninferior;
kernLeft = seven.dnom;
kernRight = seven.dnom;
lastChange = "2021-05-18 07:04:12 +0000";
layers = (
{
layerId = "7763577D-A4D2-4749-AE53-49BDF6EC3913";
shapes = (
{
closed = 1;
nodes = (
(278,0,l),
(612,468,l),
(632,631,l),
(138,631,l),
(115,463,l),
(412,463,l),
(80,0,l)
);
}
);
width = 686;
},
{
layerId = "DDA43255-513F-4353-BCA4-425ED8D2F935";
shapes = (
{
closed = 1;
nodes = (
(148,0,l),
(549,559,l),
(558,631,l),
(138,631,l),
(128,559,l),
(464,559,l),
(63,0,l)
);
}
);
width = 612;
},
{
layerId = "9333E5AC-F59E-47B3-BDF0-7EA648395594";
shapes = (
{
closed = 1;
nodes = (
(197,0,l),
(573,525,l),
(586,631,l),
(138,631,l),
(123,523,l),
(445,523,l),
(69,0,l)
);
}
);
width = 639.75;
}
);
unicode = 8327;
},
{
glyphname = eightinferior;
kernLeft = eight.dnom;
kernRight = eight.dnom;
lastChange = "2021-05-18 07:04:12 +0000";
layers = (
{
layerId = "7763577D-A4D2-4749-AE53-49BDF6EC3913";
shapes = (
{
closed = 1;
nodes = (
(376,-31,o),
(478,57,o),
(494,170,cs),
(503,234,o),
(486,287,o),
(464,318,c),
(499,358,o),
(514,400,o),
(519,434,cs),
(537,561,o),
(446,662,o),
(323,662,cs),
(216,662,o),
(119,577,o),
(103,468,cs),
(96,416,o),
(109,372,o),
(124,344,c),
(82,300,o),
(61,250,o),
(54,204,cs),
(36,73,o),
(128,-31,o),
(259,-31,cs)
);
},
{
closed = 1;
nodes = (
(228,134,o),
(215,150,o),
(218,170,cs),
(223,210,o),
(260,242,o),
(297,242,cs),
(320,242,o),
(334,226,o),
(330,204,cs),
(325,166,o),
(288,134,o),
(249,134,cs)
);
},
{
closed = 1;
nodes = (
(274,410,o),
(265,422,o),
(267,434,cs),
(271,467,o),
(303,494,o),
(333,494,cs),
(349,494,o),
(358,483,o),
(355,468,cs),
(351,438,o),
(320,410,o),
(288,410,cs)
);
}
);
width = 636;
},
{
layerId = "DDA43255-513F-4353-BCA4-425ED8D2F935";
shapes = (
{
closed = 1;
nodes = (
(333,-31,o),
(433,44,o),
(448,153,cs),
(458,224,o),
(429,285,o),
(383,320,c),
(432,354,o),
(467,406,o),
(475,463,cs),
(489,567,o),
(416,638,o),
(311,638,cs),
(212,638,o),
(123,571,o),
(109,469,cs),
(100,410,o),
(123,356,o),
(160,324,c),
(101,287,o),
(58,228,o),
(48,159,cs),
(32,48,o),
(114,-31,o),
(224,-31,cs)
);
},
{
closed = 1;
nodes = (
(160,41,o),
(110,84,o),
(119,153,cs),
(129,224,o),
(197,283,o),
(268,283,cs),
(338,283,o),
(387,228,o),
(377,159,cs),
(367,88,o),
(301,41,o),
(227,41,cs)
);
},
{
closed = 1;
nodes = (
(213,355,o),
(172,404,o),
(180,463,cs),
(189,526,o),
(246,566,o),
(308,566,cs),
(369,566,o),
(412,530,o),
(404,469,cs),
(395,408,o),
(336,355,o),
(271,355,cs)
);
}
);
width = 593;
},
{
layerId = "9333E5AC-F59E-47B3-BDF0-7EA648395594";
shapes = (
{
closed = 1;
nodes = (
(349,-31,o),
(450,49,o),
(465,159,cs),
(475,228,o),
(450,286,o),
(413,319,c),
(457,356,o),
(485,404,o),
(492,452,cs),
(507,565,o),
(427,647,o),
(316,647,cs),
(214,647,o),
(122,573,o),
(107,469,cs),
(99,412,o),
(118,362,o),
(147,332,c),
(94,292,o),
(59,236,o),
(50,176,cs),
(34,57,o),
(119,-31,o),
(237,-31,cs)
);
},
{
closed = 1;
nodes = (
(186,76,o),
(149,109,o),
(156,159,cs),
(164,219,o),
(221,268,o),
(279,268,cs),
(331,268,o),
(367,227,o),
(359,176,cs),
(351,117,o),
(296,76,o),
(235,76,cs)
);
},
{
closed = 1;
nodes = (
(236,376,o),
(207,411,o),
(213,452,cs),
(220,504,o),
(267,539,o),
(317,539,cs),
(362,539,o),
(392,512,o),
(386,469,cs),
(379,419,o),
(330,376,o),
(277,376,cs)
);
}
);
width = 609.125;
}
);
unicode = 8328;
},
{
glyphname = nineinferior;
kernLeft = nine.dnom;
kernRight = nine.dnom;
lastChange = "2021-05-18 07:04:12 +0000";
layers = (
{
layerId = "7763577D-A4D2-4749-AE53-49BDF6EC3913";
shapes = (
{
closed = 1;
nodes = (
(257,0,l),
(486,307,l),
(594,465,o),
(496,662,o),
(311,662,cs),
(189,662,o),
(81,565,o),
(65,447,cs),
(49,337,o),
(107,232,o),
(214,206,c),
(57,0,l)
);
},
{
closed = 1;
nodes = (
(254,365,o),
(222,371,o),
(227,410,cs),
(233,450,o),
(270,494,o),
(321,494,cs),
(344,494,o),
(366,471,o),
(363,449,cs),
(357,404,o),
(314,365,o),
(269,365,cs)
);
}
);
width = 658;
},
{
layerId = "DDA43255-513F-4353-BCA4-425ED8D2F935";
shapes = (
{
closed = 1;
nodes = (
(255,0,l),
(482,313,l),
(595,467,o),
(502,650,o),
(324,650,cs),
(246,650,o),
(164,623,o),
(109,548,cs),
(-18,371,o),
(115,154,o),
(321,204,c),
(172,0,l)
);
},
{
closed = 1;
nodes = (
(207,269,o),
(144,310,o),
(133,386,cs),
(124,490,o),
(216,578,o),
(320,578,cs),
(384,578,o),
(447,549,o),
(459,473,cs),
(468,367,o),
(375,269,o),
(270,269,cs)
);
}
);
width = 660;
},
{
layerId = "9333E5AC-F59E-47B3-BDF0-7EA648395594";
shapes = (
{
closed = 1;
nodes = (
(256,0,l),
(484,311,l),
(595,466,o),
(500,655,o),
(319,655,cs),
(225,655,o),
(133,601,o),
(93,510,cs),
(7,358,o),
(112,183,o),
(281,205,c),
(129,0,l)
);
},
{
closed = 1;
nodes = (
(225,305,o),
(173,333,o),
(168,395,cs),
(165,475,o),
(236,547,o),
(320,547,cs),
(369,547,o),
(417,520,o),
(423,464,cs),
(426,381,o),
(352,305,o),
(270,305,cs)
);
}
);
width = 659.25;
}
);
unicode = 8329;
},
{
glyphname = zerosuperior;
kernLeft = zero.numr;
kernRight = zero.numr;
lastChange = "2021-05-18 07:04:12 +0000";
layers = (
{
layerId = "7763577D-A4D2-4749-AE53-49BDF6EC3913";
shapes = (
{
closed = 1;
nodes = (
(513,798,o),
(637,934,o),
(663,1117,c),
(691,1316,o),
(591,1468,o),
(443,1468,c),
(313,1468,o),
(189,1332,o),
(163,1151,c),
(135,950,o),
(235,798,o),
(383,798,c)
);
},
{
closed = 1;
nodes = (
(324,954,o),
(317,1047,o),
(327,1117,c),
(338,1196,o),
(386,1312,o),
(455,1312,c),
(499,1312,o),
(509,1217,o),
(499,1151,c),
(489,1078,o),
(434,954,o),
(371,954,c)
);
}
);
width = 648;
},
{
layerId = "DDA43255-513F-4353-BCA4-425ED8D2F935";
shapes = (
{
closed = 1;
nodes = (
(507,798,o),
(638,938,o),
(664,1129,cs),
(692,1322,o),
(597,1468,o),
(457,1468,cs),
(319,1468,o),
(188,1326,o),
(161,1135,cs),
(134,942,o),
(229,798,o),
(369,798,cs)
);
},
{
closed = 1;
nodes = (
(268,870,o),
(214,996,o),
(232,1129,cs),
(251,1260,o),
(342,1396,o),
(453,1396,cs),
(558,1396,o),
(612,1271,o),
(593,1135,cs),
(575,1007,o),
(484,870,o),
(373,870,cs)
);
}
);
width = 648;
},
{
layerId = "9333E5AC-F59E-47B3-BDF0-7EA648395594";
shapes = (
{
closed = 1;
nodes = (
(509,798,o),
(638,937,o),
(664,1125,cs),
(692,1320,o),
(595,1468,o),
(452,1468,cs),
(317,1468,o),
(188,1328,o),
(162,1141,cs),
(134,945,o),
(231,798,o),
(374,798,cs)
);
},
{
closed = 1;
nodes = (
(289,902,o),
(253,1015,o),
(268,1125,cs),
(284,1236,o),
(359,1365,o),
(454,1365,cs),
(536,1365,o),
(573,1251,o),
(558,1141,cs),
(543,1034,o),
(465,902,o),
(372,902,cs)
);
}
);
width = 648;
}
);
unicode = 8304;
},
{
glyphname = onesuperior;
kernLeft = one.numr;
kernRight = one.numr;
lastChange = "2021-05-18 07:04:12 +0000";
layers = (
{
layerId = "7763577D-A4D2-4749-AE53-49BDF6EC3913";
shapes = (
{
closed = 1;
nodes = (
(367,818,l),
(455,1449,l),
(252,1449,l),
(205,1281,l),
(264,1281,l),
(199,818,l)
);
}
);
width = 466;
},
{
layerId = "DDA43255-513F-4353-BCA4-425ED8D2F935";
shapes = (
{
closed = 1;
nodes = (
(302,818,l),
(390,1449,l),
(239,1449,l),
(219,1377,l),
(308,1377,l),
(230,818,l)
);
}
);
width = 401;
},
{
layerId = "9333E5AC-F59E-47B3-BDF0-7EA648395594";
shapes = (
{
closed = 1;
nodes = (
(326,818,l),
(414,1449,l),
(244,1449,l),
(214,1341,l),
(292,1341,l),
(218,818,l)
);
}
);
width = 425.375;
}
);
unicode = 185;
},
{
glyphname = twosuperior;
kernLeft = two.numr;
kernRight = two.numr;
lastChange = "2021-05-18 07:04:12 +0000";
layers = (
{
layerId = "7763577D-A4D2-4749-AE53-49BDF6EC3913";
shapes = (
{
closed = 1;
nodes = (
(616,818,l),
(639,986,l),
(477,980,l),
(575,1056,o),
(671,1124,o),
(684,1218,c),
(704,1362,o),
(603,1468,o),
(460,1468,c),
(334,1468,o),
(219,1378,o),
(200,1243,c),
(366,1227,l),
(372,1270,o),
(420,1312,o),
(472,1312,c),
(504,1312,o),
(526,1286,o),
(517,1251,c),
(424,1106,o),
(281,1048,o),
(155,969,c),
(141,818,l)
);
}
);
width = 727;
},
{
layerId = "DDA43255-513F-4353-BCA4-425ED8D2F935";
shapes = (
{
closed = 1;
nodes = (
(571,818,l),
(581,890,l),
(274,889,l),
(409,973,o),
(616,1142,o),
(633,1261,cs),
(650,1380,o),
(564,1468,o),
(445,1468,cs),
(326,1468,o),
(220,1384,o),
(204,1266,c),
(275,1262,l),
(286,1341,o),
(361,1396,o),
(441,1396,cs),
(519,1396,o),
(573,1345,o),
(562,1267,cs),
(545,1151,o),
(257,958,o),
(150,893,c),
(141,818,l)
);
}
);
width = 670;
},
{
layerId = "9333E5AC-F59E-47B3-BDF0-7EA648395594";
shapes = (
{
closed = 1;
nodes = (
(588,818,l),
(603,926,l),
(350,923,l),
(471,1004,o),
(637,1135,o),
(652,1245,cs),
(670,1373,o),
(579,1468,o),
(451,1468,cs),
(329,1468,o),
(220,1382,o),
(203,1257,c),
(309,1249,l),
(318,1314,o),
(383,1365,o),
(453,1365,cs),
(513,1365,o),
(555,1323,o),
(545,1261,cs),
(500,1134,o),
(266,992,o),
(152,922,c),
(141,818,l)
);
}
);
width = 691.375;
}
);
unicode = 178;
},
{
glyphname = threesuperior;
kernLeft = three.numr;
kernRight = three.numr;
lastChange = "2021-05-18 07:04:12 +0000";
layers = (
{
layerId = "7763577D-A4D2-4749-AE53-49BDF6EC3913";
shapes = (
{
closed = 1;
nodes = (
(465,798,o),
(569,879,o),
(585,993,cs),
(594,1052,o),
(579,1107,o),
(552,1138,c),
(587,1180,o),
(600,1220,o),
(605,1254,cs),
(622,1378,o),
(534,1468,o),
(409,1468,cs),
(303,1468,o),
(208,1394,o),
(192,1279,c),
(357,1263,l),
(360,1285,o),
(391,1312,o),
(421,1312,cs),
(434,1312,o),
(444,1301,o),
(442,1288,cs),
(436,1250,o),
(404,1199,o),
(328,1199,c),
(330,1094,l),
(404,1094,o),
(426,1056,o),
(422,1027,cs),
(416,986,o),
(379,954,o),
(342,954,cs),
(319,954,o),
(306,970,o),
(310,1002,c),
(145,1018,l),
(128,895,o),
(223,798,o),
(354,798,cs)
);
}
);
width = 588;
},
{
layerId = "DDA43255-513F-4353-BCA4-425ED8D2F935";
shapes = (
{
closed = 1;
nodes = (
(423,798,o),
(520,873,o),
(536,983,c),
(547,1065,o),
(521,1105,o),
(468,1149,c),
(511,1169,o),
(552,1231,o),
(560,1292,c),
(575,1394,o),
(501,1466,o),
(398,1466,c),
(300,1466,o),
(210,1398,o),
(196,1297,c),
(267,1293,l),
(276,1353,o),
(333,1394,o),
(395,1394,c),
(453,1394,o),
(497,1357,o),
(489,1298,c),
(479,1225,o),
(419,1185,o),
(328,1185,c),
(321,1113,l),
(424,1113,o),
(476,1067,o),
(465,989,c),
(455,918,o),
(391,870,o),
(320,870,c),
(249,870,o),
(202,914,o),
(212,984,c),
(141,988,l),
(125,877,o),
(205,798,o),
(316,798,c)
);
}
);
width = 540;
},
{
layerId = "9333E5AC-F59E-47B3-BDF0-7EA648395594";
shapes = (
{
closed = 1;
nodes = (
(439,798,o),
(538,875,o),
(554,987,c),
(565,1060,o),
(543,1106,o),
(500,1145,c),
(540,1173,o),
(570,1227,o),
(577,1278,c),
(593,1388,o),
(513,1467,o),
(402,1467,c),
(301,1467,o),
(209,1397,o),
(195,1290,c),
(301,1282,l),
(308,1328,o),
(355,1363,o),
(405,1363,c),
(446,1363,o),
(477,1336,o),
(471,1294,c),
(463,1234,o),
(413,1190,o),
(328,1190,c),
(324,1106,l),
(417,1106,o),
(457,1063,o),
(449,1003,c),
(440,944,o),
(387,902,o),
(328,902,c),
(275,902,o),
(241,935,o),
(249,991,c),
(143,999,l),
(126,884,o),
(212,798,o),
(330,798,c)
);
}
);
width = 558;
}
);
unicode = 179;
},
{
glyphname = foursuperior;
kernLeft = four.numr;
kernRight = four.numr;
lastChange = "2021-05-18 07:04:12 +0000";
layers = (
{
layerId = "7763577D-A4D2-4749-AE53-49BDF6EC3913";
shapes = (
{
closed = 1;
nodes = (
(544,818,l),
(556,904,l),
(609,904,l),
(632,1072,l),
(579,1072,l),
(632,1449,l),
(444,1449,l),
(178,1106,l),
(153,904,l),
(388,904,l),
(376,818,l)
);
},
{
closed = 1;
nodes = (
(451,1214,l),
(428,1072,l),
(343,1072,l)
);
}
);
width = 696;
},
{
layerId = "DDA43255-513F-4353-BCA4-425ED8D2F935";
shapes = (
{
closed = 1;
nodes = (
(496,818,l),
(515,957,l),
(594,957,l),
(604,1029,l),
(525,1029,l),
(584,1449,l),
(486,1449,l),
(172,1043,l),
(160,957,l),
(443,957,l),
(424,818,l)
);
},
{
closed = 1;
nodes = (
(500,1353,l),
(453,1029,l),
(248,1029,l)
);
}
);
width = 674;
},
{
layerId = "9333E5AC-F59E-47B3-BDF0-7EA648395594";
shapes = (
{
closed = 1;
nodes = (
(514,818,l),
(530,937,l),
(600,937,l),
(615,1045,l),
(545,1045,l),
(602,1449,l),
(470,1449,l),
(174,1067,l),
(157,937,l),
(422,937,l),
(406,818,l)
);
},
{
closed = 1;
nodes = (
(482,1301,l),
(444,1045,l),
(284,1045,l)
);
}
);
width = 682.25;
}
);
unicode = 8308;
},
{
glyphname = fivesuperior;
kernLeft = five.numr;
kernRight = five.numr;
lastChange = "2021-05-18 07:04:12 +0000";
layers = (
{
layerId = "7763577D-A4D2-4749-AE53-49BDF6EC3913";
shapes = (
{
closed = 1;
nodes = (
(504,798,o),
(616,884,o),
(633,1007,cs),
(654,1154,o),
(562,1262,o),
(401,1262,c),
(417,1305,l),
(603,1305,l),
(623,1449,l),
(282,1449,l),
(205,1085,l),
(272,1093,o),
(381,1099,o),
(422,1097,cs),
(453,1091,o),
(474,1070,o),
(470,1041,cs),
(463,994,o),
(417,954,o),
(369,954,cs),
(338,954,o),
(319,978,o),
(324,1016,c),
(159,1032,l),
(140,900,o),
(242,798,o),
(381,798,cs)
);
}
);
width = 706;
},
{
layerId = "DDA43255-513F-4353-BCA4-425ED8D2F935";
shapes = (
{
closed = 1;
nodes = (
(471,798,o),
(580,883,o),
(597,1004,cs),
(620,1167,o),
(491,1246,o),
(308,1218,c),
(344,1377,l),
(627,1377,l),
(637,1449,l),
(289,1449,l),
(216,1119,l),
(301,1145,o),
(327,1154,o),
(400,1154,cs),
(480,1154,o),
(537,1091,o),
(526,1010,cs),
(514,928,o),
(436,870,o),
(354,870,cs),
(273,870,o),
(216,924,o),
(227,1005,c),
(155,1009,l),
(138,887,o),
(226,798,o),
(350,798,cs)
);
}
);
width = 670;
},
{
layerId = "9333E5AC-F59E-47B3-BDF0-7EA648395594";
shapes = (
{
closed = 1;
nodes = (
(483,798,o),
(594,883,o),
(611,1005,cs),
(633,1162,o),
(518,1252,o),
(343,1235,c),
(371,1350,l),
(618,1350,l),
(632,1449,l),
(286,1449,l),
(212,1106,l),
(290,1126,o),
(347,1133,o),
(408,1133,cs),
(470,1130,o),
(513,1083,o),
(505,1022,cs),
(495,953,o),
(429,902,o),
(360,902,cs),
(297,902,o),
(255,944,o),
(263,1009,c),
(157,1018,l),
(139,892,o),
(232,798,o),
(362,798,cs)
);
}
);
width = 683.5;
}
);
unicode = 8309;
},
{
glyphname = sixsuperior;
kernLeft = six.numr;
kernRight = six.numr;
lastChange = "2021-05-18 07:04:12 +0000";
layers = (
{
layerId = "7763577D-A4D2-4749-AE53-49BDF6EC3913";
shapes = (
{
closed = 1;
nodes = (
(506,798,o),
(615,879,o),
(632,1000,cs),
(648,1114,o),
(593,1203,o),
(480,1242,c),
(638,1446,l),
(437,1453,l),
(196,1117,o),
(180,1099,o),
(171,1036,cs),
(152,895,o),
(249,798,o),
(388,798,cs)
);
},
{
closed = 1;
nodes = (
(360,954,o),
(336,956,o),
(331,986,cs),
(330,1028,o),
(368,1082,o),
(428,1082,cs),
(450,1082,o),
(466,1070,o),
(472,1050,cs),
(473,1001,o),
(425,954,o),
(376,954,cs)
);
}
);
width = 706;
},
{
layerId = "DDA43255-513F-4353-BCA4-425ED8D2F935";
shapes = (
{
closed = 1;
nodes = (
(495,798,o),
(615,880,o),
(634,1016,cs),
(655,1159,o),
(533,1283,o),
(377,1245,c),
(524,1446,l),
(438,1447,l),
(224,1155,o),
(180,1100,o),
(169,1022,cs),
(152,899,o),
(236,798,o),
(374,798,cs)
);
},
{
closed = 1;
nodes = (
(290,870,o),
(228,928,o),
(240,1014,cs),
(253,1106,o),
(337,1180,o),
(428,1180,cs),
(505,1180,o),
(577,1120,o),
(563,1022,cs),
(551,932,o),
(468,870,o),
(378,870,cs)
);
}
);
width = 706;
},
{
layerId = "9333E5AC-F59E-47B3-BDF0-7EA648395594";
shapes = (
{
closed = 1;
nodes = (
(499,798,o),
(615,880,o),
(633,1010,cs),
(652,1142,o),
(556,1253,o),
(416,1244,c),
(567,1446,l),
(438,1449,l),
(214,1141,o),
(180,1100,o),
(170,1027,cs),
(152,898,o),
(241,798,o),
(379,798,cs)
);
},
{
closed = 1;
nodes = (
(316,902,o),
(269,939,o),
(274,1004,cs),
(282,1077,o),
(349,1143,o),
(428,1143,cs),
(484,1143,o),
(535,1101,o),
(529,1033,cs),
(522,958,o),
(452,902,o),
(377,902,cs)
);
}
);
width = 706;
}
);
unicode = 8310;
},
{
glyphname = sevensuperior;
kernLeft = seven.numr;
kernRight = seven.numr;
lastChange = "2021-05-18 07:04:12 +0000";
layers = (
{
layerId = "7763577D-A4D2-4749-AE53-49BDF6EC3913";
shapes = (
{
closed = 1;
nodes = (
(396,818,l),
(727,1283,l),
(747,1446,l),
(253,1446,l),
(229,1278,l),
(526,1278,l),
(198,818,l)
);
}
);
width = 686;
},
{
layerId = "DDA43255-513F-4353-BCA4-425ED8D2F935";
shapes = (
{
closed = 1;
nodes = (
(265,818,l),
(664,1377,l),
(673,1449,l),
(253,1449,l),
(243,1377,l),
(579,1377,l),
(180,818,l)
);
}
);
width = 612;
},
{
layerId = "9333E5AC-F59E-47B3-BDF0-7EA648395594";
shapes = (
{
closed = 1;
nodes = (
(314,818,l),
(688,1342,l),
(701,1448,l),
(253,1448,l),
(238,1340,l),
(559,1340,l),
(187,818,l)
);
}
);
width = 639.75;
}
);
unicode = 8311;
},
{
glyphname = eightsuperior;
kernLeft = eight.numr;
kernRight = eight.numr;
lastChange = "2021-05-18 07:04:12 +0000";
layers = (
{
layerId = "7763577D-A4D2-4749-AE53-49BDF6EC3913";
shapes = (
{
closed = 1;
nodes = (
(492,798,o),
(593,874,o),
(609,988,cs),
(618,1052,o),
(601,1103,o),
(579,1136,c),
(614,1175,o),
(629,1218,o),
(634,1252,cs),
(651,1378,o),
(560,1470,o),
(437,1470,cs),
(330,1470,o),
(234,1394,o),
(218,1286,cs),
(211,1234,o),
(224,1189,o),
(239,1162,c),
(196,1117,o),
(176,1068,o),
(169,1022,cs),
(151,890,o),
(244,798,o),
(376,798,cs)
);
},
{
closed = 1;
nodes = (
(343,952,o),
(330,968,o),
(333,988,cs),
(338,1028,o),
(375,1060,o),
(412,1060,cs),
(435,1060,o),
(449,1044,o),
(445,1022,cs),
(440,984,o),
(403,952,o),
(364,952,cs)
);
},
{
closed = 1;
nodes = (
(389,1228,o),
(380,1239,o),
(382,1252,cs),
(386,1285,o),
(417,1312,o),
(448,1312,cs),
(463,1312,o),
(473,1301,o),
(470,1286,cs),
(466,1255,o),
(435,1228,o),
(403,1228,cs)
);
}
);
width = 636;
},
{
layerId = "DDA43255-513F-4353-BCA4-425ED8D2F935";
shapes = (
{
closed = 1;
nodes = (
(450,798,o),
(549,873,o),
(565,983,cs),
(575,1053,o),
(546,1114,o),
(499,1149,c),
(548,1184,o),
(583,1236,o),
(591,1292,cs),
(606,1396,o),
(532,1468,o),
(428,1468,cs),
(328,1468,o),
(239,1400,o),
(225,1298,cs),
(217,1240,o),
(240,1186,o),
(277,1153,c),
(217,1116,o),
(174,1057,o),
(165,989,cs),
(149,877,o),
(231,798,o),
(340,798,cs)
);
},
{
closed = 1;
nodes = (
(276,870,o),
(226,914,o),
(236,983,cs),
(246,1053,o),
(314,1113,o),
(385,1113,cs),
(455,1113,o),
(503,1057,o),
(494,989,cs),
(484,918,o),
(417,870,o),
(344,870,cs)
);
},
{
closed = 1;
nodes = (
(330,1185,o),
(288,1233,o),
(296,1292,cs),
(305,1356,o),
(363,1396,o),
(424,1396,cs),
(486,1396,o),
(529,1360,o),
(520,1298,cs),
(512,1237,o),
(453,1185,o),
(388,1185,cs)
);
}
);
width = 593;
},
{
layerId = "9333E5AC-F59E-47B3-BDF0-7EA648395594";
shapes = (
{
closed = 1;
nodes = (
(466,798,o),
(566,873,o),
(582,985,cs),
(591,1053,o),
(567,1110,o),
(529,1144,c),
(573,1181,o),
(600,1229,o),
(607,1277,cs),
(623,1389,o),
(543,1469,o),
(431,1469,cs),
(329,1469,o),
(237,1398,o),
(222,1294,cs),
(215,1238,o),
(234,1187,o),
(263,1156,c),
(209,1116,o),
(175,1061,o),
(167,1001,cs),
(150,882,o),
(236,798,o),
(354,798,cs)
);
},
{
closed = 1;
nodes = (
(301,901,o),
(265,934,o),
(272,985,cs),
(281,1044,o),
(337,1093,o),
(395,1093,cs),
(448,1093,o),
(483,1052,o),
(476,1001,cs),
(468,943,o),
(412,901,o),
(352,901,cs)
);
},
{
closed = 1;
nodes = (
(352,1201,o),
(323,1235,o),
(328,1277,cs),
(335,1329,o),
(383,1365,o),
(433,1365,cs),
(477,1365,o),
(508,1338,o),
(501,1294,cs),
(495,1244,o),
(446,1201,o),
(394,1201,cs)
);
}
);
width = 609.125;
}
);
unicode = 8312;
},
{
glyphname = ninesuperior;
kernLeft = nine.numr;
kernRight = nine.numr;
lastChange = "2021-05-18 07:04:12 +0000";
layers = (
{
layerId = "7763577D-A4D2-4749-AE53-49BDF6EC3913";
shapes = (
{
closed = 1;
nodes = (
(372,818,l),
(601,1125,l),
(625,1163,o),
(636,1201,o),
(641,1230,cs),
(659,1362,o),
(567,1468,o),
(424,1468,cs),
(303,1468,o),
(196,1382,o),
(179,1264,cs),
(164,1154,o),
(222,1050,o),
(329,1024,c),
(172,818,l)
);
},
{
closed = 1;
nodes = (
(368,1182,o),
(337,1189,o),
(342,1228,cs),
(348,1268,o),
(384,1312,o),
(436,1312,cs),
(458,1312,o),
(481,1289,o),
(478,1267,cs),
(472,1222,o),
(428,1182,o),
(384,1182,cs)
);
}
);
width = 658;
},
{
layerId = "DDA43255-513F-4353-BCA4-425ED8D2F935";
shapes = (
{
closed = 1;
nodes = (
(370,818,l),
(590,1120,l),
(590,1123,o),
(594,1125,o),
(597,1129,cs),
(710,1285,o),
(617,1468,o),
(439,1468,cs),
(361,1468,o),
(278,1440,o),
(224,1365,cs),
(97,1188,o),
(230,971,o),
(436,1022,c),
(287,818,l)
);
},
{
closed = 1;
nodes = (
(322,1086,o),
(259,1128,o),
(248,1203,cs),
(239,1308,o),
(331,1396,o),
(435,1396,cs),
(499,1396,o),
(562,1367,o),
(574,1291,cs),
(582,1184,o),
(490,1086,o),
(385,1086,cs)
);
}
);
width = 659;
},
{
layerId = "9333E5AC-F59E-47B3-BDF0-7EA648395594";
shapes = (
{
closed = 1;
nodes = (
(371,818,l),
(594,1122,l),
(603,1138,o),
(610,1154,o),
(614,1167,cs),
(691,1314,o),
(598,1468,o),
(433,1468,cs),
(339,1468,o),
(247,1418,o),
(207,1327,cs),
(122,1175,o),
(227,1001,o),
(396,1023,c),
(244,818,l)
);
},
{
closed = 1;
nodes = (
(339,1122,o),
(288,1151,o),
(283,1212,cs),
(280,1293,o),
(351,1365,o),
(435,1365,cs),
(484,1365,o),
(532,1338,o),
(538,1282,cs),
(541,1198,o),
(467,1122,o),
(385,1122,cs)
);
}
);
width = 658.625;
}
);
unicode = 8313;
},
{
glyphname = fraction;
kernLeft = frac_digits;
kernRight = fraction;
lastChange = "2021-05-18 07:04:12 +0000";
layers = (
{
layerId = "7763577D-A4D2-4749-AE53-49BDF6EC3913";
shapes = (
{
closed = 1;
nodes = (
(175,0,l),
(1180,1400,l),
(931,1400,l),
(-73,0,l)
);
}
);
width = 1050;
},
{
layerId = "DDA43255-513F-4353-BCA4-425ED8D2F935";
shapes = (
{
closed = 1;
nodes = (
(0,0,l),
(1005,1400,l),
(934,1400,l),
(-71,0,l)
);
}
);
width = 878;
},
{
layerId = "9333E5AC-F59E-47B3-BDF0-7EA648395594";
shapes = (
{
closed = 1;
nodes = (
(66,0,l),
(1071,1400,l),
(933,1400,l),
(-72,0,l)
);
}
);
width = 942.5;
}
);
unicode = (8260,8725);
},
{
glyphname = period;
kernLeft = period;
kernRight = period;
lastChange = "2021-05-18 07:04:12 +0000";
layers = (
{
layerId = "7763577D-A4D2-4749-AE53-49BDF6EC3913";
shapes = (
{
closed = 1;
nodes = (
(246,-26,o),
(314,32,o),
(325,107,cs),
(338,198,o),
(272,274,o),
(181,274,cs),
(106,274,o),
(40,214,o),
(30,141,cs),
(17,48,o),
(80,-26,o),
(173,-26,cs)
);
}
);
width = 500;
},
{
layerId = "DDA43255-513F-4353-BCA4-425ED8D2F935";
shapes = (
{
closed = 1;
nodes = (
(78,-26,o),
(99,-8,o),
(102,17,cs),
(106,42,o),
(87,64,o),
(59,64,cs),
(37,64,o),
(16,46,o),
(13,23,cs),
(9,-4,o),
(28,-26,o),
(53,-26,cs)
);
}
);
width = 290;
},
{
layerId = "9333E5AC-F59E-47B3-BDF0-7EA648395594";
shapes = (
{
closed = 1;
nodes = (
(141,-26,o),
(180,7,o),
(186,51,cs),
(193,101,o),
(156,143,o),
(105,143,cs),
(63,143,o),
(25,109,o),
(19,67,cs),
(12,16,o),
(48,-26,o),
(98,-26,cs)
);
}
);
width = 368.75;
}
);
unicode = 46;
},
{
glyphname = comma;
kernLeft = period;
kernRight = period;
lastChange = "2021-05-18 07:04:12 +0000";
layers = (
{
layerId = "7763577D-A4D2-4749-AE53-49BDF6EC3913";
shapes = (
{
closed = 1;
nodes = (
(197,-112,l),
(406,226,l),
(102,226,l),
(-7,-112,l)
);
}
);
width = 562;
},
{
layerId = "DDA43255-513F-4353-BCA4-425ED8D2F935";
shapes = (
{
closed = 1;
nodes = (
(34,-112,l),
(164,226,l),
(103,226,l),
(-6,-112,l)
);
}
);
width = 322;
},
{
layerId = "9333E5AC-F59E-47B3-BDF0-7EA648395594";
shapes = (
{
closed = 1;
nodes = (
(95,-112,l),
(255,226,l),
(103,226,l),
(-6,-112,l)
);
}
);
width = 412;
}
);
unicode = 44;
},
{
glyphname = colon;
kernLeft = colon;
kernRight = colon;
lastChange = "2021-05-18 07:04:12 +0000";
layers = (
{
layerId = "7763577D-A4D2-4749-AE53-49BDF6EC3913";
shapes = (
{
closed = 1;
nodes = (
(348,700,o),
(416,758,o),
(427,833,cs),
(440,924,o),
(374,1000,o),
(284,1000,cs),
(208,1000,o),
(142,940,o),
(132,867,cs),
(119,774,o),
(182,700,o),
(275,700,cs)
);
},
{
closed = 1;
nodes = (
(246,-26,o),
(314,32,o),
(325,107,cs),
(338,198,o),
(272,274,o),
(181,274,cs),
(106,274,o),
(40,214,o),
(30,141,cs),
(17,48,o),
(80,-26,o),
(173,-26,cs)
);
}
);
width = 500;
},
{
layerId = "DDA43255-513F-4353-BCA4-425ED8D2F935";
shapes = (
{
closed = 1;
nodes = (
(209,910,o),
(230,928,o),
(234,953,cs),
(237,978,o),
(219,1000,o),
(191,1000,cs),
(169,1000,o),
(148,982,o),
(145,959,cs),
(141,932,o),
(159,910,o),
(185,910,cs)
);
},
{
closed = 1;
nodes = (
(78,-26,o),
(99,-8,o),
(102,17,cs),
(106,42,o),
(87,64,o),
(59,64,cs),
(37,64,o),
(16,46,o),
(13,23,cs),
(9,-4,o),
(28,-26,o),
(53,-26,cs)
);
}
);
width = 290;
},
{
layerId = "9333E5AC-F59E-47B3-BDF0-7EA648395594";
shapes = (
{
closed = 1;
nodes = (
(261,831,o),
(300,864,o),
(306,908,cs),
(313,958,o),
(277,1000,o),
(226,1000,cs),
(184,1000,o),
(146,966,o),
(140,925,cs),
(133,873,o),
(168,831,o),
(219,831,cs)
);
},
{
closed = 1;
nodes = (
(141,-26,o),
(180,7,o),
(186,51,cs),
(193,101,o),
(156,143,o),
(105,143,cs),
(63,143,o),
(25,109,o),
(19,67,cs),
(12,16,o),
(48,-26,o),
(98,-26,cs)
);
}
);
width = 368.75;
}
);
unicode = 58;
},
{
glyphname = semicolon;
kernLeft = colon;
kernRight = colon;
lastChange = "2021-05-18 07:04:12 +0000";
layers = (
{
layerId = "7763577D-A4D2-4749-AE53-49BDF6EC3913";
shapes = (
{
closed = 1;
nodes = (
(197,-112,l),
(406,226,l),
(102,226,l),
(-7,-112,l)
);
},
{
closed = 1;
nodes = (
(410,700,o),
(478,758,o),
(489,833,cs),
(502,924,o),
(436,1000,o),
(346,1000,cs),
(270,1000,o),
(204,940,o),
(194,867,cs),
(181,774,o),
(244,700,o),
(337,700,cs)
);
}
);
width = 562;
},
{
layerId = "DDA43255-513F-4353-BCA4-425ED8D2F935";
shapes = (
{
closed = 1;
nodes = (
(34,-112,l),
(164,226,l),
(103,226,l),
(-6,-112,l)
);
},
{
closed = 1;
nodes = (
(253,910,o),
(274,928,o),
(277,951,cs),
(281,978,o),
(263,1000,o),
(237,1000,cs),
(213,1000,o),
(192,982,o),
(188,957,cs),
(185,932,o),
(203,910,o),
(231,910,cs)
);
}
);
width = 334;
},
{
layerId = "9333E5AC-F59E-47B3-BDF0-7EA648395594";
shapes = (
{
closed = 1;
nodes = (
(95,-112,l),
(255,226,l),
(103,226,l),
(-6,-112,l)
);
},
{
closed = 1;
nodes = (
(312,831,o),
(351,864,o),
(357,907,cs),
(364,958,o),
(328,1000,o),
(278,1000,cs),
(234,1000,o),
(197,966,o),
(190,923,cs),
(184,873,o),
(218,831,o),
(271,831,cs)
);
}
);
width = 419.5;
}
);
unicode = 59;
},
{
glyphname = exclam;
kernLeft = exclam;
kernRight = exclam;
lastChange = "2021-05-18 07:04:12 +0000";
layers = (
{
layerId = "7763577D-A4D2-4749-AE53-49BDF6EC3913";
shapes = (
{
closed = 1;
nodes = (
(343,420,l),
(480,1400,l),
(230,1400,l),
(93,420,l)
);
},
{
closed = 1;
nodes = (
(246,-26,o),
(312,32,o),
(323,109,cs),
(336,200,o),
(272,274,o),
(181,274,cs),
(106,274,o),
(40,216,o),
(30,143,cs),
(17,48,o),
(80,-26,o),
(173,-26,cs)
);
}
);
width = 498;
},
{
layerId = "DDA43255-513F-4353-BCA4-425ED8D2F935";
shapes = (
{
closed = 1;
nodes = (
(145,420,l),
(282,1400,l),
(222,1400,l),
(85,420,l)
);
},
{
closed = 1;
nodes = (
(78,-26,o),
(99,-8,o),
(102,17,cs),
(106,42,o),
(87,64,o),
(61,64,cs),
(37,64,o),
(16,46,o),
(13,23,cs),
(9,-4,o),
(28,-26,o),
(55,-26,cs)
);
}
);
width = 290;
},
{
layerId = "9333E5AC-F59E-47B3-BDF0-7EA648395594";
shapes = (
{
closed = 1;
nodes = (
(219,420,l),
(356,1400,l),
(225,1400,l),
(88,420,l)
);
},
{
closed = 1;
nodes = (
(141,-26,o),
(179,7,o),
(185,52,cs),
(192,101,o),
(156,143,o),
(106,143,cs),
(63,143,o),
(25,110,o),
(19,68,cs),
(12,16,o),
(48,-26,o),
(99,-26,cs)
);
}
);
width = 368;
}
);
unicode = 33;
},
{
glyphname = exclamdown;
kernLeft = exclamdown;
kernRight = exclamdown;
lastChange = "2021-05-18 07:04:12 +0000";
layers = (
{
layerId = "7763577D-A4D2-4749-AE53-49BDF6EC3913";
shapes = (
{
closed = 1;
nodes = (
(212,1026,o),
(146,968,o),
(135,891,c),
(122,800,o),
(186,726,o),
(277,726,c),
(352,726,o),
(418,784,o),
(428,857,c),
(441,952,o),
(378,1026,o),
(285,1026,c)
);
},
{
closed = 1;
nodes = (
(115,580,l),
(-22,-400,l),
(228,-400,l),
(365,580,l)
);
}
);
width = 498;
},
{
layerId = "DDA43255-513F-4353-BCA4-425ED8D2F935";
shapes = (
{
closed = 1;
nodes = (
(172,1026,o),
(151,1008,o),
(148,983,c),
(144,958,o),
(163,936,o),
(189,936,c),
(213,936,o),
(234,954,o),
(237,977,c),
(241,1004,o),
(222,1026,o),
(195,1026,c)
);
},
{
closed = 1;
nodes = (
(105,580,l),
(-32,-400,l),
(28,-400,l),
(165,580,l)
);
}
);
width = 250;
},
{
layerId = "9333E5AC-F59E-47B3-BDF0-7EA648395594";
shapes = (
{
closed = 1;
nodes = (
(187,1026,o),
(149,993,o),
(143,949,c),
(136,899,o),
(172,857,o),
(222,857,c),
(265,857,o),
(303,890,o),
(309,932,c),
(316,985,o),
(281,1026,o),
(229,1026,c)
);
},
{
closed = 1;
nodes = (
(109,580,l),
(-28,-400,l),
(103,-400,l),
(240,580,l)
);
}
);
width = 343;
}
);
unicode = 161;
},
{
glyphname = question;
kernLeft = question;
kernRight = question;
lastChange = "2021-05-18 07:04:12 +0000";
layers = (
{
layerId = "7763577D-A4D2-4749-AE53-49BDF6EC3913";
shapes = (
{
closed = 1;
nodes = (
(711,392,l),
(718,443,o),
(758,491,o),
(812,510,cs),
(971,596,o),
(1080,756,o),
(1104,929,cs),
(1143,1202,o),
(950,1426,o),
(675,1426,cs),
(418,1426,o),
(181,1218,o),
(144,954,c),
(442,938,l),
(456,1038,o),
(558,1126,o),
(667,1126,cs),
(758,1126,o),
(822,1054,o),
(809,963,cs),
(798,882,o),
(747,816,o),
(680,790,cs),
(534,709,o),
(436,569,o),
(413,408,c)
);
},
{
closed = 1;
nodes = (
(608,-26,o),
(674,32,o),
(685,109,cs),
(698,200,o),
(634,274,o),
(543,274,cs),
(468,274,o),
(402,216,o),
(392,143,cs),
(379,48,o),
(442,-26,o),
(535,-26,cs)
);
}
);
width = 1164;
},
{
layerId = "DDA43255-513F-4353-BCA4-425ED8D2F935";
shapes = (
{
closed = 1;
nodes = (
(487,520,l),
(500,615,o),
(564,700,o),
(655,744,cs),
(777,807,o),
(862,928,o),
(881,1063,cs),
(909,1264,o),
(769,1428,o),
(567,1428,cs),
(371,1428,o),
(188,1268,o),
(160,1068,c),
(219,1064,l),
(243,1232,o),
(398,1368,o),
(565,1368,cs),
(730,1368,o),
(845,1236,o),
(822,1069,cs),
(806,954,o),
(732,851,o),
(629,802,cs),
(519,744,o),
(444,641,o),
(427,524,c)
);
},
{
closed = 1;
nodes = (
(394,-26,o),
(415,-6,o),
(418,17,cs),
(422,42,o),
(403,64,o),
(375,64,cs),
(353,64,o),
(332,46,o),
(329,23,cs),
(325,-2,o),
(344,-26,o),
(369,-26,cs)
);
}
);
width = 922;
},
{
layerId = "9333E5AC-F59E-47B3-BDF0-7EA648395594";
shapes = (
{
closed = 1;
nodes = (
(571,472,l),
(582,551,o),
(637,622,o),
(714,656,cs),
(850,728,o),
(944,864,o),
(965,1013,cs),
(997,1241,o),
(837,1427,o),
(608,1427,cs),
(389,1427,o),
(185,1249,o),
(154,1025,c),
(303,1017,l),
(323,1159,o),
(458,1277,o),
(603,1277,cs),
(741,1277,o),
(836,1168,o),
(817,1029,cs),
(803,927,o),
(738,838,o),
(648,798,cs),
(525,731,o),
(441,614,o),
(422,481,c)
);
},
{
closed = 1;
nodes = (
(474,-26,o),
(512,8,o),
(518,52,cs),
(526,101,o),
(490,143,o),
(438,143,cs),
(396,143,o),
(358,110,o),
(353,68,cs),
(345,17,o),
(381,-26,o),
(431,-26,cs)
);
}
);
width = 1012.75;
}
);
unicode = 63;
},
{
glyphname = questiondown;
kernLeft = questiondown;
kernRight = questiondown;
lastChange = "2021-05-18 07:04:12 +0000";
layers = (
{
layerId = "7763577D-A4D2-4749-AE53-49BDF6EC3913";
shapes = (
{
closed = 1;
nodes = (
(706,-426,o),
(943,-218,o),
(980,46,c),
(682,62,l),
(668,-38,o),
(566,-126,o),
(457,-126,cs),
(366,-126,o),
(302,-54,o),
(315,37,cs),
(326,118,o),
(377,184,o),
(444,210,cs),
(590,291,o),
(688,431,o),
(711,592,c),
(413,608,l),
(406,557,o),
(366,509,o),
(312,490,cs),
(153,404,o),
(44,244,o),
(20,71,cs),
(-19,-202,o),
(174,-426,o),
(449,-426,cs)
);
},
{
closed = 1;
nodes = (
(656,726,o),
(722,784,o),
(732,857,cs),
(745,952,o),
(682,1026,o),
(589,1026,cs),
(516,1026,o),
(450,968,o),
(439,891,cs),
(426,800,o),
(490,726,o),
(581,726,cs)
);
}
);
width = 1164;
},
{
layerId = "DDA43255-513F-4353-BCA4-425ED8D2F935";
shapes = (
{
closed = 1;
nodes = (
(513,-428,o),
(696,-268,o),
(724,-68,c),
(665,-64,l),
(641,-230,o),
(484,-368,o),
(317,-368,cs),
(152,-368,o),
(37,-234,o),
(60,-69,cs),
(76,46,o),
(150,149,o),
(253,200,cs),
(364,259,o),
(439,363,o),
(455,478,c),
(395,482,l),
(382,386,o),
(317,300,o),
(227,256,cs),
(106,195,o),
(20,72,o),
(1,-63,cs),
(-27,-264,o),
(113,-428,o),
(315,-428,cs)
);
},
{
closed = 1;
nodes = (
(529,936,o),
(550,954,o),
(553,977,cs),
(557,1004,o),
(538,1026,o),
(513,1026,cs),
(488,1026,o),
(467,1008,o),
(464,983,cs),
(460,958,o),
(479,936,o),
(507,936,cs)
);
}
);
width = 884;
},
{
layerId = "9333E5AC-F59E-47B3-BDF0-7EA648395594";
shapes = (
{
closed = 1;
nodes = (
(585,-427,o),
(789,-249,o),
(820,-25,c),
(671,-17,l),
(651,-158,o),
(515,-277,o),
(370,-277,cs),
(232,-277,o),
(136,-167,o),
(156,-29,cs),
(170,73,o),
(235,162,o),
(325,204,cs),
(449,271,o),
(532,389,o),
(551,521,c),
(402,529,l),
(391,450,o),
(335,378,o),
(259,344,cs),
(124,273,o),
(29,137,o),
(8,-13,cs),
(-24,-241,o),
(136,-427,o),
(365,-427,cs)
);
},
{
closed = 1;
nodes = (
(577,857,o),
(615,890,o),
(620,932,cs),
(628,985,o),
(592,1026,o),
(542,1026,cs),
(499,1026,o),
(461,993,o),
(455,949,cs),
(447,899,o),
(483,857,o),
(535,857,cs)
);
}
);
width = 989;
}
);
unicode = 191;
},
{
glyphname = periodcentered;
kernLeft = anoteleia;
kernRight = anoteleia;
lastChange = "2021-05-18 07:04:12 +0000";
layers = (
{
layerId = "7763577D-A4D2-4749-AE53-49BDF6EC3913";
shapes = (
{
closed = 1;
nodes = (
(313,450,o),
(381,508,o),
(392,583,cs),
(404,674,o),
(339,750,o),
(248,750,cs),
(173,750,o),
(107,690,o),
(96,617,cs),
(83,524,o),
(147,450,o),
(240,450,cs)
);
}
);
width = 460;
},
{
layerId = "DDA43255-513F-4353-BCA4-425ED8D2F935";
shapes = (
{
closed = 1;
nodes = (
(159,555,o),
(180,573,o),
(184,598,cs),
(187,623,o),
(169,645,o),
(141,645,cs),
(119,645,o),
(98,627,o),
(95,604,cs),
(91,577,o),
(109,555,o),
(135,555,cs)
);
}
);
width = 250;
},
{
layerId = "9333E5AC-F59E-47B3-BDF0-7EA648395594";
shapes = (
{
closed = 1;
nodes = (
(217,516,o),
(255,549,o),
(262,592,cs),
(268,642,o),
(233,684,o),
(181,684,cs),
(139,684,o),
(101,651,o),
(95,609,cs),
(88,557,o),
(123,516,o),
(174,516,cs)
);
}
);
width = 328.75;
}
);
unicode = 183;
},
{
glyphname = bullet;
kernLeft = bullet;
kernRight = bullet;
lastChange = "2021-05-18 07:04:12 +0000";
layers = (
{
layerId = "7763577D-A4D2-4749-AE53-49BDF6EC3913";
shapes = (
{
closed = 1;
nodes = (
(384,400,o),
(477,480,o),
(492,583,cs),
(508,702,o),
(424,800,o),
(305,800,cs),
(202,800,o),
(111,718,o),
(96,617,cs),
(79,496,o),
(162,400,o),
(283,400,cs)
);
}
);
width = 560;
},
{
layerId = "DDA43255-513F-4353-BCA4-425ED8D2F935";
shapes = (
{
closed = 1;
nodes = (
(181,540,o),
(209,564,o),
(214,599,cs),
(219,632,o),
(195,660,o),
(157,660,cs),
(127,660,o),
(99,636,o),
(95,605,cs),
(90,568,o),
(113,540,o),
(147,540,cs)
);
}
);
width = 280;
},
{
layerId = "9333E5AC-F59E-47B3-BDF0-7EA648395594";
shapes = (
{
closed = 1;
nodes = (
(257,488,o),
(310,533,o),
(318,593,cs),
(327,658,o),
(281,713,o),
(213,713,cs),
(155,713,o),
(104,667,o),
(95,610,cs),
(86,541,o),
(131,488,o),
(198,488,cs)
);
}
);
width = 385;
}
);
unicode = 8226;
},
{
glyphname = asterisk;
kernLeft = asterisk;
kernRight = asterisk;
lastChange = "2021-05-18 07:04:12 +0000";
layers = (
{
layerId = "7763577D-A4D2-4749-AE53-49BDF6EC3913";
shapes = (
{
closed = 1;
nodes = (
(421,946,l),
(489,826,l),
(662,944,l),
(589,1064,l),
(738,1108,l),
(701,1300,l),
(557,1254,l),
(579,1400,l),
(378,1400,l),
(357,1254,l),
(219,1300,l),
(134,1108,l),
(267,1064,l),
(163,944,l),
(315,826,l)
);
}
);
width = 734;
},
{
layerId = "DDA43255-513F-4353-BCA4-425ED8D2F935";
shapes = (
{
closed = 1;
nodes = (
(411,1064,l),
(525,866,l),
(578,902,l),
(462,1098,l),
(704,1174,l),
(694,1230,l),
(452,1156,l),
(486,1400,l),
(426,1400,l),
(392,1156,l),
(170,1230,l),
(144,1174,l),
(364,1098,l),
(194,902,l),
(239,866,l)
);
}
);
width = 690;
},
{
layerId = "9333E5AC-F59E-47B3-BDF0-7EA648395594";
shapes = (
{
closed = 1;
nodes = (
(415,1020,l),
(512,851,l),
(610,918,l),
(510,1085,l),
(717,1149,l),
(697,1256,l),
(491,1193,l),
(521,1400,l),
(408,1400,l),
(379,1193,l),
(188,1256,l),
(140,1149,l),
(328,1085,l),
(182,918,l),
(268,851,l)
);
}
);
width = 706.5;
}
);
unicode = 42;
},
{
glyphname = numbersign;
kernLeft = numbersign;
kernRight = numbersign;
lastChange = "2021-05-18 07:04:12 +0000";
layers = (
{
layerId = "7763577D-A4D2-4749-AE53-49BDF6EC3913";
shapes = (
{
closed = 1;
nodes = (
(1618,1140,l),
(1470,1140,l),
(1574,1400,l),
(1271,1400,l),
(1166,1140,l),
(856,1140,l),
(962,1400,l),
(658,1400,l),
(552,1140,l),
(404,1140,l),
(285,850,l),
(435,850,l),
(311,550,l),
(163,550,l),
(44,260,l),
(192,260,l),
(88,0,l),
(392,0,l),
(496,260,l),
(806,260,l),
(700,0,l),
(1004,0,l),
(1110,260,l),
(1258,260,l),
(1377,550,l),
(1227,550,l),
(1351,850,l),
(1499,850,l)
);
},
{
closed = 1;
nodes = (
(615,550,l),
(739,850,l),
(1047,850,l),
(923,550,l)
);
}
);
width = 1606;
},
{
layerId = "DDA43255-513F-4353-BCA4-425ED8D2F935";
shapes = (
{
closed = 1;
nodes = (
(1458,1026,l),
(1230,1026,l),
(1383,1400,l),
(1322,1400,l),
(1170,1026,l),
(618,1026,l),
(771,1400,l),
(710,1400,l),
(558,1026,l),
(328,1026,l),
(303,968,l),
(533,968,l),
(314,434,l),
(86,434,l),
(62,376,l),
(292,376,l),
(137,0,l),
(198,0,l),
(353,376,l),
(904,376,l),
(749,0,l),
(810,0,l),
(965,376,l),
(1193,376,l),
(1217,434,l),
(987,434,l),
(1206,968,l),
(1434,968,l)
);
},
{
closed = 1;
nodes = (
(375,434,l),
(594,968,l),
(1145,968,l),
(926,434,l)
);
}
);
width = 1464;
},
{
layerId = "9333E5AC-F59E-47B3-BDF0-7EA648395594";
shapes = (
{
closed = 1;
nodes = (
(1518,1069,l),
(1320,1069,l),
(1455,1400,l),
(1303,1400,l),
(1169,1069,l),
(707,1069,l),
(843,1400,l),
(691,1400,l),
(556,1069,l),
(357,1069,l),
(296,924,l),
(496,924,l),
(313,478,l),
(115,478,l),
(55,333,l),
(255,333,l),
(119,0,l),
(271,0,l),
(407,333,l),
(867,333,l),
(731,0,l),
(883,0,l),
(1019,333,l),
(1217,333,l),
(1277,478,l),
(1077,478,l),
(1260,924,l),
(1458,924,l)
);
},
{
closed = 1;
nodes = (
(465,478,l),
(648,924,l),
(1108,924,l),
(925,478,l)
);
}
);
width = 1517.25;
}
);
unicode = 35;
},
{
glyphname = slash;
kernLeft = slash;
kernRight = slash;
lastChange = "2021-05-18 07:04:12 +0000";
layers = (
{
layerId = "7763577D-A4D2-4749-AE53-49BDF6EC3913";
shapes = (
{
closed = 1;
nodes = (
(610,1400,l),
(-8,-112,l),
(296,-112,l),
(915,1400,l)
);
}
);
width = 866;
},
{
layerId = "DDA43255-513F-4353-BCA4-425ED8D2F935";
shapes = (
{
closed = 1;
nodes = (
(610,1400,l),
(-6,-112,l),
(54,-112,l),
(671,1400,l)
);
}
);
width = 624;
},
{
layerId = "9333E5AC-F59E-47B3-BDF0-7EA648395594";
shapes = (
{
closed = 1;
nodes = (
(610,1400,l),
(-7,-112,l),
(145,-112,l),
(763,1400,l)
);
}
);
width = 714.75;
}
);
unicode = 47;
},
{
glyphname = backslash;
kernLeft = backslash;
kernRight = backslash;
lastChange = "2021-05-18 07:04:12 +0000";
layers = (
{
layerId = "7763577D-A4D2-4749-AE53-49BDF6EC3913";
shapes = (
{
closed = 1;
nodes = (
(696,-112,l),
(504,1400,l),
(209,1400,l),
(400,-112,l)
);
}
);
width = 864;
},
{
layerId = "DDA43255-513F-4353-BCA4-425ED8D2F935";
shapes = (
{
closed = 1;
nodes = (
(460,-112,l),
(266,1400,l),
(207,1400,l),
(400,-112,l)
);
}
);
width = 626;
},
{
layerId = "9333E5AC-F59E-47B3-BDF0-7EA648395594";
shapes = (
{
closed = 1;
nodes = (
(549,-112,l),
(355,1400,l),
(208,1400,l),
(400,-112,l)
);
}
);
width = 715.25;
}
);
unicode = 92;
},
{
glyphname = parenleft;
kernLeft = parenleft;
kernRight = parenleft;
lastChange = "2021-05-18 07:04:12 +0000";
layers = (
{
layerId = "7763577D-A4D2-4749-AE53-49BDF6EC3913";
shapes = (
{
closed = 1;
nodes = (
(628,-118,l),
(517,34,o),
(395,324,o),
(438,627,cs),
(473,874,o),
(723,1334,o),
(853,1396,c),
(539,1403,l),
(367,1343,o),
(173,880,o),
(143,661,cs),
(97,334,o),
(160,104,o),
(341,-106,c)
);
}
);
width = 820;
},
{
layerId = "DDA43255-513F-4353-BCA4-425ED8D2F935";
shapes = (
{
closed = 1;
nodes = (
(367,-113,l),
(208,85,o),
(168,326,o),
(200,641,c),
(256,952,o),
(360,1187,o),
(581,1399,c),
(519,1401,l),
(299,1227,o),
(181,934,o),
(141,647,cs),
(101,366,o),
(136,67,o),
(309,-111,c)
);
}
);
width = 554;
},
{
layerId = "9333E5AC-F59E-47B3-BDF0-7EA648395594";
shapes = (
{
closed = 1;
nodes = (
(465,-115,l),
(324,66,o),
(253,325,o),
(289,636,c),
(337,923,o),
(496,1242,o),
(683,1398,c),
(527,1402,l),
(325,1271,o),
(178,914,o),
(142,652,cs),
(100,354,o),
(145,81,o),
(321,-109,c)
);
}
);
width = 653.75;
}
);
unicode = 40;
},
{
glyphname = parenright;
kernLeft = parenright;
kernRight = parenright;
lastChange = "2021-05-18 07:04:12 +0000";
layers = (
{
layerId = "7763577D-A4D2-4749-AE53-49BDF6EC3913";
shapes = (
{
closed = 1;
nodes = (
(319,-118,l),
(559,92,o),
(674,318,o),
(718,627,cs),
(751,864,o),
(674,1337,o),
(518,1397,c),
(234,1404,l),
(348,1342,o),
(455,890,o),
(423,661,cs),
(378,340,o),
(163,46,o),
(9,-106,c)
);
}
);
width = 820;
},
{
layerId = "DDA43255-513F-4353-BCA4-425ED8D2F935";
shapes = (
{
closed = 1;
nodes = (
(75,-113,l),
(298,65,o),
(415,362,o),
(454,641,cs),
(494,930,o),
(457,1225,o),
(285,1399,c),
(228,1401,l),
(390,1189,o),
(426,956,o),
(395,647,c),
(338,330,o),
(227,87,o),
(13,-111,c)
);
}
);
width = 554;
},
{
layerId = "9333E5AC-F59E-47B3-BDF0-7EA648395594";
shapes = (
{
closed = 1;
nodes = (
(167,-115,l),
(396,75,o),
(512,346,o),
(553,636,cs),
(590,905,o),
(538,1267,o),
(372,1398,c),
(230,1402,l),
(374,1246,o),
(437,931,o),
(406,652,c),
(353,334,o),
(203,72,o),
(12,-109,c)
);
}
);
width = 653.75;
}
);
unicode = 41;
},
{
glyphname = braceleft;
kernLeft = braceleft;
kernRight = braceleft;
lastChange = "2021-05-18 07:04:12 +0000";
layers = (
{
layerId = "7763577D-A4D2-4749-AE53-49BDF6EC3913";
shapes = (
{
closed = 1;
nodes = (
(644,-112,l),
(686,188,l),
(552,188,ls),
(524,188,o),
(512,202,o),
(516,230,cs),
(551,486,ls),
(556,550,o),
(483,576,o),
(490,627,cs),
(499,690,o),
(582,724,o),
(595,786,cs),
(630,1042,ls),
(634,1070,o),
(669,1100,o),
(697,1100,cs),
(814,1100,l),
(856,1400,l),
(722,1400,ls),
(528,1400,o),
(359,1250,o),
(332,1058,cs),
(298,812,ls),
(290,758,o),
(152,728,o),
(143,661,cs),
(130,568,o),
(262,554,o),
(253,490,cs),
(218,246,ls),
(191,52,o),
(332,-112,o),
(526,-112,cs)
);
}
);
width = 830;
},
{
layerId = "DDA43255-513F-4353-BCA4-425ED8D2F935";
shapes = (
{
closed = 1;
nodes = (
(604,-114,l),
(612,-54,l),
(562,-54,l),
(402,-54,o),
(292,74,o),
(315,234,c),
(349,482,l),
(358,568,o),
(337,573,o),
(232,640,c),
(355,707,o),
(378,714,o),
(394,800,c),
(429,1048,l),
(452,1208,o),
(604,1340,o),
(762,1340,c),
(808,1340,l),
(816,1400,l),
(767,1400,l),
(573,1400,o),
(397,1244,o),
(370,1052,c),
(335,806,l),
(315,706,o),
(153,736,o),
(140,645,c),
(128,560,o),
(298,584,o),
(290,484,c),
(255,238,l),
(228,46,o),
(363,-114,o),
(557,-114,c)
);
}
);
width = 790;
},
{
layerId = "9333E5AC-F59E-47B3-BDF0-7EA648395594";
shapes = (
{
closed = 1;
nodes = (
(619,-113,l),
(640,37,l),
(558,37,l),
(448,37,o),
(375,122,o),
(390,233,c),
(425,484,l),
(432,561,o),
(392,574,o),
(329,635,c),
(409,701,o),
(455,718,o),
(469,795,c),
(504,1046,l),
(520,1156,o),
(628,1250,o),
(738,1250,c),
(810,1250,l),
(831,1400,l),
(750,1400,l),
(556,1400,o),
(383,1246,o),
(356,1054,c),
(321,808,l),
(306,726,o),
(153,733,o),
(141,651,c),
(129,563,o),
(285,573,o),
(276,486,c),
(241,241,l),
(214,48,o),
(351,-113,o),
(545,-113,c)
);
}
);
width = 805;
}
);
unicode = 123;
},
{
glyphname = braceright;
kernLeft = braceright;
kernRight = braceright;
lastChange = "2021-05-18 07:04:12 +0000";
layers = (
{
layerId = "7763577D-A4D2-4749-AE53-49BDF6EC3913";
shapes = (
{
closed = 1;
nodes = (
(148,-112,ls),
(342,-112,o),
(511,36,o),
(538,230,cs),
(572,474,ls),
(581,538,o),
(717,552,o),
(728,627,cs),
(740,712,o),
(610,742,o),
(618,796,cs),
(652,1042,ls),
(679,1234,o),
(538,1400,o),
(344,1400,cs),
(226,1400,l),
(184,1100,l),
(319,1100,ls),
(347,1100,o),
(358,1086,o),
(354,1058,cs),
(319,802,l),
(314,740,o),
(387,706,o),
(381,661,cs),
(371,592,o),
(289,566,o),
(276,502,c),
(240,246,ls),
(236,218,o),
(202,188,o),
(174,188,cs),
(56,188,l),
(14,-112,l)
);
}
);
width = 830;
},
{
layerId = "DDA43255-513F-4353-BCA4-425ED8D2F935";
shapes = (
{
closed = 1;
nodes = (
(63,-114,ls),
(257,-114,o),
(434,42,o),
(461,234,cs),
(495,480,l),
(515,580,o),
(678,556,o),
(689,639,cs),
(703,732,o),
(532,702,o),
(540,802,c),
(575,1048,ls),
(602,1240,o),
(467,1400,o),
(273,1400,cs),
(226,1400,l),
(218,1340,l),
(268,1340,ls),
(426,1340,o),
(538,1212,o),
(516,1052,cs),
(481,804,ls),
(473,718,o),
(497,709,o),
(598,644,c),
(471,575,o),
(452,572,o),
(436,486,cs),
(401,238,ls),
(379,78,o),
(228,-54,o),
(68,-54,cs),
(22,-54,l),
(14,-114,l)
);
}
);
width = 790;
},
{
layerId = "9333E5AC-F59E-47B3-BDF0-7EA648395594";
shapes = (
{
closed = 1;
nodes = (
(95,-113,ls),
(289,-113,o),
(463,40,o),
(490,233,cs),
(524,478,l),
(540,564,o),
(693,555,o),
(704,635,cs),
(717,725,o),
(561,717,o),
(569,800,c),
(604,1046,ls),
(631,1238,o),
(494,1400,o),
(300,1400,cs),
(226,1400,l),
(205,1250,l),
(287,1250,ls),
(396,1250,o),
(471,1165,o),
(455,1054,cs),
(420,803,ls),
(413,726,o),
(456,708,o),
(517,650,c),
(434,581,o),
(391,570,o),
(376,492,cs),
(341,241,ls),
(325,131,o),
(218,37,o),
(108,37,cs),
(35,37,l),
(14,-113,l)
);
}
);
width = 805;
}
);
unicode = 125;
},
{
glyphname = bracketleft;
kernLeft = bracketleft;
kernRight = bracketleft;
lastChange = "2021-05-18 07:04:12 +0000";
layers = (
{
layerId = "7763577D-A4D2-4749-AE53-49BDF6EC3913";
shapes = (
{
closed = 1;
nodes = (
(376,188,l),
(504,1100,l),
(680,1100,l),
(722,1400,l),
(246,1400,l),
(34,-112,l),
(510,-112,l),
(552,188,l)
);
}
);
width = 696;
},
{
layerId = "DDA43255-513F-4353-BCA4-425ED8D2F935";
shapes = (
{
closed = 1;
nodes = (
(102,-52,l),
(298,1340,l),
(478,1340,l),
(486,1400,l),
(246,1400,l),
(34,-112,l),
(274,-112,l),
(282,-52,l)
);
}
);
width = 460;
},
{
layerId = "9333E5AC-F59E-47B3-BDF0-7EA648395594";
shapes = (
{
closed = 1;
nodes = (
(205,38,l),
(375,1250,l),
(554,1250,l),
(575,1400,l),
(246,1400,l),
(34,-112,l),
(363,-112,l),
(383,38,l)
);
}
);
width = 548.5;
}
);
unicode = 91;
},
{
glyphname = bracketright;
kernLeft = bracketright;
kernRight = bracketright;
lastChange = "2021-05-18 07:04:12 +0000";
layers = (
{
layerId = "7763577D-A4D2-4749-AE53-49BDF6EC3913";
shapes = (
{
closed = 1;
nodes = (
(492,-112,l),
(704,1400,l),
(226,1400,l),
(184,1100,l),
(362,1100,l),
(234,188,l),
(56,188,l),
(14,-112,l)
);
}
);
width = 698;
},
{
layerId = "DDA43255-513F-4353-BCA4-425ED8D2F935";
shapes = (
{
closed = 1;
nodes = (
(254,-112,l),
(466,1400,l),
(226,1400,l),
(218,1340,l),
(398,1340,l),
(202,-52,l),
(22,-52,l),
(14,-112,l)
);
}
);
width = 460;
},
{
layerId = "9333E5AC-F59E-47B3-BDF0-7EA648395594";
shapes = (
{
closed = 1;
nodes = (
(343,-112,l),
(555,1400,l),
(226,1400,l),
(205,1250,l),
(385,1250,l),
(214,38,l),
(35,38,l),
(14,-112,l)
);
}
);
width = 549.25;
}
);
unicode = 93;
},
{
glyphname = hyphen;
kernLeft = hyphen;
kernRight = hyphen;
lastChange = "2021-05-18 07:04:12 +0000";
layers = (
{
layerId = "7763577D-A4D2-4749-AE53-49BDF6EC3913";
shapes = (
{
closed = 1;
nodes = (
(113,450,l),
(753,450,l),
(795,750,l),
(155,750,l)
);
}
);
width = 880;
},
{
layerId = "DDA43255-513F-4353-BCA4-425ED8D2F935";
shapes = (
{
closed = 1;
nodes = (
(130,570,l),
(770,570,l),
(778,630,l),
(138,630,l)
);
}
);
width = 880;
},
{
layerId = "9333E5AC-F59E-47B3-BDF0-7EA648395594";
shapes = (
{
closed = 1;
nodes = (
(124,525,l),
(764,525,l),
(784,675,l),
(144,675,l)
);
}
);
width = 880;
}
);
unicode = 45;
},
{
glyphname = endash;
kernLeft = hyphen;
kernRight = hyphen;
lastChange = "2021-05-18 07:04:12 +0000";
layers = (
{
layerId = "7763577D-A4D2-4749-AE53-49BDF6EC3913";
shapes = (
{
closed = 1;
nodes = (
(113,450,l),
(1113,450,l),
(1155,750,l),
(155,750,l)
);
}
);
width = 1240;
},
{
layerId = "DDA43255-513F-4353-BCA4-425ED8D2F935";
shapes = (
{
closed = 1;
nodes = (
(130,570,l),
(1130,570,l),
(1138,630,l),
(138,630,l)
);
}
);
width = 1240;
},
{
layerId = "9333E5AC-F59E-47B3-BDF0-7EA648395594";
shapes = (
{
closed = 1;
nodes = (
(124,525,l),
(1124,525,l),
(1144,675,l),
(144,675,l)
);
}
);
width = 1240;
}
);
unicode = 8211;
},
{
glyphname = emdash;
kernLeft = hyphen;
kernRight = hyphen;
lastChange = "2021-05-18 07:04:12 +0000";
layers = (
{
layerId = "7763577D-A4D2-4749-AE53-49BDF6EC3913";
shapes = (
{
closed = 1;
nodes = (
(113,450,l),
(1913,450,l),
(1955,750,l),
(155,750,l)
);
}
);
width = 2040;
},
{
layerId = "DDA43255-513F-4353-BCA4-425ED8D2F935";
shapes = (
{
closed = 1;
nodes = (
(130,570,l),
(1930,570,l),
(1938,630,l),
(138,630,l)
);
}
);
width = 2040;
},
{
layerId = "9333E5AC-F59E-47B3-BDF0-7EA648395594";
shapes = (
{
closed = 1;
nodes = (
(124,525,l),
(1924,525,l),
(1944,675,l),
(144,675,l)
);
}
);
width = 2040;
}
);
unicode = 8212;
},
{
glyphname = underscore;
kernLeft = underscore;
kernRight = underscore;
lastChange = "2021-05-18 07:04:12 +0000";
layers = (
{
layerId = "7763577D-A4D2-4749-AE53-49BDF6EC3913";
shapes = (
{
closed = 1;
nodes = (
(34,-112,l),
(1034,-112,l),
(1076,188,l),
(76,188,l)
);
}
);
width = 1240;
},
{
layerId = "DDA43255-513F-4353-BCA4-425ED8D2F935";
shapes = (
{
closed = 1;
nodes = (
(34,-112,l),
(1034,-112,l),
(1042,-52,l),
(42,-52,l)
);
}
);
width = 1240;
},
{
layerId = "9333E5AC-F59E-47B3-BDF0-7EA648395594";
shapes = (
{
closed = 1;
nodes = (
(34,-112,l),
(1034,-112,l),
(1055,38,l),
(55,38,l)
);
}
);
width = 1240;
}
);
unicode = 95;
},
{
glyphname = quoteleft;
kernLeft = quotedblleft;
kernRight = quotedblleft;
lastChange = "2021-05-18 07:04:12 +0000";
layers = (
{
layerId = "7763577D-A4D2-4749-AE53-49BDF6EC3913";
shapes = (
{
closed = 1;
nodes = (
(414,878,l),
(549,1400,l),
(346,1400,l),
(111,878,l)
);
}
);
width = 462;
},
{
layerId = "DDA43255-513F-4353-BCA4-425ED8D2F935";
shapes = (
{
closed = 1;
nodes = (
(173,878,l),
(309,1400,l),
(268,1400,l),
(113,878,l)
);
}
);
width = 222;
},
{
layerId = "9333E5AC-F59E-47B3-BDF0-7EA648395594";
shapes = (
{
closed = 1;
nodes = (
(263,878,l),
(399,1400,l),
(297,1400,l),
(112,878,l)
);
}
);
width = 312;
}
);
unicode = (8216,699);
},
{
glyphname = quoteright;
kernLeft = quotedblleft;
kernRight = quotedblleft;
lastChange = "2021-05-18 07:04:12 +0000";
layers = (
{
layerId = "7763577D-A4D2-4749-AE53-49BDF6EC3913";
shapes = (
{
closed = 1;
nodes = (
(295,878,l),
(531,1400,l),
(228,1400,l),
(92,878,l)
);
}
);
width = 462;
},
{
layerId = "DDA43255-513F-4353-BCA4-425ED8D2F935";
shapes = (
{
closed = 1;
nodes = (
(133,878,l),
(289,1400,l),
(228,1400,l),
(93,878,l)
);
}
);
width = 222;
},
{
layerId = "9333E5AC-F59E-47B3-BDF0-7EA648395594";
shapes = (
{
closed = 1;
nodes = (
(194,878,l),
(380,1400,l),
(228,1400,l),
(93,878,l)
);
}
);
width = 312;
}
);
unicode = (8217,8242);
},
{
glyphname = guilsinglleft;
kernLeft = guillemotleft;
kernRight = guillemotleft;
lastChange = "2021-05-18 07:04:12 +0000";
layers = (
{
layerId = "7763577D-A4D2-4749-AE53-49BDF6EC3913";
shapes = (
{
closed = 1;
nodes = (
(683,261,l),
(436,601,l),
(785,939,l),
(479,939,l),
(134,601,l),
(390,261,l)
);
}
);
width = 820;
},
{
layerId = "DDA43255-513F-4353-BCA4-425ED8D2F935";
shapes = (
{
closed = 1;
nodes = (
(466,261,l),
(214,601,l),
(562,939,l),
(481,939,l),
(134,601,l),
(387,261,l)
);
}
);
width = 600;
},
{
layerId = "9333E5AC-F59E-47B3-BDF0-7EA648395594";
shapes = (
{
closed = 1;
nodes = (
(547,261,l),
(297,601,l),
(646,939,l),
(480,939,l),
(134,601,l),
(388,261,l)
);
}
);
width = 682.5;
}
);
unicode = 8249;
},
{
glyphname = guilsinglright;
kernLeft = guillemotright;
kernRight = guillemotright;
lastChange = "2021-05-18 07:04:12 +0000";
layers = (
{
layerId = "7763577D-A4D2-4749-AE53-49BDF6EC3913";
shapes = (
{
closed = 1;
nodes = (
(370,261,l),
(714,601,l),
(459,939,l),
(165,939,l),
(412,601,l),
(63,261,l)
);
}
);
width = 820;
},
{
layerId = "DDA43255-513F-4353-BCA4-425ED8D2F935";
shapes = (
{
closed = 1;
nodes = (
(147,261,l),
(494,601,l),
(241,939,l),
(162,939,l),
(414,601,l),
(66,261,l)
);
}
);
width = 600;
},
{
layerId = "9333E5AC-F59E-47B3-BDF0-7EA648395594";
shapes = (
{
closed = 1;
nodes = (
(231,261,l),
(577,601,l),
(323,939,l),
(163,939,l),
(413,601,l),
(65,261,l)
);
}
);
width = 682.5;
}
);
unicode = 8250;
},
{
glyphname = primeReversed;
kernLeft = primeReversed;
kernRight = primeReversed;
lastChange = "2021-05-18 07:04:12 +0000";
layers = (
{
layerId = "7763577D-A4D2-4749-AE53-49BDF6EC3913";
shapes = (
{
closed = 1;
nodes = (
(534,878,l),
(546,1400,l),
(249,1400,l),
(337,878,l)
);
}
);
width = 602;
},
{
layerId = "DDA43255-513F-4353-BCA4-425ED8D2F935";
shapes = (
{
closed = 1;
nodes = (
(295,878,l),
(306,1400,l),
(247,1400,l),
(255,878,l)
);
}
);
width = 362;
},
{
layerId = "9333E5AC-F59E-47B3-BDF0-7EA648395594";
shapes = (
{
closed = 1;
nodes = (
(385,878,l),
(396,1400,l),
(248,1400,l),
(286,878,l)
);
}
);
width = 452;
}
);
unicode = 8245;
},
{
glyphname = quotesingle;
kernLeft = quotesingle;
kernRight = quotesingle;
lastChange = "2021-05-18 07:04:12 +0000";
layers = (
{
layerId = "7763577D-A4D2-4749-AE53-49BDF6EC3913";
shapes = (
{
closed = 1;
nodes = (
(313,878,l),
(386,1400,l),
(186,1400,l),
(113,878,l)
);
}
);
width = 320;
},
{
layerId = "DDA43255-513F-4353-BCA4-425ED8D2F935";
shapes = (
{
closed = 1;
nodes = (
(193,878,l),
(266,1400,l),
(206,1400,l),
(133,878,l)
);
}
);
width = 220;
},
{
layerId = "9333E5AC-F59E-47B3-BDF0-7EA648395594";
shapes = (
{
closed = 1;
nodes = (
(238,878,l),
(311,1400,l),
(199,1400,l),
(126,878,l)
);
}
);
width = 257.5;
}
);
unicode = 39;
},
